Crimson-Italic.ufo
<glyph name="numbersign" format="1">
  <advance width="447"/>
  <unicode hex="0023"/>
  <outline>
    <contour>
      <point x="350" y="370" type="line"/>
      <point x="430" y="370" type="line" smooth="yes"/>
      <point x="435" y="370"/>
      <point x="435" y="370"/>
      <point x="435" y="368" type="curve" smooth="yes"/>
      <point x="435" y="352"/>
      <point x="420" y="320"/>
      <point x="412" y="320" type="curve" smooth="yes"/>
      <point x="333" y="320" type="line"/>
      <point x="303" y="228" type="line"/>
      <point x="382" y="228" type="line" smooth="yes"/>
      <point x="386" y="228"/>
      <point x="387" y="228"/>
      <point x="387" y="225" type="curve" smooth="yes"/>
      <point x="387" y="209"/>
      <point x="372" y="178"/>
      <point x="364" y="178" type="curve" smooth="yes"/>
      <point x="285" y="178" type="line"/>
      <point x="234" y="25" type="line" smooth="yes"/>
      <point x="234" y="24"/>
      <point x="231" y="18"/>
      <point x="203" y="18" type="curve" smooth="yes"/>
      <point x="195" y="18"/>
      <point x="186" y="20"/>
      <point x="184" y="21" type="curve"/>
      <point x="186" y="30"/>
      <point x="236" y="173"/>
      <point x="236" y="174" type="curve" smooth="yes"/>
      <point x="238" y="178" type="line"/>
      <point x="145" y="178" type="line"/>
      <point x="94" y="25" type="line" smooth="yes"/>
      <point x="94" y="24"/>
      <point x="91" y="18"/>
      <point x="63" y="18" type="curve" smooth="yes"/>
      <point x="55" y="18"/>
      <point x="46" y="20"/>
      <point x="44" y="21" type="curve"/>
      <point x="46" y="30"/>
      <point x="96" y="173"/>
      <point x="96" y="174" type="curve" smooth="yes"/>
      <point x="98" y="178" type="line"/>
      <point x="18" y="178" type="line" smooth="yes"/>
      <point x="14" y="178"/>
      <point x="13" y="178"/>
      <point x="13" y="181" type="curve" smooth="yes"/>
      <point x="13" y="197"/>
      <point x="28" y="228"/>
      <point x="36" y="228" type="curve" smooth="yes"/>
      <point x="115" y="228" type="line"/>
      <point x="145" y="320" type="line"/>
      <point x="66" y="320" type="line" smooth="yes"/>
      <point x="62" y="320"/>
      <point x="61" y="320"/>
      <point x="61" y="323" type="curve" smooth="yes"/>
      <point x="61" y="339"/>
      <point x="76" y="370"/>
      <point x="84" y="370" type="curve" smooth="yes"/>
      <point x="163" y="370" type="line"/>
      <point x="214" y="523" type="line" smooth="yes"/>
      <point x="214" y="524"/>
      <point x="217" y="530"/>
      <point x="245" y="530" type="curve" smooth="yes"/>
      <point x="253" y="530"/>
      <point x="262" y="527"/>
      <point x="264" y="526" type="curve"/>
      <point x="262" y="519"/>
      <point x="212" y="375"/>
      <point x="212" y="374" type="curve" smooth="yes"/>
      <point x="210" y="370" type="line"/>
      <point x="303" y="370" type="line"/>
      <point x="354" y="523" type="line" smooth="yes"/>
      <point x="354" y="524"/>
      <point x="357" y="530"/>
      <point x="385" y="530" type="curve" smooth="yes"/>
      <point x="393" y="530"/>
      <point x="402" y="527"/>
      <point x="404" y="526" type="curve"/>
      <point x="402" y="519"/>
      <point x="352" y="375"/>
      <point x="352" y="374" type="curve" smooth="yes"/>
    </contour>
    <contour>
      <point x="285" y="320" type="line"/>
      <point x="193" y="320" type="line"/>
      <point x="163" y="228" type="line"/>
      <point x="255" y="228" type="line"/>
    </contour>
  </outline>
</glyph>
<glyph name="dollar" format="1">
  <advance width="435"/>
  <unicode hex="0024"/>
  <outline>
    <contour>
      <point x="120" y="-52" type="line"/>
      <point x="112" y="-52"/>
      <point x="88" y="-50"/>
      <point x="89" y="-43" type="curve" smooth="yes"/>
      <point x="104.763" y="2.23201" type="line"/>
      <point x="77.1848" y="10.272"/>
      <point x="52.1419" y="21.7807"/>
      <point x="30" y="32" type="curve"/>
      <point x="17" y="84"/>
      <point x="17" y="165"/>
      <point x="19" y="177" type="curve" smooth="yes"/>
      <point x="22" y="181"/>
      <point x="36" y="183"/>
      <point x="43" y="183" type="curve" smooth="yes"/>
      <point x="48" y="183"/>
      <point x="51" y="181"/>
      <point x="53" y="177" type="curve" smooth="yes"/>
      <point x="53" y="138.379"/>
      <point x="71.5855" y="75.8615"/>
      <point x="119.591" y="44.7831" type="curve"/>
      <point x="203.425" y="285.349" type="line"/>
      <point x="147.617" y="328.432"/>
      <point x="84" y="364.942"/>
      <point x="84" y="458" type="curve" smooth="yes"/>
      <point x="84" y="569"/>
      <point x="196" y="641"/>
      <point x="286" y="641" type="curve" smooth="yes"/>
      <point x="301.222" y="641"/>
      <point x="314.448" y="640.187"/>
      <point x="326.584" y="638.763" type="curve"/>
      <point x="342" y="683" type="line"/>
      <point x="349" y="683"/>
      <point x="374" y="683"/>
      <point x="373" y="676" type="curve" smooth="yes"/>
      <point x="358.193" y="633.394" type="line"/>
      <point x="377.288" y="629.211"/>
      <point x="395.6" y="623.719"/>
      <point x="418" y="618" type="curve"/>
      <point x="415" y="585"/>
      <point x="404" y="508"/>
      <point x="398" y="479" type="curve" smooth="yes"/>
      <point x="397" y="472"/>
      <point x="392" y="472"/>
      <point x="389" y="472" type="curve" smooth="yes"/>
      <point x="385" y="472"/>
      <point x="374" y="473"/>
      <point x="368" y="479" type="curve"/>
      <point x="371.038" y="525.781"/>
      <point x="364.848" y="562.966"/>
      <point x="341.356" y="584.946" type="curve"/>
      <point x="261.879" y="356.252" type="line" smooth="yes"/>
      <point x="264.604" y="354.188"/>
      <point x="267.315" y="352.106"/>
      <point x="270" y="350" type="curve" smooth="yes"/>
      <point x="321" y="310"/>
      <point x="392" y="275"/>
      <point x="392" y="185" type="curve" smooth="yes"/>
      <point x="392" y="66"/>
      <point x="268" y="-8"/>
      <point x="172" y="-8" type="curve" smooth="yes"/>
      <point x="159.755" y="-8"/>
      <point x="147.857" y="-6.90955"/>
      <point x="136.328" y="-5.01557" type="curve"/>
    </contour>
    <contour>
      <point x="229.978" y="264.458" type="curve"/>
      <point x="148.925" y="31.2317" type="line"/>
      <point x="160.131" y="27.8695"/>
      <point x="172.465" y="26"/>
      <point x="186" y="26" type="curve" smooth="yes"/>
      <point x="242" y="26"/>
      <point x="306" y="65"/>
      <point x="306" y="141" type="curve" smooth="yes"/>
      <point x="306" y="202.244"/>
      <point x="271.336" y="231.975"/>
    </contour>
    <contour>
      <point x="235.089" y="376.211" type="curve"/>
      <point x="313.464" y="601.115" type="line"/>
      <point x="301.878" y="604.972"/>
      <point x="288.152" y="607"/>
      <point x="272" y="607" type="curve" smooth="yes"/>
      <point x="193" y="607"/>
      <point x="159" y="549"/>
      <point x="159" y="500" type="curve" smooth="yes"/>
      <point x="159" y="438.727"/>
      <point x="195.094" y="406.329"/>
    </contour>
  </outline>
</glyph>
<glyph name="ampersand" format="1">
  <advance width="781"/>
  <unicode hex="0026"/>
  <outline>
    <contour>
      <point x="418" y="536" type="curve" smooth="yes"/>
      <point x="464" y="536"/>
      <point x="502" y="498"/>
      <point x="502" y="452" type="curve" smooth="yes"/>
      <point x="502" y="321.385"/>
      <point x="313.703" y="259.442"/>
      <point x="221.381" y="235.715" type="curve"/>
      <point x="227.022" y="95.6949"/>
      <point x="295.155" y="27"/>
      <point x="410" y="27" type="curve" smooth="yes"/>
      <point x="502" y="27"/>
      <point x="597" y="99"/>
      <point x="597" y="192" type="curve" smooth="yes"/>
      <point x="597" y="209"/>
      <point x="588" y="232"/>
      <point x="582" y="238" type="curve"/>
      <point x="532" y="222"/>
      <point x="468" y="189"/>
      <point x="468" y="145" type="curve" smooth="yes"/>
      <point x="468" y="136"/>
      <point x="469" y="128"/>
      <point x="472" y="123" type="curve"/>
      <point x="468" y="121"/>
      <point x="457" y="122"/>
      <point x="452" y="128" type="curve" smooth="yes"/>
      <point x="441" y="137"/>
      <point x="431" y="160"/>
      <point x="431" y="185" type="curve" smooth="yes"/>
      <point x="431" y="230"/>
      <point x="472" y="261"/>
      <point x="546" y="293" type="curve" smooth="yes"/>
      <point x="637" y="332"/>
      <point x="746" y="402"/>
      <point x="737" y="542" type="curve"/>
      <point x="746" y="543"/>
      <point x="754" y="537"/>
      <point x="757" y="534" type="curve" smooth="yes"/>
      <point x="769" y="510"/>
      <point x="779" y="482"/>
      <point x="779" y="440" type="curve" smooth="yes"/>
      <point x="779" y="360"/>
      <point x="724" y="298"/>
      <point x="654" y="264" type="curve"/>
      <point x="658" y="256"/>
      <point x="660" y="243"/>
      <point x="660" y="228" type="curve" smooth="yes"/>
      <point x="660" y="108"/>
      <point x="525" y="-5"/>
      <point x="378" y="-5" type="curve" smooth="yes"/>
      <point x="249.039" y="-5"/>
      <point x="142.368" y="54.1156"/>
      <point x="139.078" y="216.232" type="curve"/>
      <point x="86.6828" y="203.048"/>
      <point x="43" y="186.714"/>
      <point x="43" y="154" type="curve" smooth="yes"/>
      <point x="43" y="136"/>
      <point x="55" y="130"/>
      <point x="63" y="123" type="curve" smooth="yes"/>
      <point x="72" y="115"/>
      <point x="82" y="106"/>
      <point x="82" y="90" type="curve" smooth="yes"/>
      <point x="82" y="61"/>
      <point x="62" y="47"/>
      <point x="38" y="47" type="curve" smooth="yes"/>
      <point x="28" y="47"/>
      <point x="20" y="48"/>
      <point x="13" y="52" type="curve" smooth="yes"/>
      <point x="0" y="63"/>
      <point x="-7" y="91"/>
      <point x="-7" y="107" type="curve" smooth="yes"/>
      <point x="-7" y="169"/>
      <point x="31" y="218"/>
      <point x="102" y="238" type="curve" smooth="yes"/>
      <point x="112.332" y="240.914"/>
      <point x="125.313" y="244.372"/>
      <point x="140.06" y="248.462" type="curve"/>
      <point x="152.021" y="387.915"/>
      <point x="264.047" y="536"/>
    </contour>
    <contour>
      <point x="221.407" y="273.527" type="curve"/>
      <point x="311.018" y="304.918"/>
      <point x="409" y="355.198"/>
      <point x="409" y="435" type="curve" smooth="yes"/>
      <point x="409" y="470"/>
      <point x="396" y="494"/>
      <point x="358" y="494" type="curve" smooth="yes"/>
      <point x="292.106" y="494"/>
      <point x="227.123" y="402.8"/>
    </contour>
  </outline>
</glyph>
<glyph name="one" format="1">
  <advance width="456"/>
  <unicode hex="0031"/>
  <outline>
    <contour>
      <point x="224.286" y="534" type="curve"/>
      <point x="217.286" y="538"/>
      <point x="214.286" y="547"/>
      <point x="215.286" y="554" type="curve" smooth="yes"/>
      <point x="215.286" y="556"/>
      <point x="215.286" y="559"/>
      <point x="218.286" y="560" type="curve" smooth="yes"/>
      <point x="311.286" y="604"/>
      <point x="393.286" y="642"/>
      <point x="396.286" y="642" type="curve" smooth="yes"/>
      <point x="398.286" y="642" type="line" smooth="yes"/>
      <point x="404.286" y="642"/>
      <point x="406.286" y="628"/>
      <point x="406.286" y="623" type="curve"/>
      <point x="406.286" y="623"/>
      <point x="390.286" y="590"/>
      <point x="378.286" y="529" type="curve" smooth="yes"/>
      <point x="302.286" y="135" type="line" smooth="yes"/>
      <point x="296.286" y="102"/>
      <point x="291.286" y="73"/>
      <point x="292.286" y="46" type="curve" smooth="yes"/>
      <point x="293.286" y="35"/>
      <point x="343.286" y="26"/>
      <point x="350.286" y="26" type="curve" smooth="yes"/>
      <point x="353.286" y="26"/>
      <point x="351.286" y="15"/>
      <point x="350.286" y="8" type="curve" smooth="yes"/>
      <point x="349.286" y="3"/>
      <point x="348.286" y="-1"/>
      <point x="347.286" y="-3" type="curve"/>
      <point x="310.286" y="-1"/>
      <point x="274.286" y="2"/>
      <point x="237.286" y="2" type="curve" smooth="yes"/>
      <point x="200.286" y="2"/>
      <point x="167.286" y="-1"/>
      <point x="129.286" y="-3" type="curve"/>
      <point x="125.286" y="2"/>
      <point x="130.286" y="26"/>
      <point x="135.286" y="26" type="curve" smooth="yes"/>
      <point x="146.286" y="26"/>
      <point x="199.286" y="35"/>
      <point x="204.286" y="46" type="curve" smooth="yes"/>
      <point x="213.286" y="66"/>
      <point x="216.286" y="84"/>
      <point x="220.286" y="103" type="curve" smooth="yes"/>
      <point x="290.286" y="463" type="line" smooth="yes"/>
      <point x="302.286" y="523"/>
      <point x="307.286" y="554"/>
      <point x="288.286" y="554" type="curve" smooth="yes"/>
      <point x="281.286" y="554"/>
      <point x="242.286" y="543"/>
    </contour>
  </outline>
</glyph>
<glyph name="two" format="1">
  <advance width="456"/>
  <unicode hex="0032"/>
  <outline>
    <contour>
      <point x="485.037" y="512" type="curve" smooth="yes"/>
      <point x="485.037" y="421"/>
      <point x="438.037" y="358"/>
      <point x="367.037" y="286" type="curve" smooth="yes"/>
      <point x="283.037" y="200"/>
      <point x="141.037" y="73"/>
      <point x="143.037" y="73" type="curve"/>
      <point x="313.037" y="73" type="line" smooth="yes"/>
      <point x="367.037" y="73"/>
      <point x="399.037" y="105"/>
      <point x="418.037" y="147" type="curve" smooth="yes"/>
      <point x="420.037" y="152"/>
      <point x="425.037" y="156"/>
      <point x="431.037" y="156" type="curve" smooth="yes"/>
      <point x="435.037" y="156"/>
      <point x="447.037" y="152"/>
      <point x="448.037" y="150" type="curve"/>
      <point x="422.037" y="101"/>
      <point x="379.037" y="18"/>
      <point x="371.037" y="0" type="curve"/>
      <point x="371.037" y="0"/>
      <point x="53.0371" y="0"/>
      <point x="46.0371" y="0" type="curve"/>
      <point x="44.0371" y="2"/>
      <point x="40.0371" y="9"/>
      <point x="40.0371" y="15" type="curve"/>
      <point x="95.0371" y="65"/>
      <point x="238.037" y="212"/>
      <point x="297.037" y="279" type="curve" smooth="yes"/>
      <point x="365.037" y="356"/>
      <point x="396.037" y="418"/>
      <point x="396.037" y="486" type="curve" smooth="yes"/>
      <point x="396.037" y="542"/>
      <point x="363.037" y="577"/>
      <point x="314.037" y="577" type="curve" smooth="yes"/>
      <point x="240.037" y="577"/>
      <point x="180.037" y="511"/>
      <point x="165.037" y="491" type="curve"/>
      <point x="158.037" y="491"/>
      <point x="150.037" y="503"/>
      <point x="151.037" y="507" type="curve"/>
      <point x="162.037" y="532"/>
      <point x="250.037" y="642"/>
      <point x="347.037" y="642" type="curve" smooth="yes"/>
      <point x="420.037" y="642"/>
      <point x="485.037" y="590"/>
    </contour>
  </outline>
</glyph>
<glyph name="seven" format="1">
  <advance width="456"/>
  <unicode hex="0037"/>
  <outline>
    <contour>
      <point x="103.28" y="14" type="curve"/>
      <point x="235.28" y="180"/>
      <point x="468.28" y="557"/>
      <point x="468.28" y="557" type="curve"/>
      <point x="236.28" y="557" type="line" smooth="yes"/>
      <point x="199.28" y="557"/>
      <point x="172.28" y="512"/>
      <point x="154.28" y="480" type="curve" smooth="yes"/>
      <point x="153.28" y="478"/>
      <point x="150.28" y="477"/>
      <point x="147.28" y="477" type="curve" smooth="yes"/>
      <point x="140.28" y="477"/>
      <point x="131.28" y="479"/>
      <point x="126.28" y="482" type="curve"/>
      <point x="142.28" y="520"/>
      <point x="182.28" y="598"/>
      <point x="192.28" y="633" type="curve"/>
      <point x="478.28" y="633" type="line" smooth="yes"/>
      <point x="502.28" y="633"/>
      <point x="535.28" y="636"/>
      <point x="541.28" y="636" type="curve" smooth="yes"/>
      <point x="547.28" y="636"/>
      <point x="546.28" y="632"/>
      <point x="545.28" y="627" type="curve" smooth="yes"/>
      <point x="542.28" y="614"/>
      <point x="523.28" y="588"/>
      <point x="505.28" y="560" type="curve" smooth="yes"/>
      <point x="151.28" y="-3" type="line"/>
      <point x="149.28" y="-5"/>
      <point x="146.28" y="-6"/>
      <point x="141.28" y="-6" type="curve" smooth="yes"/>
      <point x="127.28" y="-6"/>
      <point x="101.28" y="5"/>
    </contour>
  </outline>
</glyph>
<glyph name="nine" format="1">
  <advance width="456"/>
  <unicode hex="0039"/>
  <outline>
    <contour>
      <point x="254.617" y="257" type="curve" smooth="yes"/>
      <point x="177.617" y="257"/>
      <point x="124.617" y="326"/>
      <point x="124.617" y="407" type="curve" smooth="yes"/>
      <point x="124.617" y="523"/>
      <point x="242.617" y="643"/>
      <point x="351.617" y="643" type="curve" smooth="yes"/>
      <point x="439.617" y="643"/>
      <point x="498.617" y="576"/>
      <point x="498.617" y="464" type="curve" smooth="yes"/>
      <point x="498.617" y="386"/>
      <point x="461.617" y="272"/>
      <point x="374.617" y="173" type="curve" smooth="yes"/>
      <point x="316.617" y="107"/>
      <point x="206.617" y="34"/>
      <point x="90.6172" y="-6" type="curve"/>
      <point x="84.6172" y="-6"/>
      <point x="82.6172" y="13"/>
      <point x="83.6172" y="19" type="curve"/>
      <point x="198.617" y="68"/>
      <point x="314.617" y="146"/>
      <point x="374.617" y="287" type="curve" smooth="yes"/>
      <point x="408.617" y="367"/>
      <point x="416.617" y="422"/>
      <point x="416.617" y="477" type="curve" smooth="yes"/>
      <point x="416.617" y="538"/>
      <point x="397.617" y="610"/>
      <point x="339.617" y="610" type="curve" smooth="yes"/>
      <point x="285.617" y="610"/>
      <point x="204.617" y="531"/>
      <point x="204.617" y="413" type="curve" smooth="yes"/>
      <point x="204.617" y="351"/>
      <point x="231.617" y="304"/>
      <point x="300.617" y="304" type="curve" smooth="yes"/>
      <point x="324.617" y="304"/>
      <point x="339.617" y="313"/>
      <point x="348.617" y="318" type="curve"/>
      <point x="351.617" y="316"/>
      <point x="354.617" y="312"/>
      <point x="354.617" y="308" type="curve" smooth="yes"/>
      <point x="354.617" y="296"/>
      <point x="288.617" y="257"/>
    </contour>
  </outline>
</glyph>
<glyph name="semicolon" format="1">
  <advance width="252"/>
  <unicode hex="003B"/>
  <outline>
    <contour>
      <point x="99" y="367" type="curve" smooth="yes"/>
      <point x="99" y="405"/>
      <point x="134" y="438"/>
      <point x="168" y="438" type="curve" smooth="yes"/>
      <point x="195" y="438"/>
      <point x="213" y="418"/>
      <point x="213" y="391" type="curve" smooth="yes"/>
      <point x="213" y="353"/>
      <point x="179" y="318"/>
      <point x="145" y="318" type="curve" smooth="yes"/>
      <point x="118" y="318"/>
      <point x="99" y="339"/>
    </contour>
    <component base="comma" xOffset="11"/>
  </outline>
</glyph>
<glyph name="less" format="1">
  <advance width="447"/>
  <unicode hex="003C"/>
  <outline>
    <contour>
      <point x="87" y="209" type="line"/>
      <point x="361" y="41" type="line"/>
      <point x="361" y="41"/>
      <point x="363" y="40"/>
      <point x="363" y="36" type="curve" smooth="yes"/>
      <point x="363" y="23"/>
      <point x="343" y="-14"/>
      <point x="338" y="-14" type="curve" smooth="yes"/>
      <point x="337" y="-14"/>
      <point x="336" y="-14"/>
      <point x="334" y="-13" type="curve" smooth="yes"/>
      <point x="22" y="177" type="line" smooth="yes"/>
      <point x="16" y="181"/>
      <point x="12" y="191"/>
      <point x="12" y="203" type="curve" smooth="yes"/>
      <point x="12" y="217"/>
      <point x="18" y="232"/>
      <point x="35" y="241" type="curve" smooth="yes"/>
      <point x="416" y="428" type="line" smooth="yes"/>
      <point x="418" y="429"/>
      <point x="419" y="429"/>
      <point x="420" y="429" type="curve" smooth="yes"/>
      <point x="423" y="429"/>
      <point x="427" y="408"/>
      <point x="427" y="394" type="curve" smooth="yes"/>
      <point x="427" y="391"/>
      <point x="426" y="376"/>
      <point x="422" y="374" type="curve" smooth="yes"/>
    </contour>
  </outline>
</glyph>
<glyph name="equal" format="1">
  <advance width="560"/>
  <unicode hex="003D"/>
  <outline>
    <contour>
      <point x="39" y="117" type="line"/>
      <point x="39" y="117"/>
      <point x="34" y="117"/>
      <point x="34" y="123" type="curve" smooth="yes"/>
      <point x="34" y="126"/>
      <point x="48" y="173"/>
      <point x="57" y="173" type="curve" smooth="yes"/>
      <point x="473" y="173" type="line" smooth="yes"/>
      <point x="478" y="173"/>
      <point x="479" y="170"/>
      <point x="479" y="168" type="curve" smooth="yes"/>
      <point x="479" y="163"/>
      <point x="469" y="142"/>
      <point x="461" y="123" type="curve"/>
      <point x="457" y="117"/>
      <point x="454" y="117"/>
      <point x="454" y="117" type="curve"/>
    </contour>
    <contour>
      <point x="67" y="259" type="line"/>
      <point x="67" y="259"/>
      <point x="63" y="259"/>
      <point x="63" y="265" type="curve" smooth="yes"/>
      <point x="63" y="266"/>
      <point x="76" y="315"/>
      <point x="85" y="315" type="curve" smooth="yes"/>
      <point x="500" y="315" type="line" smooth="yes"/>
      <point x="505" y="315"/>
      <point x="506" y="312"/>
      <point x="506" y="310" type="curve" smooth="yes"/>
      <point x="506" y="305"/>
      <point x="497" y="284"/>
      <point x="489" y="265" type="curve" smooth="yes"/>
      <point x="486" y="259"/>
      <point x="481" y="259"/>
      <point x="481" y="259" type="curve"/>
    </contour>
  </outline>
</glyph>
<glyph name="question" format="1">
  <advance width="320"/>
  <unicode hex="003F"/>
  <outline>
    <contour>
      <point x="40" y="32" type="curve" smooth="yes"/>
      <point x="40" y="70"/>
      <point x="72" y="102"/>
      <point x="105" y="102" type="curve" smooth="yes"/>
      <point x="131" y="102"/>
      <point x="150" y="82"/>
      <point x="150" y="56" type="curve" smooth="yes"/>
      <point x="150" y="19"/>
      <point x="115" y="-14"/>
      <point x="82" y="-14" type="curve" smooth="yes"/>
      <point x="56" y="-14"/>
      <point x="40" y="6"/>
    </contour>
    <contour>
      <point x="175" y="197" type="curve"/>
      <point x="175" y="193"/>
      <point x="170" y="184"/>
      <point x="165" y="181" type="curve"/>
      <point x="141" y="181"/>
      <point x="66" y="227"/>
      <point x="66" y="283" type="curve" smooth="yes"/>
      <point x="66" y="325"/>
      <point x="89" y="348"/>
      <point x="115" y="366" type="curve" smooth="yes"/>
      <point x="162" y="398"/>
      <point x="186" y="414"/>
      <point x="231" y="446" type="curve" smooth="yes"/>
      <point x="251" y="460"/>
      <point x="277" y="484"/>
      <point x="277" y="522" type="curve" smooth="yes"/>
      <point x="277" y="561"/>
      <point x="255" y="582"/>
      <point x="225" y="582" type="curve" smooth="yes"/>
      <point x="181" y="582"/>
      <point x="181" y="536"/>
      <point x="143" y="536" type="curve" smooth="yes"/>
      <point x="114" y="536"/>
      <point x="109" y="570"/>
      <point x="109" y="588" type="curve"/>
      <point x="114" y="603"/>
      <point x="157" y="631"/>
      <point x="195" y="631" type="curve" smooth="yes"/>
      <point x="270" y="631"/>
      <point x="328" y="564"/>
      <point x="328" y="502" type="curve" smooth="yes"/>
      <point x="328" y="460"/>
      <point x="316" y="428"/>
      <point x="284" y="398" type="curve" smooth="yes"/>
      <point x="260" y="376"/>
      <point x="221" y="357"/>
      <point x="169" y="321" type="curve" smooth="yes"/>
      <point x="144" y="304"/>
      <point x="136" y="288"/>
      <point x="136" y="261" type="curve" smooth="yes"/>
      <point x="136" y="232"/>
      <point x="164" y="205"/>
    </contour>
  </outline>
</glyph>
<glyph name="at" format="1">
  <advance width="759"/>
  <unicode hex="0040"/>
  <outline>
    <contour>
      <point x="421" y="577" type="curve" smooth="yes"/>
      <point x="606" y="577"/>
      <point x="698" y="443"/>
      <point x="698" y="282" type="curve" smooth="yes"/>
      <point x="698" y="76"/>
      <point x="550" y="-6"/>
      <point x="468" y="-6" type="curve" smooth="yes"/>
      <point x="419" y="-6"/>
      <point x="398" y="28"/>
      <point x="398" y="58" type="curve" smooth="yes"/>
      <point x="398" y="66"/>
      <point x="399" y="77"/>
      <point x="403" y="98" type="curve" smooth="yes"/>
      <point x="407" y="117"/>
      <point x="407" y="123"/>
      <point x="408" y="130" type="curve"/>
      <point x="386" y="91"/>
      <point x="318" y="-5"/>
      <point x="260" y="-5" type="curve" smooth="yes"/>
      <point x="205" y="-5"/>
      <point x="172" y="45"/>
      <point x="172" y="115" type="curve" smooth="yes"/>
      <point x="172" y="275"/>
      <point x="324" y="435"/>
      <point x="461" y="435" type="curve" smooth="yes"/>
      <point x="496" y="435"/>
      <point x="515" y="429"/>
      <point x="534" y="422" type="curve"/>
      <point x="470" y="105" type="line" smooth="yes"/>
      <point x="460" y="57"/>
      <point x="473" y="30"/>
      <point x="497" y="30" type="curve" smooth="yes"/>
      <point x="572" y="30"/>
      <point x="656" y="163"/>
      <point x="656" y="267" type="curve" smooth="yes"/>
      <point x="656" y="433"/>
      <point x="572" y="542"/>
      <point x="413" y="542" type="curve" smooth="yes"/>
      <point x="244" y="542"/>
      <point x="67" y="380"/>
      <point x="67" y="140" type="curve" smooth="yes"/>
      <point x="67" y="60"/>
      <point x="107" y="-16"/>
      <point x="160" y="-58" type="curve" smooth="yes"/>
      <point x="178" y="-72"/>
      <point x="197" y="-83"/>
      <point x="206" y="-87" type="curve"/>
      <point x="200" y="-92"/>
      <point x="193" y="-94"/>
      <point x="174" y="-94" type="curve" smooth="yes"/>
      <point x="149" y="-94"/>
      <point x="114" y="-65"/>
      <point x="100" y="-49" type="curve" smooth="yes"/>
      <point x="47" y="14"/>
      <point x="29" y="76"/>
      <point x="29" y="141" type="curve" smooth="yes"/>
      <point x="29" y="393"/>
      <point x="213" y="577"/>
    </contour>
    <contour>
      <point x="413" y="395" type="curve" smooth="yes"/>
      <point x="336" y="395"/>
      <point x="246" y="265"/>
      <point x="246" y="150" type="curve" smooth="yes"/>
      <point x="246" y="88"/>
      <point x="262" y="53"/>
      <point x="297" y="53" type="curve" smooth="yes"/>
      <point x="347" y="53"/>
      <point x="418" y="177"/>
      <point x="437" y="273" type="curve" smooth="yes"/>
      <point x="458" y="380" type="line"/>
      <point x="449" y="390"/>
      <point x="426" y="395"/>
    </contour>
  </outline>
</glyph>
<glyph name="C" format="1">
  <advance width="645"/>
  <unicode hex="0043"/>
  <outline>
    <contour>
      <point x="569" y="173" type="curve"/>
      <point x="582" y="173"/>
      <point x="597" y="165"/>
      <point x="597" y="165" type="curve"/>
      <point x="593" y="145"/>
      <point x="540" y="40"/>
      <point x="525" y="28" type="curve"/>
      <point x="471" y="0"/>
      <point x="416" y="-8"/>
      <point x="330" y="-8" type="curve" smooth="yes"/>
      <point x="168" y="-8"/>
      <point x="59" y="117"/>
      <point x="59" y="265" type="curve" smooth="yes"/>
      <point x="59" y="517"/>
      <point x="258" y="670"/>
      <point x="465" y="666" type="curve" smooth="yes"/>
      <point x="523" y="665"/>
      <point x="577" y="652"/>
      <point x="626" y="640" type="curve"/>
      <point x="624" y="604"/>
      <point x="619" y="522"/>
      <point x="616" y="494" type="curve" smooth="yes"/>
      <point x="616" y="491"/>
      <point x="612" y="489"/>
      <point x="608" y="489" type="curve"/>
      <point x="602" y="489"/>
      <point x="593" y="490"/>
      <point x="585" y="494" type="curve"/>
      <point x="590" y="574"/>
      <point x="520" y="635"/>
      <point x="436" y="635" type="curve" smooth="yes"/>
      <point x="280" y="635"/>
      <point x="153" y="499"/>
      <point x="154" y="282" type="curve" smooth="yes"/>
      <point x="154" y="163"/>
      <point x="208" y="21"/>
      <point x="358" y="21" type="curve" smooth="yes"/>
      <point x="460" y="21"/>
      <point x="526" y="91"/>
    </contour>
  </outline>
</glyph>
<glyph name="D" format="1">
  <advance width="684"/>
  <unicode hex="0044"/>
  <outline>
    <contour>
      <point x="252" y="546" type="curve" smooth="yes"/>
      <point x="167" y="112" type="line" smooth="yes"/>
      <point x="164" y="98"/>
      <point x="156" y="46"/>
      <point x="159" y="40" type="curve" smooth="yes"/>
      <point x="164" y="29"/>
      <point x="198" y="26"/>
      <point x="232" y="26" type="curve" smooth="yes"/>
      <point x="375" y="26"/>
      <point x="511" y="118"/>
      <point x="549" y="313" type="curve" smooth="yes"/>
      <point x="593" y="539"/>
      <point x="491" y="631"/>
      <point x="338" y="631" type="curve" smooth="yes"/>
      <point x="327" y="631"/>
      <point x="276" y="630"/>
      <point x="271" y="620" type="curve" smooth="yes"/>
      <point x="263" y="604"/>
      <point x="258" y="575"/>
    </contour>
    <contour>
      <point x="368" y="658" type="curve" smooth="yes"/>
      <point x="583" y="658"/>
      <point x="681" y="519"/>
      <point x="645" y="334" type="curve" smooth="yes"/>
      <point x="612" y="164"/>
      <point x="499" y="-2"/>
      <point x="228" y="-3" type="curve"/>
      <point x="-5" y="-3" type="line"/>
      <point x="-9" y="2"/>
      <point x="-4" y="21"/>
      <point x="1" y="26" type="curve"/>
      <point x="12" y="26"/>
      <point x="63" y="31"/>
      <point x="68" y="42" type="curve" smooth="yes"/>
      <point x="76" y="58"/>
      <point x="81" y="86"/>
      <point x="87" y="116" type="curve" smooth="yes"/>
      <point x="170" y="543" type="line" smooth="yes"/>
      <point x="176" y="573"/>
      <point x="182" y="601"/>
      <point x="180" y="617" type="curve" smooth="yes"/>
      <point x="179" y="628"/>
      <point x="130" y="633"/>
      <point x="119" y="633" type="curve"/>
      <point x="116" y="638"/>
      <point x="118" y="657"/>
      <point x="124" y="662" type="curve"/>
      <point x="162" y="660"/>
      <point x="197" y="657"/>
      <point x="233" y="657" type="curve" smooth="yes"/>
      <point x="269" y="657"/>
      <point x="327" y="658"/>
    </contour>
  </outline>
</glyph>
<glyph name="F" format="1">
  <advance width="508"/>
  <unicode hex="0046"/>
  <outline>
    <contour>
      <point x="233" y="657" type="curve" smooth="yes"/>
      <point x="320" y="657"/>
      <point x="432" y="664"/>
      <point x="533" y="664" type="curve"/>
      <point x="530" y="614"/>
      <point x="534" y="573"/>
      <point x="534" y="528" type="curve"/>
      <point x="531" y="525"/>
      <point x="523" y="523"/>
      <point x="516" y="523" type="curve" smooth="yes"/>
      <point x="509" y="523"/>
      <point x="505" y="525"/>
      <point x="505" y="530" type="curve" smooth="yes"/>
      <point x="500" y="610"/>
      <point x="466" y="630"/>
      <point x="417" y="630" type="curve" smooth="yes"/>
      <point x="337" y="630" type="line" smooth="yes"/>
      <point x="326" y="630"/>
      <point x="276" y="629"/>
      <point x="271" y="619" type="curve" smooth="yes"/>
      <point x="263" y="603"/>
      <point x="256" y="574"/>
      <point x="251" y="547" type="curve" smooth="yes"/>
      <point x="214" y="355" type="line" smooth="yes"/>
      <point x="213" y="350"/>
      <point x="233" y="349"/>
      <point x="253" y="349" type="curve" smooth="yes"/>
      <point x="302" y="349" type="line" smooth="yes"/>
      <point x="391" y="349"/>
      <point x="389" y="355"/>
      <point x="418" y="421" type="curve" smooth="yes"/>
      <point x="420" y="426"/>
      <point x="427" y="428"/>
      <point x="434" y="428" type="curve" smooth="yes"/>
      <point x="441" y="428"/>
      <point x="446" y="426"/>
      <point x="448" y="423" type="curve"/>
      <point x="412" y="234" type="line"/>
      <point x="410" y="232"/>
      <point x="403" y="230"/>
      <point x="396" y="230" type="curve" smooth="yes"/>
      <point x="389" y="230"/>
      <point x="384" y="233"/>
      <point x="383" y="238" type="curve" smooth="yes"/>
      <point x="380" y="295"/>
      <point x="377" y="302"/>
      <point x="370" y="308" type="curve" smooth="yes"/>
      <point x="361" y="315"/>
      <point x="308" y="316"/>
      <point x="273" y="316" type="curve" smooth="yes"/>
      <point x="247" y="316"/>
      <point x="206" y="316"/>
      <point x="204" y="307" type="curve" smooth="yes"/>
      <point x="167" y="116" type="line" smooth="yes"/>
      <point x="161" y="86"/>
      <point x="156" y="58"/>
      <point x="158" y="42" type="curve" smooth="yes"/>
      <point x="159" y="31"/>
      <point x="217" y="26"/>
      <point x="228" y="26" type="curve"/>
      <point x="231" y="21"/>
      <point x="228" y="2"/>
      <point x="222" y="-3" type="curve"/>
      <point x="184" y="-1"/>
      <point x="141" y="2"/>
      <point x="105" y="2" type="curve" smooth="yes"/>
      <point x="61" y="2"/>
      <point x="31" y="-3"/>
      <point x="-5" y="-3" type="curve"/>
      <point x="-9" y="2"/>
      <point x="-5" y="21"/>
      <point x="-0" y="26" type="curve"/>
      <point x="11" y="26"/>
      <point x="63" y="31"/>
      <point x="68" y="42" type="curve" smooth="yes"/>
      <point x="76" y="58"/>
      <point x="81" y="86"/>
      <point x="87" y="116" type="curve" smooth="yes"/>
      <point x="170" y="543" type="line" smooth="yes"/>
      <point x="176" y="573"/>
      <point x="181" y="601"/>
      <point x="179" y="617" type="curve" smooth="yes"/>
      <point x="178" y="628"/>
      <point x="129" y="633"/>
      <point x="118" y="633" type="curve"/>
      <point x="115" y="638"/>
      <point x="118" y="657"/>
      <point x="124" y="662" type="curve"/>
      <point x="162" y="660"/>
      <point x="197" y="657"/>
    </contour>
  </outline>
</glyph>
<glyph name="G" format="1">
  <advance width="697"/>
  <unicode hex="0047"/>
  <outline>
    <contour>
      <point x="585" y="494" type="curve"/>
      <point x="590" y="574"/>
      <point x="520" y="635"/>
      <point x="436" y="635" type="curve" smooth="yes"/>
      <point x="280" y="635"/>
      <point x="153" y="499"/>
      <point x="154" y="282" type="curve" smooth="yes"/>
      <point x="154" y="163"/>
      <point x="210" y="21"/>
      <point x="355" y="21" type="curve" smooth="yes"/>
      <point x="403" y="21"/>
      <point x="446" y="41"/>
      <point x="467" y="55" type="curve" smooth="yes"/>
      <point x="473" y="59"/>
      <point x="476" y="65"/>
      <point x="477" y="72" type="curve" smooth="yes"/>
      <point x="482" y="99"/>
      <point x="497" y="175"/>
      <point x="497" y="175" type="curve" smooth="yes"/>
      <point x="503" y="205"/>
      <point x="509" y="233"/>
      <point x="507" y="249" type="curve" smooth="yes"/>
      <point x="506" y="260"/>
      <point x="452" y="265"/>
      <point x="441" y="265" type="curve"/>
      <point x="438" y="270"/>
      <point x="440" y="289"/>
      <point x="446" y="294" type="curve"/>
      <point x="484" y="292"/>
      <point x="518" y="289"/>
      <point x="554" y="289" type="curve" smooth="yes"/>
      <point x="590" y="289"/>
      <point x="625" y="292"/>
      <point x="664" y="294" type="curve"/>
      <point x="668" y="289"/>
      <point x="665" y="270"/>
      <point x="660" y="265" type="curve"/>
      <point x="649" y="265"/>
      <point x="601" y="260"/>
      <point x="596" y="249" type="curve" smooth="yes"/>
      <point x="588" y="233"/>
      <point x="583" y="205"/>
      <point x="577" y="175" type="curve" smooth="yes"/>
      <point x="563" y="104" type="line" smooth="yes"/>
      <point x="559" y="83"/>
      <point x="565" y="78"/>
      <point x="565" y="68" type="curve" smooth="yes"/>
      <point x="565" y="62"/>
      <point x="561" y="55"/>
      <point x="543" y="46" type="curve" smooth="yes"/>
      <point x="497" y="22"/>
      <point x="447" y="-8"/>
      <point x="324" y="-8" type="curve" smooth="yes"/>
      <point x="170" y="-8"/>
      <point x="59" y="117"/>
      <point x="59" y="265" type="curve" smooth="yes"/>
      <point x="59" y="517"/>
      <point x="258" y="670"/>
      <point x="465" y="666" type="curve" smooth="yes"/>
      <point x="523" y="665"/>
      <point x="577" y="652"/>
      <point x="626" y="640" type="curve"/>
      <point x="624" y="604"/>
      <point x="618" y="524"/>
      <point x="616" y="494" type="curve" smooth="yes"/>
      <point x="616" y="491"/>
      <point x="612" y="489"/>
      <point x="608" y="489" type="curve"/>
      <point x="602" y="489"/>
      <point x="593" y="490"/>
    </contour>
  </outline>
</glyph>
<glyph name="I" format="1">
  <advance width="313"/>
  <unicode hex="0049"/>
  <outline>
    <contour>
      <point x="233" y="657" type="curve" smooth="yes"/>
      <point x="269" y="657"/>
      <point x="304" y="660"/>
      <point x="343" y="662" type="curve"/>
      <point x="347" y="657"/>
      <point x="342" y="638"/>
      <point x="337" y="633" type="curve"/>
      <point x="326" y="633"/>
      <point x="275" y="628"/>
      <point x="270" y="617" type="curve" smooth="yes"/>
      <point x="262" y="601"/>
      <point x="257" y="573"/>
      <point x="251" y="543" type="curve" smooth="yes"/>
      <point x="168" y="116" type="line" smooth="yes"/>
      <point x="162" y="86"/>
      <point x="156" y="58"/>
      <point x="158" y="42" type="curve" smooth="yes"/>
      <point x="159" y="31"/>
      <point x="208" y="26"/>
      <point x="219" y="26" type="curve"/>
      <point x="222" y="21"/>
      <point x="219" y="2"/>
      <point x="213" y="-3" type="curve"/>
      <point x="175" y="-1"/>
      <point x="142" y="2"/>
      <point x="106" y="2" type="curve" smooth="yes"/>
      <point x="70" y="2"/>
      <point x="34" y="-1"/>
      <point x="-5" y="-3" type="curve"/>
      <point x="-9" y="2"/>
      <point x="-5" y="21"/>
      <point x="-0" y="26" type="curve"/>
      <point x="11" y="26"/>
      <point x="63" y="31"/>
      <point x="68" y="42" type="curve" smooth="yes"/>
      <point x="76" y="58"/>
      <point x="81" y="86"/>
      <point x="87" y="116" type="curve" smooth="yes"/>
      <point x="170" y="543" type="line" smooth="yes"/>
      <point x="176" y="573"/>
      <point x="181" y="601"/>
      <point x="179" y="617" type="curve" smooth="yes"/>
      <point x="178" y="628"/>
      <point x="129" y="633"/>
      <point x="118" y="633" type="curve"/>
      <point x="115" y="638"/>
      <point x="118" y="657"/>
      <point x="124" y="662" type="curve"/>
      <point x="162" y="660"/>
      <point x="197" y="657"/>
    </contour>
  </outline>
</glyph>
<glyph name="K" format="1">
  <advance width="614"/>
  <unicode hex="004B"/>
  <outline>
    <contour>
      <point x="481" y="72" type="curve" smooth="yes"/>
      <point x="500" y="49"/>
      <point x="523" y="30"/>
      <point x="573" y="26" type="curve"/>
      <point x="577" y="21"/>
      <point x="568" y="-1"/>
      <point x="567" y="-3" type="curve"/>
      <point x="505" y="-3"/>
      <point x="454" y="1"/>
      <point x="437" y="8" type="curve" smooth="yes"/>
      <point x="425" y="13"/>
      <point x="403" y="23"/>
      <point x="382" y="51" type="curve" smooth="yes"/>
      <point x="367" y="72"/>
      <point x="302" y="175"/>
      <point x="222" y="304" type="curve" smooth="yes"/>
      <point x="221" y="307"/>
      <point x="218" y="307"/>
      <point x="214" y="307" type="curve" smooth="yes"/>
      <point x="211" y="307"/>
      <point x="207" y="306"/>
      <point x="205" y="305" type="curve"/>
      <point x="168" y="116" type="line" smooth="yes"/>
      <point x="162" y="86"/>
      <point x="157" y="58"/>
      <point x="159" y="42" type="curve" smooth="yes"/>
      <point x="160" y="31"/>
      <point x="209" y="26"/>
      <point x="220" y="26" type="curve"/>
      <point x="223" y="21"/>
      <point x="220" y="2"/>
      <point x="214" y="-3" type="curve"/>
      <point x="176" y="-1"/>
      <point x="142" y="2"/>
      <point x="106" y="2" type="curve" smooth="yes"/>
      <point x="70" y="2"/>
      <point x="35" y="-1"/>
      <point x="-4" y="-3" type="curve"/>
      <point x="-8" y="2"/>
      <point x="-4" y="21"/>
      <point x="1" y="26" type="curve"/>
      <point x="12" y="26"/>
      <point x="63" y="31"/>
      <point x="68" y="42" type="curve" smooth="yes"/>
      <point x="76" y="58"/>
      <point x="81" y="86"/>
      <point x="87" y="116" type="curve" smooth="yes"/>
      <point x="170" y="543" type="line" smooth="yes"/>
      <point x="176" y="573"/>
      <point x="182" y="601"/>
      <point x="180" y="617" type="curve" smooth="yes"/>
      <point x="179" y="628"/>
      <point x="130" y="633"/>
      <point x="119" y="633" type="curve"/>
      <point x="116" y="638"/>
      <point x="119" y="657"/>
      <point x="125" y="662" type="curve"/>
      <point x="163" y="660"/>
      <point x="198" y="657"/>
      <point x="234" y="657" type="curve" smooth="yes"/>
      <point x="270" y="657"/>
      <point x="304" y="660"/>
      <point x="343" y="662" type="curve"/>
      <point x="347" y="657"/>
      <point x="343" y="638"/>
      <point x="338" y="633" type="curve"/>
      <point x="327" y="633"/>
      <point x="275" y="628"/>
      <point x="270" y="617" type="curve" smooth="yes"/>
      <point x="262" y="601"/>
      <point x="257" y="573"/>
      <point x="251" y="543" type="curve" smooth="yes"/>
      <point x="212" y="340" type="line"/>
      <point x="234" y="353"/>
      <point x="290" y="399"/>
      <point x="336" y="439" type="curve" smooth="yes"/>
      <point x="424" y="516"/>
      <point x="425" y="515"/>
      <point x="481" y="576" type="curve" smooth="yes"/>
      <point x="488" y="584"/>
      <point x="498" y="597"/>
      <point x="500" y="607" type="curve" smooth="yes"/>
      <point x="505" y="632"/>
      <point x="461" y="632"/>
      <point x="453" y="632" type="curve"/>
      <point x="451" y="638"/>
      <point x="454" y="653"/>
      <point x="459" y="662" type="curve"/>
      <point x="493" y="660"/>
      <point x="530" y="656"/>
      <point x="564" y="656" type="curve" smooth="yes"/>
      <point x="605" y="656"/>
      <point x="628" y="660"/>
      <point x="666" y="662" type="curve"/>
      <point x="667" y="656"/>
      <point x="663" y="632"/>
      <point x="658" y="632" type="curve" smooth="yes"/>
      <point x="649" y="631"/>
      <point x="598" y="632"/>
      <point x="559" y="595" type="curve" smooth="yes"/>
      <point x="461" y="501"/>
      <point x="399" y="450"/>
      <point x="302" y="366" type="curve" smooth="yes"/>
      <point x="295" y="360"/>
      <point x="297" y="355"/>
      <point x="300" y="350" type="curve" smooth="yes"/>
      <point x="368" y="238"/>
      <point x="424" y="145"/>
    </contour>
  </outline>
</glyph>
<glyph name="N" format="1">
  <advance width="732"/>
  <unicode hex="004E"/>
  <outline>
    <contour>
      <point x="628" y="541" type="line" smooth="yes"/>
      <point x="635" y="577"/>
      <point x="637" y="597"/>
      <point x="631" y="613" type="curve" smooth="yes"/>
      <point x="626" y="627"/>
      <point x="579" y="633"/>
      <point x="564" y="633" type="curve"/>
      <point x="561" y="640"/>
      <point x="564" y="657"/>
      <point x="567" y="662" type="curve"/>
      <point x="604" y="660"/>
      <point x="628" y="658"/>
      <point x="669" y="658" type="curve" smooth="yes"/>
      <point x="712" y="658"/>
      <point x="730" y="660"/>
      <point x="773" y="662" type="curve"/>
      <point x="775" y="657"/>
      <point x="776" y="644"/>
      <point x="769" y="633" type="curve"/>
      <point x="758" y="633"/>
      <point x="703" y="626"/>
      <point x="694" y="614" type="curve" smooth="yes"/>
      <point x="683" y="599"/>
      <point x="679" y="584"/>
      <point x="672" y="546" type="curve" smooth="yes"/>
      <point x="593" y="139" type="line" smooth="yes"/>
      <point x="582" y="81"/>
      <point x="576" y="51"/>
      <point x="568" y="-1" type="curve"/>
      <point x="565" y="-4"/>
      <point x="554" y="-5"/>
      <point x="551" y="-5" type="curve" smooth="yes"/>
      <point x="543" y="-5"/>
      <point x="531" y="4"/>
      <point x="524" y="18" type="curve" smooth="yes"/>
      <point x="224" y="569" type="line"/>
      <point x="136" y="115" type="line" smooth="yes"/>
      <point x="129" y="79"/>
      <point x="126" y="62"/>
      <point x="132" y="46" type="curve" smooth="yes"/>
      <point x="136" y="36"/>
      <point x="184" y="26"/>
      <point x="199" y="26" type="curve"/>
      <point x="202" y="19"/>
      <point x="198" y="3"/>
      <point x="195" y="-3" type="curve"/>
      <point x="158" y="-1"/>
      <point x="132" y="2"/>
      <point x="91" y="2" type="curve" smooth="yes"/>
      <point x="48" y="2"/>
      <point x="31" y="-1"/>
      <point x="-12" y="-3" type="curve"/>
      <point x="-14" y="2"/>
      <point x="-13" y="15"/>
      <point x="-6" y="26" type="curve"/>
      <point x="5" y="26"/>
      <point x="61" y="34"/>
      <point x="70" y="46" type="curve" smooth="yes"/>
      <point x="81" y="61"/>
      <point x="86" y="76"/>
      <point x="93" y="114" type="curve" smooth="yes"/>
      <point x="177" y="548" type="line" smooth="yes"/>
      <point x="184" y="586"/>
      <point x="186" y="601"/>
      <point x="181" y="616" type="curve" smooth="yes"/>
      <point x="177" y="628"/>
      <point x="124" y="633"/>
      <point x="113" y="633" type="curve"/>
      <point x="110" y="644"/>
      <point x="114" y="657"/>
      <point x="118" y="662" type="curve"/>
      <point x="160" y="660"/>
      <point x="172" y="658"/>
      <point x="203" y="658" type="curve" smooth="yes"/>
      <point x="231" y="658"/>
      <point x="272" y="661"/>
      <point x="285" y="662" type="curve"/>
      <point x="317" y="582"/>
      <point x="481" y="317"/>
      <point x="554" y="162" type="curve"/>
    </contour>
  </outline>
</glyph>
<glyph name="O" format="1">
  <advance width="710"/>
  <unicode hex="004F"/>
  <outline>
    <contour>
      <point x="406" y="635" type="curve" smooth="yes"/>
      <point x="280" y="635"/>
      <point x="155" y="478"/>
      <point x="155" y="268" type="curve" smooth="yes"/>
      <point x="155" y="153"/>
      <point x="191" y="18"/>
      <point x="328" y="18" type="curve" smooth="yes"/>
      <point x="481" y="18"/>
      <point x="578" y="214"/>
      <point x="578" y="393" type="curve" smooth="yes"/>
      <point x="578" y="489"/>
      <point x="547" y="635"/>
    </contour>
    <contour>
      <point x="415" y="665" type="curve" smooth="yes"/>
      <point x="573" y="665"/>
      <point x="672" y="542"/>
      <point x="672" y="382" type="curve" smooth="yes"/>
      <point x="672" y="148"/>
      <point x="511" y="-11"/>
      <point x="319" y="-11" type="curve" smooth="yes"/>
      <point x="157" y="-11"/>
      <point x="61" y="115"/>
      <point x="61" y="273" type="curve" smooth="yes"/>
      <point x="61" y="503"/>
      <point x="233" y="665"/>
    </contour>
  </outline>
</glyph>
<glyph name="R" format="1">
  <advance width="579"/>
  <unicode hex="0052"/>
  <outline>
    <contour>
      <point x="553" y="-3" type="curve"/>
      <point x="471" y="-3"/>
      <point x="408" y="1"/>
      <point x="384" y="47" type="curve" smooth="yes"/>
      <point x="354" y="106"/>
      <point x="311" y="204"/>
      <point x="279" y="291" type="curve" smooth="yes"/>
      <point x="276" y="300"/>
      <point x="266" y="303"/>
      <point x="253" y="303" type="curve" smooth="yes"/>
      <point x="204" y="303" type="line"/>
      <point x="168" y="116" type="line" smooth="yes"/>
      <point x="162" y="86"/>
      <point x="156" y="58"/>
      <point x="158" y="42" type="curve" smooth="yes"/>
      <point x="159" y="31"/>
      <point x="208" y="26"/>
      <point x="219" y="26" type="curve"/>
      <point x="222" y="21"/>
      <point x="219" y="2"/>
      <point x="213" y="-3" type="curve"/>
      <point x="175" y="-1"/>
      <point x="142" y="2"/>
      <point x="106" y="2" type="curve" smooth="yes"/>
      <point x="70" y="2"/>
      <point x="34" y="-1"/>
      <point x="-5" y="-3" type="curve"/>
      <point x="-9" y="2"/>
      <point x="-5" y="21"/>
      <point x="-0" y="26" type="curve"/>
      <point x="11" y="26"/>
      <point x="63" y="31"/>
      <point x="68" y="42" type="curve" smooth="yes"/>
      <point x="76" y="58"/>
      <point x="81" y="86"/>
      <point x="87" y="116" type="curve" smooth="yes"/>
      <point x="170" y="543" type="line" smooth="yes"/>
      <point x="176" y="573"/>
      <point x="181" y="601"/>
      <point x="179" y="617" type="curve" smooth="yes"/>
      <point x="178" y="628"/>
      <point x="129" y="633"/>
      <point x="118" y="633" type="curve"/>
      <point x="115" y="638"/>
      <point x="118" y="657"/>
      <point x="124" y="662" type="curve"/>
      <point x="162" y="660"/>
      <point x="200" y="657"/>
      <point x="236" y="657" type="curve" smooth="yes"/>
      <point x="272" y="657"/>
      <point x="313" y="659"/>
      <point x="368" y="659" type="curve" smooth="yes"/>
      <point x="453" y="659"/>
      <point x="524" y="611"/>
      <point x="524" y="518" type="curve" smooth="yes"/>
      <point x="524" y="422"/>
      <point x="437" y="348"/>
      <point x="360" y="320" type="curve"/>
      <point x="393" y="230"/>
      <point x="441" y="129"/>
      <point x="466" y="86" type="curve" smooth="yes"/>
      <point x="489" y="45"/>
      <point x="509" y="30"/>
      <point x="559" y="26" type="curve"/>
      <point x="563" y="21"/>
      <point x="554" y="-1"/>
    </contour>
    <contour>
      <point x="210" y="333" type="line"/>
      <point x="260" y="333" type="line" smooth="yes"/>
      <point x="339" y="333"/>
      <point x="435" y="390"/>
      <point x="435" y="512" type="curve" smooth="yes"/>
      <point x="435" y="553"/>
      <point x="422" y="630"/>
      <point x="319" y="630" type="curve" smooth="yes"/>
      <point x="308" y="630"/>
      <point x="275" y="629"/>
      <point x="270" y="620" type="curve" smooth="yes"/>
      <point x="263" y="608"/>
      <point x="257" y="575"/>
      <point x="251" y="545" type="curve" smooth="yes"/>
    </contour>
  </outline>
</glyph>
<glyph name="S" format="1">
  <advance width="472"/>
  <unicode hex="0053"/>
  <outline>
    <contour>
      <point x="312" y="666" type="curve" smooth="yes"/>
      <point x="370" y="666"/>
      <point x="400" y="654"/>
      <point x="449" y="642" type="curve"/>
      <point x="446" y="608"/>
      <point x="434" y="528"/>
      <point x="428" y="498" type="curve" smooth="yes"/>
      <point x="427" y="491"/>
      <point x="421" y="491"/>
      <point x="418" y="491" type="curve" smooth="yes"/>
      <point x="414" y="491"/>
      <point x="403" y="492"/>
      <point x="397" y="498" type="curve"/>
      <point x="402" y="578"/>
      <point x="375" y="635"/>
      <point x="304" y="635" type="curve" smooth="yes"/>
      <point x="222" y="635"/>
      <point x="180" y="571"/>
      <point x="180" y="520" type="curve" smooth="yes"/>
      <point x="180" y="438"/>
      <point x="242" y="406"/>
      <point x="295" y="364" type="curve" smooth="yes"/>
      <point x="348" y="322"/>
      <point x="421" y="286"/>
      <point x="421" y="193" type="curve" smooth="yes"/>
      <point x="421" y="69"/>
      <point x="301" y="-8"/>
      <point x="193" y="-8" type="curve" smooth="yes"/>
      <point x="136" y="-8"/>
      <point x="84" y="12"/>
      <point x="46" y="34" type="curve"/>
      <point x="33" y="88"/>
      <point x="32" y="172"/>
      <point x="34" y="184" type="curve"/>
      <point x="37" y="188"/>
      <point x="52" y="190"/>
      <point x="59" y="190" type="curve" smooth="yes"/>
      <point x="64" y="190"/>
      <point x="67" y="188"/>
      <point x="69" y="184" type="curve"/>
      <point x="69" y="129"/>
      <point x="106" y="22"/>
      <point x="205" y="22" type="curve" smooth="yes"/>
      <point x="271" y="22"/>
      <point x="332" y="68"/>
      <point x="332" y="147" type="curve" smooth="yes"/>
      <point x="332" y="219"/>
      <point x="287" y="254"/>
      <point x="237" y="294" type="curve" smooth="yes"/>
      <point x="177" y="342"/>
      <point x="102" y="373"/>
      <point x="102" y="476" type="curve" smooth="yes"/>
      <point x="102" y="591"/>
      <point x="219" y="666"/>
    </contour>
  </outline>
</glyph>
<glyph name="T" format="1">
  <advance width="587"/>
  <unicode hex="0054"/>
  <outline>
    <contour>
      <point x="550" y="655" type="line" smooth="yes"/>
      <point x="565" y="655"/>
      <point x="597" y="664"/>
      <point x="609" y="670" type="curve" smooth="yes"/>
      <point x="619" y="675"/>
      <point x="622" y="675"/>
      <point x="627" y="672" type="curve"/>
      <point x="622" y="611"/>
      <point x="618" y="553"/>
      <point x="618" y="500" type="curve"/>
      <point x="615" y="497"/>
      <point x="606" y="492"/>
      <point x="598" y="493" type="curve" smooth="yes"/>
      <point x="593" y="493"/>
      <point x="587" y="495"/>
      <point x="586" y="498" type="curve"/>
      <point x="587" y="568"/>
      <point x="568" y="620"/>
      <point x="522" y="620" type="curve" smooth="yes"/>
      <point x="404" y="620" type="line"/>
      <point x="305" y="116" type="line" smooth="yes"/>
      <point x="299" y="86"/>
      <point x="293" y="58"/>
      <point x="295" y="42" type="curve" smooth="yes"/>
      <point x="296" y="31"/>
      <point x="345" y="26"/>
      <point x="356" y="26" type="curve"/>
      <point x="359" y="21"/>
      <point x="357" y="2"/>
      <point x="351" y="-3" type="curve"/>
      <point x="313" y="-1"/>
      <point x="279" y="2"/>
      <point x="243" y="2" type="curve" smooth="yes"/>
      <point x="207" y="2"/>
      <point x="171" y="-1"/>
      <point x="132" y="-3" type="curve"/>
      <point x="128" y="2"/>
      <point x="133" y="21"/>
      <point x="138" y="26" type="curve"/>
      <point x="149" y="26"/>
      <point x="200" y="31"/>
      <point x="205" y="42" type="curve" smooth="yes"/>
      <point x="213" y="58"/>
      <point x="218" y="86"/>
      <point x="224" y="116" type="curve" smooth="yes"/>
      <point x="323" y="620" type="line"/>
      <point x="203" y="620" type="line" smooth="yes"/>
      <point x="157" y="620"/>
      <point x="117" y="568"/>
      <point x="90" y="498" type="curve" smooth="yes"/>
      <point x="88" y="495"/>
      <point x="81" y="493"/>
      <point x="76" y="493" type="curve" smooth="yes"/>
      <point x="67" y="492"/>
      <point x="61" y="497"/>
      <point x="59" y="500" type="curve"/>
      <point x="80" y="553"/>
      <point x="99" y="611"/>
      <point x="117" y="672" type="curve"/>
      <point x="123" y="675"/>
      <point x="132" y="672"/>
      <point x="137" y="669" type="curve" smooth="yes"/>
      <point x="147" y="663"/>
      <point x="172" y="655"/>
      <point x="187" y="655" type="curve" smooth="yes"/>
    </contour>
  </outline>
</glyph>
<glyph name="U" format="1">
  <advance width="661"/>
  <unicode hex="0055"/>
  <outline>
    <contour>
      <point x="218" y="657" type="curve" smooth="yes"/>
      <point x="254" y="657"/>
      <point x="289" y="660"/>
      <point x="328" y="662" type="curve"/>
      <point x="332" y="657"/>
      <point x="327" y="638"/>
      <point x="322" y="633" type="curve"/>
      <point x="311" y="633"/>
      <point x="260" y="628"/>
      <point x="255" y="617" type="curve" smooth="yes"/>
      <point x="247" y="601"/>
      <point x="242" y="573"/>
      <point x="236" y="543" type="curve" smooth="yes"/>
      <point x="188" y="296" type="line" smooth="yes"/>
      <point x="173" y="218"/>
      <point x="174" y="159"/>
      <point x="193" y="120" type="curve" smooth="yes"/>
      <point x="215" y="76"/>
      <point x="255" y="54"/>
      <point x="314" y="54" type="curve" smooth="yes"/>
      <point x="410" y="54"/>
      <point x="483" y="102"/>
      <point x="519" y="274" type="curve" smooth="yes"/>
      <point x="572" y="545" type="line" smooth="yes"/>
      <point x="579" y="581"/>
      <point x="582" y="598"/>
      <point x="576" y="614" type="curve" smooth="yes"/>
      <point x="572" y="624"/>
      <point x="528" y="634"/>
      <point x="513" y="634" type="curve"/>
      <point x="510" y="641"/>
      <point x="514" y="657"/>
      <point x="517" y="663" type="curve"/>
      <point x="554" y="661"/>
      <point x="576" y="658"/>
      <point x="617" y="658" type="curve" smooth="yes"/>
      <point x="660" y="658"/>
      <point x="676" y="661"/>
      <point x="719" y="663" type="curve"/>
      <point x="721" y="658"/>
      <point x="721" y="645"/>
      <point x="714" y="634" type="curve"/>
      <point x="703" y="634"/>
      <point x="646" y="626"/>
      <point x="637" y="614" type="curve" smooth="yes"/>
      <point x="626" y="599"/>
      <point x="622" y="584"/>
      <point x="615" y="546" type="curve" smooth="yes"/>
      <point x="562" y="276" type="line" smooth="yes"/>
      <point x="523" y="76"/>
      <point x="428" y="-4"/>
      <point x="283" y="-4" type="curve" smooth="yes"/>
      <point x="213" y="-4"/>
      <point x="158" y="22"/>
      <point x="125" y="68" type="curve" smooth="yes"/>
      <point x="94" y="112"/>
      <point x="83" y="174"/>
      <point x="98" y="251" type="curve" smooth="yes"/>
      <point x="155" y="543" type="line" smooth="yes"/>
      <point x="161" y="573"/>
      <point x="167" y="601"/>
      <point x="165" y="617" type="curve" smooth="yes"/>
      <point x="164" y="628"/>
      <point x="115" y="633"/>
      <point x="104" y="633" type="curve"/>
      <point x="101" y="638"/>
      <point x="104" y="657"/>
      <point x="110" y="662" type="curve"/>
      <point x="148" y="660"/>
      <point x="182" y="657"/>
    </contour>
  </outline>
</glyph>
<glyph name="Y" format="1">
  <advance width="556"/>
  <unicode hex="0059"/>
  <outline>
    <contour>
      <point x="211" y="116" type="curve" smooth="yes"/>
      <point x="240" y="267" type="line" smooth="yes"/>
      <point x="241" y="274"/>
      <point x="242" y="285"/>
      <point x="239" y="295" type="curve" smooth="yes"/>
      <point x="156" y="548" type="line" smooth="yes"/>
      <point x="144" y="585"/>
      <point x="131" y="601"/>
      <point x="108" y="617" type="curve" smooth="yes"/>
      <point x="94" y="627"/>
      <point x="70" y="633"/>
      <point x="59" y="633" type="curve" smooth="yes"/>
      <point x="54" y="633"/>
      <point x="59" y="657"/>
      <point x="65" y="662" type="curve"/>
      <point x="110" y="660"/>
      <point x="134" y="657"/>
      <point x="180" y="657" type="curve" smooth="yes"/>
      <point x="226" y="657"/>
      <point x="262" y="660"/>
      <point x="300" y="662" type="curve"/>
      <point x="301" y="656"/>
      <point x="298" y="633"/>
      <point x="293" y="633" type="curve" smooth="yes"/>
      <point x="280" y="633"/>
      <point x="236" y="627"/>
      <point x="231" y="601" type="curve" smooth="yes"/>
      <point x="229" y="593"/>
      <point x="232" y="584"/>
      <point x="236" y="571" type="curve" smooth="yes"/>
      <point x="317" y="331" type="line"/>
      <point x="380" y="419"/>
      <point x="475" y="561"/>
      <point x="492" y="592" type="curve" smooth="yes"/>
      <point x="494" y="595"/>
      <point x="497" y="601"/>
      <point x="498" y="607" type="curve" smooth="yes"/>
      <point x="499" y="613"/>
      <point x="487" y="632"/>
      <point x="435" y="632" type="curve"/>
      <point x="432" y="635"/>
      <point x="436" y="657"/>
      <point x="439" y="661" type="curve"/>
      <point x="473" y="659"/>
      <point x="498" y="656"/>
      <point x="532" y="656" type="curve" smooth="yes"/>
      <point x="580" y="656"/>
      <point x="597" y="659"/>
      <point x="635" y="661" type="curve"/>
      <point x="635" y="658"/>
      <point x="630" y="632"/>
      <point x="627" y="632" type="curve" smooth="yes"/>
      <point x="620" y="632"/>
      <point x="567" y="632"/>
      <point x="538" y="592" type="curve" smooth="yes"/>
      <point x="333" y="301" type="line" smooth="yes"/>
      <point x="325" y="290"/>
      <point x="325" y="279"/>
      <point x="323" y="270" type="curve" smooth="yes"/>
      <point x="292" y="116" type="line" smooth="yes"/>
      <point x="286" y="86"/>
      <point x="280" y="58"/>
      <point x="282" y="42" type="curve" smooth="yes"/>
      <point x="283" y="31"/>
      <point x="332" y="26"/>
      <point x="343" y="26" type="curve"/>
      <point x="346" y="21"/>
      <point x="344" y="2"/>
      <point x="338" y="-3" type="curve"/>
      <point x="300" y="-1"/>
      <point x="266" y="2"/>
      <point x="230" y="2" type="curve" smooth="yes"/>
      <point x="194" y="2"/>
      <point x="158" y="-1"/>
      <point x="119" y="-3" type="curve"/>
      <point x="115" y="2"/>
      <point x="120" y="21"/>
      <point x="125" y="26" type="curve"/>
      <point x="136" y="26"/>
      <point x="187" y="31"/>
      <point x="192" y="42" type="curve" smooth="yes"/>
      <point x="200" y="58"/>
      <point x="205" y="86"/>
    </contour>
  </outline>
</glyph>
<glyph name="bracketleft" format="1">
  <advance width="260"/>
  <unicode hex="005B"/>
  <outline>
    <contour>
      <point x="161" y="717" type="curve" smooth="yes"/>
      <point x="161" y="718"/>
      <point x="167" y="740"/>
      <point x="184" y="740" type="curve" smooth="yes"/>
      <point x="259" y="740"/>
      <point x="319" y="749"/>
      <point x="334" y="749" type="curve" smooth="yes"/>
      <point x="336" y="749"/>
      <point x="339" y="749"/>
      <point x="339" y="743" type="curve" smooth="yes"/>
      <point x="339" y="721"/>
      <point x="316" y="707"/>
      <point x="315" y="706" type="curve" smooth="yes"/>
      <point x="315" y="706"/>
      <point x="269" y="695"/>
      <point x="219" y="695" type="curve" smooth="yes"/>
      <point x="213" y="695"/>
      <point x="211" y="687"/>
      <point x="211" y="687" type="curve"/>
      <point x="67" y="-49" type="line"/>
      <point x="67" y="-49"/>
      <point x="66" y="-56"/>
      <point x="72" y="-57" type="curve" smooth="yes"/>
      <point x="108" y="-61"/>
      <point x="153" y="-75"/>
      <point x="165" y="-82" type="curve" smooth="yes"/>
      <point x="167" y="-83"/>
      <point x="178" y="-94"/>
      <point x="178" y="-103" type="curve" smooth="yes"/>
      <point x="178" y="-114"/>
      <point x="171" y="-118"/>
      <point x="171" y="-118" type="curve"/>
      <point x="171" y="-118"/>
      <point x="90" y="-102"/>
      <point x="14" y="-102" type="curve" smooth="yes"/>
      <point x="10" y="-102"/>
      <point x="6" y="-98"/>
      <point x="7" y="-91" type="curve" smooth="yes"/>
      <point x="61" y="187"/>
      <point x="161" y="717"/>
    </contour>
  </outline>
</glyph>
<glyph name="backslash" format="1">
  <advance width="368"/>
  <unicode hex="005C"/>
  <outline>
    <contour>
      <point x="290" y="-4" type="line" smooth="yes"/>
      <point x="293" y="-20"/>
      <point x="274" y="-40"/>
      <point x="263" y="-40" type="curve" smooth="yes"/>
      <point x="259" y="-40"/>
      <point x="255" y="-40"/>
      <point x="251" y="-37" type="curve"/>
      <point x="199" y="269"/>
      <point x="115" y="755"/>
      <point x="115" y="755" type="curve"/>
      <point x="117" y="758"/>
      <point x="123" y="762"/>
      <point x="129" y="762" type="curve" smooth="yes"/>
      <point x="150" y="762"/>
      <point x="164" y="735"/>
      <point x="166" y="725" type="curve" smooth="yes"/>
    </contour>
  </outline>
</glyph>
<glyph name="bracketright" format="1">
  <advance width="258"/>
  <unicode hex="005D"/>
  <outline>
    <contour>
      <point x="109" y="749" type="curve" smooth="yes"/>
      <point x="111" y="749"/>
      <point x="180" y="740"/>
      <point x="257" y="740" type="curve" smooth="yes"/>
      <point x="268" y="740"/>
      <point x="270" y="732"/>
      <point x="270" y="725" type="curve" smooth="yes"/>
      <point x="270" y="721"/>
      <point x="270" y="720"/>
      <point x="269" y="717" type="curve" smooth="yes"/>
      <point x="115" y="-79" type="line" smooth="yes"/>
      <point x="115" y="-80"/>
      <point x="110" y="-102"/>
      <point x="93" y="-102" type="curve" smooth="yes"/>
      <point x="17" y="-102"/>
      <point x="-54" y="-114"/>
      <point x="-54" y="-114" type="curve"/>
      <point x="-54" y="-114"/>
      <point x="-58" y="-111"/>
      <point x="-58" y="-105" type="curve" smooth="yes"/>
      <point x="-58" y="-90"/>
      <point x="-43" y="-79"/>
      <point x="-38" y="-74" type="curve"/>
      <point x="-15" y="-66"/>
      <point x="18" y="-57"/>
      <point x="58" y="-57" type="curve" smooth="yes"/>
      <point x="64" y="-57"/>
      <point x="67" y="-49"/>
      <point x="67" y="-49" type="curve"/>
      <point x="210" y="687" type="line"/>
      <point x="210" y="687"/>
      <point x="211" y="695"/>
      <point x="205" y="695" type="curve" smooth="yes"/>
      <point x="155" y="695"/>
      <point x="113" y="706"/>
      <point x="113" y="706" type="curve"/>
      <point x="111" y="708"/>
      <point x="101" y="713"/>
      <point x="101" y="728" type="curve" smooth="yes"/>
      <point x="101" y="737"/>
      <point x="104" y="749"/>
    </contour>
  </outline>
</glyph>
<glyph name="asciicircum" format="1">
  <advance width="303"/>
  <unicode hex="005E"/>
  <outline>
    <contour>
      <point x="13" y="499" type="curve"/>
      <point x="22" y="514"/>
      <point x="104" y="565"/>
      <point x="174" y="677" type="curve" smooth="yes"/>
      <point x="180" y="687"/>
      <point x="179" y="690"/>
      <point x="186" y="690" type="curve" smooth="yes"/>
      <point x="208" y="690"/>
      <point x="196" y="670"/>
      <point x="237" y="588" type="curve" smooth="yes"/>
      <point x="252" y="558"/>
      <point x="295" y="505"/>
      <point x="296" y="500" type="curve"/>
      <point x="294" y="492"/>
      <point x="286" y="475"/>
      <point x="279" y="475" type="curve" smooth="yes"/>
      <point x="259" y="475"/>
      <point x="190" y="564"/>
      <point x="172" y="597" type="curve"/>
      <point x="123" y="540"/>
      <point x="32" y="475"/>
      <point x="21" y="475" type="curve" smooth="yes"/>
      <point x="13" y="475"/>
      <point x="13" y="491"/>
    </contour>
  </outline>
</glyph>
<glyph name="underscore" format="1">
  <advance width="475"/>
  <unicode hex="005F"/>
  <outline>
    <contour>
      <point x="-39" y="-37" type="curve" smooth="yes"/>
      <point x="-39" y="-32"/>
      <point x="-23" y="13"/>
      <point x="-15" y="13" type="curve" smooth="yes"/>
      <point x="399" y="13" type="line" smooth="yes"/>
      <point x="402" y="13"/>
      <point x="405" y="12"/>
      <point x="405" y="9" type="curve" smooth="yes"/>
      <point x="405" y="5"/>
      <point x="397" y="-15"/>
      <point x="387" y="-37" type="curve" smooth="yes"/>
      <point x="384" y="-43"/>
      <point x="381" y="-43"/>
      <point x="381" y="-43" type="curve"/>
      <point x="-34" y="-43" type="line"/>
      <point x="-34" y="-43"/>
      <point x="-39" y="-43"/>
    </contour>
  </outline>
</glyph>
<glyph name="b" format="1">
  <advance width="429"/>
  <unicode hex="0062"/>
  <outline>
    <contour>
      <point x="275" y="380" type="curve" smooth="yes"/>
      <point x="232" y="380"/>
      <point x="139" y="266"/>
      <point x="118" y="156" type="curve" smooth="yes"/>
      <point x="102" y="75"/>
      <point x="117" y="27"/>
      <point x="164" y="27" type="curve" smooth="yes"/>
      <point x="248" y="27"/>
      <point x="314" y="221"/>
      <point x="314" y="302" type="curve" smooth="yes"/>
      <point x="314" y="339"/>
      <point x="310" y="380"/>
    </contour>
    <contour>
      <point x="143" y="285" type="line"/>
      <point x="213" y="402"/>
      <point x="286" y="435"/>
      <point x="318" y="435" type="curve" smooth="yes"/>
      <point x="364" y="435"/>
      <point x="388" y="391"/>
      <point x="388" y="322" type="curve" smooth="yes"/>
      <point x="388" y="142"/>
      <point x="243" y="-6"/>
      <point x="136" y="-6" type="curve" smooth="yes"/>
      <point x="80" y="-6"/>
      <point x="43" y="37"/>
      <point x="43" y="111" type="curve" smooth="yes"/>
      <point x="43" y="121"/>
      <point x="47" y="146"/>
      <point x="49" y="158" type="curve" smooth="yes"/>
      <point x="128" y="559" type="line" smooth="yes"/>
      <point x="132" y="577"/>
      <point x="137" y="601"/>
      <point x="137" y="612" type="curve" smooth="yes"/>
      <point x="137" y="631"/>
      <point x="92" y="631"/>
      <point x="76" y="631" type="curve"/>
      <point x="73" y="635"/>
      <point x="76" y="648"/>
      <point x="80" y="652" type="curve"/>
      <point x="135" y="657"/>
      <point x="190" y="677"/>
      <point x="212" y="685" type="curve"/>
      <point x="217" y="682"/>
      <point x="218" y="672"/>
      <point x="218" y="666" type="curve" smooth="yes"/>
      <point x="218" y="658"/>
      <point x="210" y="616"/>
      <point x="205" y="591" type="curve" smooth="yes"/>
    </contour>
  </outline>
</glyph>
<glyph name="g" format="1">
  <advance width="412"/>
  <unicode hex="0067"/>
  <outline>
    <contour>
      <point x="278" y="-118" type="curve" smooth="yes"/>
      <point x="278" y="-55"/>
      <point x="185" y="-24"/>
      <point x="127" y="-6" type="curve"/>
      <point x="87" y="-23"/>
      <point x="26" y="-54"/>
      <point x="26" y="-110" type="curve" smooth="yes"/>
      <point x="26" y="-177"/>
      <point x="91" y="-198"/>
      <point x="169" y="-198" type="curve" smooth="yes"/>
      <point x="236" y="-198"/>
      <point x="278" y="-160"/>
    </contour>
    <contour>
      <point x="212" y="407" type="curve" smooth="yes"/>
      <point x="148" y="407"/>
      <point x="114" y="316"/>
      <point x="114" y="247" type="curve" smooth="yes"/>
      <point x="114" y="198"/>
      <point x="134" y="151"/>
      <point x="176" y="151" type="curve" smooth="yes"/>
      <point x="241" y="151"/>
      <point x="273" y="232"/>
      <point x="273" y="294" type="curve" smooth="yes"/>
      <point x="273" y="343"/>
      <point x="251" y="407"/>
    </contour>
    <contour>
      <point x="333" y="381" type="curve"/>
      <point x="334" y="375"/>
      <point x="347" y="339"/>
      <point x="347" y="312" type="curve" smooth="yes"/>
      <point x="347" y="206"/>
      <point x="276" y="157"/>
      <point x="256" y="145" type="curve" smooth="yes"/>
      <point x="221" y="124"/>
      <point x="141" y="105"/>
      <point x="141" y="82" type="curve" smooth="yes"/>
      <point x="141" y="49"/>
      <point x="342" y="39"/>
      <point x="342" y="-78" type="curve" smooth="yes"/>
      <point x="342" y="-173"/>
      <point x="251" y="-233"/>
      <point x="108" y="-233" type="curve" smooth="yes"/>
      <point x="18" y="-233"/>
      <point x="-48" y="-197"/>
      <point x="-48" y="-135" type="curve" smooth="yes"/>
      <point x="-48" y="-66"/>
      <point x="37" y="-21"/>
      <point x="96" y="6" type="curve"/>
      <point x="78" y="18" type="line" smooth="yes"/>
      <point x="66" y="26"/>
      <point x="53" y="36"/>
      <point x="53" y="54" type="curve" smooth="yes"/>
      <point x="53" y="79"/>
      <point x="120" y="114"/>
      <point x="153" y="122" type="curve"/>
      <point x="121" y="122"/>
      <point x="40" y="160"/>
      <point x="40" y="239" type="curve" smooth="yes"/>
      <point x="40" y="352"/>
      <point x="136" y="436"/>
      <point x="229" y="436" type="curve" smooth="yes"/>
      <point x="267" y="436"/>
      <point x="289" y="426"/>
      <point x="314" y="414" type="curve" smooth="yes"/>
      <point x="328" y="407"/>
      <point x="364" y="427"/>
      <point x="377" y="429" type="curve"/>
      <point x="390" y="425"/>
      <point x="418" y="407"/>
      <point x="418" y="394" type="curve" smooth="yes"/>
      <point x="418" y="387"/>
      <point x="414" y="380"/>
      <point x="406" y="380" type="curve" smooth="yes"/>
      <point x="392" y="380"/>
      <point x="346" y="382"/>
    </contour>
  </outline>
</glyph>
<glyph name="j" format="1">
  <advance width="249"/>
  <unicode hex="006A"/>
  <outline>
    <contour>
      <point x="117" y="323" type="line" smooth="yes"/>
      <point x="118" y="329"/>
      <point x="121" y="350"/>
      <point x="121" y="355" type="curve" smooth="yes"/>
      <point x="121" y="364"/>
      <point x="121" y="380"/>
      <point x="111" y="380" type="curve" smooth="yes"/>
      <point x="90" y="380"/>
      <point x="44" y="325"/>
      <point x="41" y="322" type="curve"/>
      <point x="38" y="322"/>
      <point x="31" y="335"/>
      <point x="31" y="341" type="curve"/>
      <point x="42" y="360"/>
      <point x="110" y="435"/>
      <point x="157" y="435" type="curve" smooth="yes"/>
      <point x="178" y="435"/>
      <point x="196" y="413"/>
      <point x="196" y="383" type="curve" smooth="yes"/>
      <point x="196" y="375"/>
      <point x="193" y="351"/>
      <point x="189" y="330" type="curve" smooth="yes"/>
      <point x="134" y="45" type="line" smooth="yes"/>
      <point x="127" y="9"/>
      <point x="106" y="-67"/>
      <point x="63" y="-124" type="curve" smooth="yes"/>
      <point x="21" y="-179"/>
      <point x="-41" y="-221"/>
      <point x="-76" y="-235" type="curve"/>
      <point x="-80" y="-232"/>
      <point x="-85" y="-222"/>
      <point x="-85" y="-215" type="curve"/>
      <point x="-18" y="-177"/>
      <point x="35" y="-89"/>
      <point x="57" y="22" type="curve" smooth="yes"/>
    </contour>
    <contour>
      <point x="185" y="646" type="curve" smooth="yes"/>
      <point x="206" y="646"/>
      <point x="221" y="627"/>
      <point x="221" y="606" type="curve" smooth="yes"/>
      <point x="221" y="575"/>
      <point x="198" y="546"/>
      <point x="167" y="546" type="curve" smooth="yes"/>
      <point x="145" y="546"/>
      <point x="133" y="567"/>
      <point x="133" y="589" type="curve" smooth="yes"/>
      <point x="133" y="619"/>
      <point x="155" y="646"/>
    </contour>
  </outline>
</glyph>
<glyph name="k" format="1">
  <advance width="460"/>
  <unicode hex="006B"/>
  <outline>
    <contour>
      <point x="325" y="435" type="curve" smooth="yes"/>
      <point x="364" y="435"/>
      <point x="400" y="406"/>
      <point x="400" y="367" type="curve" smooth="yes"/>
      <point x="400" y="276"/>
      <point x="300" y="230"/>
      <point x="189" y="211" type="curve"/>
      <point x="277" y="79"/>
      <point x="305" y="51"/>
      <point x="346" y="51" type="curve" smooth="yes"/>
      <point x="363" y="51"/>
      <point x="403" y="93"/>
      <point x="414" y="107" type="curve"/>
      <point x="417" y="107"/>
      <point x="424" y="93"/>
      <point x="424" y="88" type="curve"/>
      <point x="416" y="74"/>
      <point x="346" y="-4"/>
      <point x="302" y="-4" type="curve" smooth="yes"/>
      <point x="223" y="-4"/>
      <point x="173" y="119"/>
      <point x="130" y="191" type="curve"/>
      <point x="93" y="0" type="line"/>
      <point x="82" y="-3"/>
      <point x="69" y="-5"/>
      <point x="58" y="-5" type="curve" smooth="yes"/>
      <point x="47" y="-5"/>
      <point x="34" y="-3"/>
      <point x="22" y="0" type="curve"/>
      <point x="131" y="559" type="line" smooth="yes"/>
      <point x="135" y="577"/>
      <point x="140" y="601"/>
      <point x="140" y="612" type="curve" smooth="yes"/>
      <point x="140" y="631"/>
      <point x="95" y="631"/>
      <point x="79" y="631" type="curve"/>
      <point x="76" y="635"/>
      <point x="79" y="648"/>
      <point x="83" y="652" type="curve"/>
      <point x="138" y="657"/>
      <point x="193" y="677"/>
      <point x="215" y="685" type="curve"/>
      <point x="220" y="682"/>
      <point x="221" y="672"/>
      <point x="221" y="666" type="curve" smooth="yes"/>
      <point x="221" y="658"/>
      <point x="213" y="616"/>
      <point x="208" y="591" type="curve" smooth="yes"/>
      <point x="156" y="322" type="line"/>
      <point x="161" y="326"/>
      <point x="239" y="435"/>
    </contour>
    <contour>
      <point x="289" y="388" type="curve" smooth="yes"/>
      <point x="231" y="388"/>
      <point x="150" y="291"/>
      <point x="138" y="230" type="curve"/>
      <point x="205" y="230"/>
      <point x="322" y="271"/>
      <point x="322" y="354" type="curve" smooth="yes"/>
      <point x="322" y="372"/>
      <point x="317" y="388"/>
    </contour>
  </outline>
</glyph>
<glyph name="l" format="1">
  <advance width="243"/>
  <unicode hex="006C"/>
  <outline>
    <contour>
      <point x="134" y="559" type="line" smooth="yes"/>
      <point x="138" y="577"/>
      <point x="143" y="601"/>
      <point x="143" y="612" type="curve" smooth="yes"/>
      <point x="143" y="631"/>
      <point x="98" y="631"/>
      <point x="82" y="631" type="curve"/>
      <point x="79" y="635"/>
      <point x="82" y="648"/>
      <point x="86" y="652" type="curve"/>
      <point x="141" y="657"/>
      <point x="196" y="677"/>
      <point x="218" y="685" type="curve"/>
      <point x="223" y="682"/>
      <point x="224" y="672"/>
      <point x="224" y="666" type="curve" smooth="yes"/>
      <point x="224" y="658"/>
      <point x="216" y="616"/>
      <point x="211" y="591" type="curve" smooth="yes"/>
      <point x="116" y="106" type="line" smooth="yes"/>
      <point x="115" y="102"/>
      <point x="112" y="79"/>
      <point x="112" y="74" type="curve" smooth="yes"/>
      <point x="112" y="65"/>
      <point x="112" y="49"/>
      <point x="122" y="49" type="curve" smooth="yes"/>
      <point x="143" y="49"/>
      <point x="189" y="104"/>
      <point x="192" y="107" type="curve"/>
      <point x="195" y="107"/>
      <point x="202" y="94"/>
      <point x="202" y="88" type="curve"/>
      <point x="191" y="69"/>
      <point x="118" y="-6"/>
      <point x="71" y="-6" type="curve" smooth="yes"/>
      <point x="49" y="-6"/>
      <point x="37" y="16"/>
      <point x="37" y="46" type="curve" smooth="yes"/>
      <point x="37" y="54"/>
      <point x="40" y="78"/>
      <point x="44" y="99" type="curve" smooth="yes"/>
    </contour>
  </outline>
</glyph>
<glyph name="m" format="1">
  <advance width="714"/>
  <unicode hex="006D"/>
  <outline>
    <contour>
      <point x="517" y="99" type="curve" smooth="yes"/>
      <point x="552" y="264" type="line" smooth="yes"/>
      <point x="554" y="273"/>
      <point x="559" y="307"/>
      <point x="559" y="318" type="curve" smooth="yes"/>
      <point x="559" y="344"/>
      <point x="558" y="361"/>
      <point x="540" y="361" type="curve" smooth="yes"/>
      <point x="500" y="361"/>
      <point x="385" y="233"/>
      <point x="366" y="132" type="curve" smooth="yes"/>
      <point x="341" y="0" type="line"/>
      <point x="327" y="-2"/>
      <point x="318" y="-3"/>
      <point x="304" y="-3" type="curve" smooth="yes"/>
      <point x="290" y="-3"/>
      <point x="282" y="-2"/>
      <point x="269" y="0" type="curve"/>
      <point x="325" y="284" type="line" smooth="yes"/>
      <point x="328" y="300"/>
      <point x="329" y="313"/>
      <point x="329" y="322" type="curve" smooth="yes"/>
      <point x="329" y="348"/>
      <point x="322" y="361"/>
      <point x="309" y="361" type="curve" smooth="yes"/>
      <point x="264" y="361"/>
      <point x="158" y="218"/>
      <point x="138" y="122" type="curve" smooth="yes"/>
      <point x="113" y="0" type="line"/>
      <point x="102" y="-3"/>
      <point x="91" y="-4"/>
      <point x="77" y="-4" type="curve" smooth="yes"/>
      <point x="63" y="-4"/>
      <point x="54" y="-2"/>
      <point x="42" y="0" type="curve"/>
      <point x="108" y="323" type="line" smooth="yes"/>
      <point x="109" y="329"/>
      <point x="112" y="350"/>
      <point x="112" y="355" type="curve" smooth="yes"/>
      <point x="112" y="364"/>
      <point x="112" y="380"/>
      <point x="102" y="380" type="curve" smooth="yes"/>
      <point x="81" y="380"/>
      <point x="35" y="325"/>
      <point x="32" y="322" type="curve"/>
      <point x="29" y="322"/>
      <point x="22" y="335"/>
      <point x="22" y="341" type="curve"/>
      <point x="33" y="360"/>
      <point x="101" y="435"/>
      <point x="148" y="435" type="curve" smooth="yes"/>
      <point x="169" y="435"/>
      <point x="187" y="413"/>
      <point x="187" y="383" type="curve" smooth="yes"/>
      <point x="187" y="375"/>
      <point x="183" y="351"/>
      <point x="179" y="330" type="curve" smooth="yes"/>
      <point x="172" y="294"/>
      <point x="167" y="273"/>
      <point x="159" y="237" type="curve"/>
      <point x="195" y="300"/>
      <point x="285" y="435"/>
      <point x="337" y="435" type="curve" smooth="yes"/>
      <point x="395" y="435"/>
      <point x="404" y="384"/>
      <point x="404" y="340" type="curve" smooth="yes"/>
      <point x="404" y="316"/>
      <point x="396" y="268"/>
      <point x="390" y="251" type="curve"/>
      <point x="426" y="314"/>
      <point x="522" y="435"/>
      <point x="574" y="435" type="curve" smooth="yes"/>
      <point x="620" y="435"/>
      <point x="636" y="410"/>
      <point x="636" y="369" type="curve" smooth="yes"/>
      <point x="636" y="335"/>
      <point x="629" y="292"/>
      <point x="622" y="260" type="curve" smooth="yes"/>
      <point x="589" y="106" type="line" smooth="yes"/>
      <point x="587" y="96"/>
      <point x="585" y="79"/>
      <point x="585" y="74" type="curve" smooth="yes"/>
      <point x="585" y="65"/>
      <point x="585" y="49"/>
      <point x="595" y="49" type="curve" smooth="yes"/>
      <point x="616" y="49"/>
      <point x="662" y="104"/>
      <point x="665" y="107" type="curve"/>
      <point x="668" y="107"/>
      <point x="675" y="94"/>
      <point x="675" y="88" type="curve"/>
      <point x="664" y="69"/>
      <point x="591" y="-6"/>
      <point x="544" y="-6" type="curve" smooth="yes"/>
      <point x="523" y="-6"/>
      <point x="510" y="16"/>
      <point x="510" y="46" type="curve" smooth="yes"/>
      <point x="510" y="54"/>
      <point x="513" y="78"/>
    </contour>
  </outline>
</glyph>
<glyph name="n" format="1">
  <advance width="497"/>
  <unicode hex="006E"/>
  <outline>
    <contour>
      <point x="179" y="330" type="curve" smooth="yes"/>
      <point x="161" y="246" type="line"/>
      <point x="174" y="271"/>
      <point x="290" y="435"/>
      <point x="357" y="435" type="curve" smooth="yes"/>
      <point x="403" y="435"/>
      <point x="419" y="410"/>
      <point x="419" y="369" type="curve" smooth="yes"/>
      <point x="419" y="338"/>
      <point x="412" y="294"/>
      <point x="405" y="260" type="curve" smooth="yes"/>
      <point x="372" y="106" type="line" smooth="yes"/>
      <point x="370" y="96"/>
      <point x="368" y="79"/>
      <point x="368" y="74" type="curve" smooth="yes"/>
      <point x="368" y="65"/>
      <point x="368" y="49"/>
      <point x="378" y="49" type="curve" smooth="yes"/>
      <point x="399" y="49"/>
      <point x="445" y="104"/>
      <point x="448" y="107" type="curve"/>
      <point x="451" y="107"/>
      <point x="458" y="94"/>
      <point x="458" y="88" type="curve"/>
      <point x="447" y="69"/>
      <point x="374" y="-6"/>
      <point x="327" y="-6" type="curve" smooth="yes"/>
      <point x="306" y="-6"/>
      <point x="293" y="16"/>
      <point x="293" y="46" type="curve" smooth="yes"/>
      <point x="293" y="54"/>
      <point x="296" y="78"/>
      <point x="300" y="99" type="curve" smooth="yes"/>
      <point x="335" y="264" type="line" smooth="yes"/>
      <point x="337" y="273"/>
      <point x="342" y="307"/>
      <point x="342" y="318" type="curve" smooth="yes"/>
      <point x="342" y="344"/>
      <point x="341" y="361"/>
      <point x="323" y="361" type="curve" smooth="yes"/>
      <point x="286" y="361"/>
      <point x="162" y="247"/>
      <point x="138" y="122" type="curve" smooth="yes"/>
      <point x="129" y="74"/>
      <point x="123" y="48"/>
      <point x="113" y="0" type="curve"/>
      <point x="101" y="-3"/>
      <point x="91" y="-4"/>
      <point x="77" y="-4" type="curve" smooth="yes"/>
      <point x="63" y="-4"/>
      <point x="54" y="-3"/>
      <point x="42" y="0" type="curve"/>
      <point x="108" y="323" type="line" smooth="yes"/>
      <point x="109" y="329"/>
      <point x="112" y="350"/>
      <point x="112" y="355" type="curve" smooth="yes"/>
      <point x="112" y="364"/>
      <point x="112" y="380"/>
      <point x="102" y="380" type="curve" smooth="yes"/>
      <point x="81" y="380"/>
      <point x="35" y="325"/>
      <point x="32" y="322" type="curve"/>
      <point x="29" y="322"/>
      <point x="22" y="335"/>
      <point x="22" y="341" type="curve"/>
      <point x="33" y="360"/>
      <point x="101" y="435"/>
      <point x="148" y="435" type="curve" smooth="yes"/>
      <point x="169" y="435"/>
      <point x="187" y="413"/>
      <point x="187" y="383" type="curve" smooth="yes"/>
      <point x="187" y="375"/>
      <point x="184" y="351"/>
    </contour>
  </outline>
</glyph>
<glyph name="r" format="1">
  <advance width="356"/>
  <unicode hex="0072"/>
  <outline>
    <contour>
      <point x="307" y="435" type="curve" smooth="yes"/>
      <point x="329" y="435"/>
      <point x="347" y="424"/>
      <point x="356" y="414" type="curve" smooth="yes"/>
      <point x="360" y="409"/>
      <point x="365" y="396"/>
      <point x="365" y="386" type="curve" smooth="yes"/>
      <point x="365" y="360"/>
      <point x="352" y="342"/>
      <point x="329" y="342" type="curve" smooth="yes"/>
      <point x="320" y="342"/>
      <point x="307" y="348"/>
      <point x="299" y="357" type="curve" smooth="yes"/>
      <point x="295" y="362"/>
      <point x="287" y="365"/>
      <point x="279" y="365" type="curve" smooth="yes"/>
      <point x="243" y="365"/>
      <point x="159" y="226"/>
      <point x="140" y="122" type="curve" smooth="yes"/>
      <point x="118" y="0" type="line"/>
      <point x="107" y="-2"/>
      <point x="95" y="-3"/>
      <point x="84" y="-3" type="curve" smooth="yes"/>
      <point x="71" y="-3"/>
      <point x="59" y="-2"/>
      <point x="47" y="0" type="curve"/>
      <point x="107" y="323" type="line" smooth="yes"/>
      <point x="108" y="329"/>
      <point x="111" y="350"/>
      <point x="111" y="355" type="curve" smooth="yes"/>
      <point x="111" y="364"/>
      <point x="111" y="380"/>
      <point x="101" y="380" type="curve" smooth="yes"/>
      <point x="80" y="380"/>
      <point x="34" y="325"/>
      <point x="31" y="322" type="curve"/>
      <point x="28" y="322"/>
      <point x="21" y="335"/>
      <point x="21" y="341" type="curve"/>
      <point x="32" y="360"/>
      <point x="100" y="435"/>
      <point x="147" y="435" type="curve" smooth="yes"/>
      <point x="168" y="435"/>
      <point x="186" y="413"/>
      <point x="186" y="383" type="curve" smooth="yes"/>
      <point x="186" y="375"/>
      <point x="182" y="351"/>
      <point x="178" y="330" type="curve" smooth="yes"/>
      <point x="172" y="297"/>
      <point x="168" y="279"/>
      <point x="161" y="246" type="curve"/>
      <point x="189" y="313"/>
      <point x="260" y="435"/>
    </contour>
  </outline>
</glyph>
<glyph name="t" format="1">
  <advance width="278"/>
  <unicode hex="0074"/>
  <outline>
    <contour>
      <point x="117" y="413" type="line"/>
      <point x="128" y="472" type="line"/>
      <point x="139" y="486"/>
      <point x="185" y="538"/>
      <point x="193" y="538" type="curve" smooth="yes"/>
      <point x="199" y="538"/>
      <point x="206" y="535"/>
      <point x="210" y="532" type="curve"/>
      <point x="188" y="413" type="line"/>
      <point x="263" y="413" type="line" smooth="yes"/>
      <point x="267" y="413"/>
      <point x="268" y="406"/>
      <point x="268" y="401" type="curve" smooth="yes"/>
      <point x="268" y="391"/>
      <point x="264" y="384"/>
      <point x="259" y="376" type="curve"/>
      <point x="181" y="376" type="line"/>
      <point x="128" y="106" type="line" smooth="yes"/>
      <point x="126" y="96"/>
      <point x="124" y="79"/>
      <point x="124" y="74" type="curve" smooth="yes"/>
      <point x="124" y="65"/>
      <point x="124" y="49"/>
      <point x="134" y="49" type="curve" smooth="yes"/>
      <point x="155" y="49"/>
      <point x="201" y="104"/>
      <point x="204" y="107" type="curve"/>
      <point x="207" y="107"/>
      <point x="214" y="94"/>
      <point x="214" y="88" type="curve"/>
      <point x="203" y="69"/>
      <point x="130" y="-6"/>
      <point x="83" y="-6" type="curve" smooth="yes"/>
      <point x="62" y="-6"/>
      <point x="49" y="16"/>
      <point x="49" y="46" type="curve" smooth="yes"/>
      <point x="49" y="54"/>
      <point x="52" y="78"/>
      <point x="56" y="99" type="curve" smooth="yes"/>
      <point x="110" y="376" type="line"/>
      <point x="43" y="376" type="line" smooth="yes"/>
      <point x="42" y="376"/>
      <point x="41" y="377"/>
      <point x="41" y="379" type="curve" smooth="yes"/>
      <point x="41" y="389"/>
      <point x="64" y="413"/>
      <point x="87" y="413" type="curve" smooth="yes"/>
    </contour>
  </outline>
</glyph>
<glyph name="v" format="1">
  <advance width="439"/>
  <unicode hex="0076"/>
  <outline>
    <contour>
      <point x="186" y="65" type="curve"/>
      <point x="257" y="126"/>
      <point x="283" y="164"/>
      <point x="314" y="226" type="curve" smooth="yes"/>
      <point x="332" y="262"/>
      <point x="339" y="310"/>
      <point x="339" y="333" type="curve" smooth="yes"/>
      <point x="339" y="354"/>
      <point x="330" y="379"/>
      <point x="313" y="396" type="curve"/>
      <point x="319" y="413"/>
      <point x="336" y="435"/>
      <point x="360" y="435" type="curve" smooth="yes"/>
      <point x="398" y="435"/>
      <point x="415" y="401"/>
      <point x="415" y="355" type="curve" smooth="yes"/>
      <point x="415" y="229"/>
      <point x="184" y="-6"/>
      <point x="115" y="-6" type="curve"/>
      <point x="108" y="2"/>
      <point x="107" y="118"/>
      <point x="107" y="148" type="curve" smooth="yes"/>
      <point x="107" y="355" type="line" smooth="yes"/>
      <point x="107" y="364"/>
      <point x="107" y="380"/>
      <point x="97" y="380" type="curve" smooth="yes"/>
      <point x="76" y="380"/>
      <point x="30" y="325"/>
      <point x="27" y="322" type="curve"/>
      <point x="24" y="322"/>
      <point x="17" y="335"/>
      <point x="17" y="341" type="curve"/>
      <point x="28" y="360"/>
      <point x="96" y="435"/>
      <point x="143" y="435" type="curve" smooth="yes"/>
      <point x="164" y="435"/>
      <point x="182" y="411"/>
      <point x="182" y="381" type="curve" smooth="yes"/>
      <point x="182" y="328" type="line"/>
      <point x="182" y="176" type="line" smooth="yes"/>
      <point x="182" y="133"/>
      <point x="183" y="86"/>
    </contour>
  </outline>
</glyph>
<glyph name="x" format="1">
  <advance width="482"/>
  <unicode hex="0078"/>
  <outline>
    <contour>
      <point x="295" y="89" type="line" smooth="yes"/>
      <point x="299" y="68"/>
      <point x="308" y="52"/>
      <point x="330" y="52" type="curve" smooth="yes"/>
      <point x="347" y="52"/>
      <point x="392" y="93"/>
      <point x="403" y="107" type="curve"/>
      <point x="406" y="107"/>
      <point x="413" y="93"/>
      <point x="413" y="88" type="curve"/>
      <point x="405" y="74"/>
      <point x="335" y="-4"/>
      <point x="291" y="-4" type="curve" smooth="yes"/>
      <point x="260" y="-4"/>
      <point x="233" y="29"/>
      <point x="222" y="82" type="curve" smooth="yes"/>
      <point x="205" y="168" type="line"/>
      <point x="156" y="71"/>
      <point x="128" y="-5"/>
      <point x="73" y="-5" type="curve" smooth="yes"/>
      <point x="59" y="-5"/>
      <point x="42" y="-3"/>
      <point x="26" y="7" type="curve"/>
      <point x="20" y="15"/>
      <point x="15" y="26"/>
      <point x="15" y="41" type="curve" smooth="yes"/>
      <point x="15" y="65"/>
      <point x="29" y="85"/>
      <point x="52" y="85" type="curve" smooth="yes"/>
      <point x="72" y="85"/>
      <point x="77" y="58"/>
      <point x="98" y="56" type="curve" smooth="yes"/>
      <point x="113" y="55"/>
      <point x="121" y="67"/>
      <point x="128" y="79" type="curve" smooth="yes"/>
      <point x="155" y="125"/>
      <point x="172" y="156"/>
      <point x="197" y="204" type="curve"/>
      <point x="169" y="342" type="line" smooth="yes"/>
      <point x="165" y="363"/>
      <point x="155" y="380"/>
      <point x="137" y="380" type="curve" smooth="yes"/>
      <point x="117" y="380"/>
      <point x="72" y="338"/>
      <point x="61" y="324" type="curve"/>
      <point x="58" y="324"/>
      <point x="51" y="338"/>
      <point x="51" y="343" type="curve"/>
      <point x="59" y="357"/>
      <point x="129" y="435"/>
      <point x="173" y="435" type="curve" smooth="yes"/>
      <point x="204" y="435"/>
      <point x="231" y="403"/>
      <point x="242" y="349" type="curve" smooth="yes"/>
      <point x="256" y="281" type="line"/>
      <point x="300" y="369"/>
      <point x="327" y="435"/>
      <point x="378" y="435" type="curve" smooth="yes"/>
      <point x="392" y="435"/>
      <point x="409" y="433"/>
      <point x="425" y="423" type="curve"/>
      <point x="431" y="415"/>
      <point x="436" y="404"/>
      <point x="436" y="389" type="curve" smooth="yes"/>
      <point x="436" y="365"/>
      <point x="422" y="345"/>
      <point x="399" y="345" type="curve" smooth="yes"/>
      <point x="379" y="345"/>
      <point x="374" y="372"/>
      <point x="353" y="374" type="curve" smooth="yes"/>
      <point x="338" y="375"/>
      <point x="330" y="363"/>
      <point x="323" y="351" type="curve" smooth="yes"/>
      <point x="300" y="311"/>
      <point x="283" y="283"/>
      <point x="263" y="244" type="curve"/>
    </contour>
  </outline>
</glyph>
<glyph name="z" format="1">
  <advance width="387"/>
  <unicode hex="007A"/>
  <outline>
    <contour>
      <point x="145" y="435" type="curve" smooth="yes"/>
      <point x="174" y="435"/>
      <point x="197" y="424"/>
      <point x="222" y="415" type="curve" smooth="yes"/>
      <point x="239" y="409"/>
      <point x="257" y="404"/>
      <point x="278" y="404" type="curve" smooth="yes"/>
      <point x="315" y="404"/>
      <point x="360" y="435"/>
      <point x="368" y="435" type="curve"/>
      <point x="376" y="431"/>
      <point x="379" y="422"/>
      <point x="379" y="415" type="curve" smooth="yes"/>
      <point x="379" y="401"/>
      <point x="95" y="96"/>
      <point x="92" y="92" type="curve"/>
      <point x="96" y="94"/>
      <point x="116" y="103"/>
      <point x="138" y="103" type="curve" smooth="yes"/>
      <point x="160" y="103"/>
      <point x="181" y="95"/>
      <point x="200" y="86" type="curve" smooth="yes"/>
      <point x="219" y="78"/>
      <point x="237" y="69"/>
      <point x="253" y="69" type="curve" smooth="yes"/>
      <point x="279" y="69"/>
      <point x="305" y="127"/>
      <point x="311" y="136" type="curve"/>
      <point x="320" y="136"/>
      <point x="322" y="128"/>
      <point x="323" y="120" type="curve"/>
      <point x="306" y="82"/>
      <point x="265" y="0"/>
      <point x="218" y="0" type="curve" smooth="yes"/>
      <point x="194" y="0"/>
      <point x="164" y="12"/>
      <point x="138" y="22" type="curve" smooth="yes"/>
      <point x="122" y="28"/>
      <point x="90" y="32"/>
      <point x="67" y="32" type="curve" smooth="yes"/>
      <point x="38" y="32"/>
      <point x="21" y="10"/>
      <point x="1" y="0" type="curve"/>
      <point x="-5" y="2"/>
      <point x="-9" y="10"/>
      <point x="-10" y="19" type="curve"/>
      <point x="-10" y="34"/>
      <point x="290" y="349"/>
      <point x="292" y="353" type="curve"/>
      <point x="289" y="351"/>
      <point x="262" y="332"/>
      <point x="229" y="332" type="curve" smooth="yes"/>
      <point x="207" y="332"/>
      <point x="187" y="341"/>
      <point x="168" y="349" type="curve" smooth="yes"/>
      <point x="149" y="358"/>
      <point x="131" y="366"/>
      <point x="114" y="366" type="curve" smooth="yes"/>
      <point x="86" y="366"/>
      <point x="61" y="307"/>
      <point x="55" y="298" type="curve"/>
      <point x="48" y="298"/>
      <point x="44" y="305"/>
      <point x="43" y="314" type="curve"/>
      <point x="49" y="334"/>
      <point x="99" y="435"/>
    </contour>
  </outline>
</glyph>
<glyph name="braceleft" format="1">
  <advance width="210"/>
  <unicode hex="007B"/>
  <outline>
    <contour>
      <point x="128" y="402" type="curve" smooth="yes"/>
      <point x="133" y="428"/>
      <point x="126" y="452"/>
      <point x="121" y="477" type="curve" smooth="yes"/>
      <point x="115" y="503"/>
      <point x="110" y="529"/>
      <point x="116" y="560" type="curve" smooth="yes"/>
      <point x="135" y="657"/>
      <point x="207" y="722"/>
      <point x="250" y="739" type="curve"/>
      <point x="257" y="739"/>
      <point x="264" y="729"/>
      <point x="262" y="720" type="curve"/>
      <point x="234" y="707"/>
      <point x="176" y="659"/>
      <point x="166" y="608" type="curve" smooth="yes"/>
      <point x="159" y="570"/>
      <point x="166" y="545"/>
      <point x="172" y="517" type="curve" smooth="yes"/>
      <point x="178" y="492"/>
      <point x="183" y="464"/>
      <point x="175" y="424" type="curve" smooth="yes"/>
      <point x="162" y="359"/>
      <point x="111" y="317"/>
      <point x="85" y="307" type="curve"/>
      <point x="107" y="297"/>
      <point x="143" y="255"/>
      <point x="130" y="190" type="curve" smooth="yes"/>
      <point x="122" y="150"/>
      <point x="106" y="122"/>
      <point x="90" y="97" type="curve" smooth="yes"/>
      <point x="73" y="69"/>
      <point x="56" y="44"/>
      <point x="49" y="6" type="curve" smooth="yes"/>
      <point x="39" y="-45"/>
      <point x="78" y="-93"/>
      <point x="101" y="-106" type="curve"/>
      <point x="99" y="-115"/>
      <point x="89" y="-125"/>
      <point x="82" y="-125" type="curve"/>
      <point x="45" y="-108"/>
      <point x="-1" y="-43"/>
      <point x="18" y="54" type="curve" smooth="yes"/>
      <point x="24" y="85"/>
      <point x="39" y="111"/>
      <point x="55" y="137" type="curve" smooth="yes"/>
      <point x="70" y="162"/>
      <point x="86" y="186"/>
      <point x="91" y="212" type="curve" smooth="yes"/>
      <point x="101" y="265"/>
      <point x="71" y="286"/>
      <point x="37" y="296" type="curve"/>
      <point x="36" y="298"/>
      <point x="36" y="303"/>
      <point x="37" y="307" type="curve" smooth="yes"/>
      <point x="38" y="311"/>
      <point x="39" y="316"/>
      <point x="41" y="318" type="curve"/>
      <point x="79" y="328"/>
      <point x="118" y="349"/>
    </contour>
  </outline>
</glyph>
<glyph name="braceright" format="1">
  <advance width="212"/>
  <unicode hex="007D"/>
  <outline>
    <contour>
      <point x="143" y="739" type="curve"/>
      <point x="180" y="722"/>
      <point x="227" y="657"/>
      <point x="208" y="560" type="curve" smooth="yes"/>
      <point x="202" y="529"/>
      <point x="187" y="503"/>
      <point x="171" y="477" type="curve" smooth="yes"/>
      <point x="156" y="452"/>
      <point x="140" y="428"/>
      <point x="135" y="402" type="curve" smooth="yes"/>
      <point x="125" y="349"/>
      <point x="155" y="328"/>
      <point x="189" y="318" type="curve"/>
      <point x="190" y="316"/>
      <point x="190" y="311"/>
      <point x="189" y="307" type="curve" smooth="yes"/>
      <point x="188" y="302"/>
      <point x="187" y="299"/>
      <point x="185" y="296" type="curve"/>
      <point x="147" y="286"/>
      <point x="108" y="265"/>
      <point x="98" y="212" type="curve" smooth="yes"/>
      <point x="93" y="186"/>
      <point x="100" y="162"/>
      <point x="105" y="137" type="curve" smooth="yes"/>
      <point x="111" y="111"/>
      <point x="116" y="85"/>
      <point x="110" y="54" type="curve" smooth="yes"/>
      <point x="91" y="-43"/>
      <point x="18" y="-108"/>
      <point x="-25" y="-125" type="curve"/>
      <point x="-32" y="-125"/>
      <point x="-38" y="-115"/>
      <point x="-36" y="-106" type="curve"/>
      <point x="-8" y="-93"/>
      <point x="50" y="-45"/>
      <point x="60" y="6" type="curve" smooth="yes"/>
      <point x="67" y="44"/>
      <point x="60" y="69"/>
      <point x="54" y="97" type="curve" smooth="yes"/>
      <point x="48" y="122"/>
      <point x="43" y="150"/>
      <point x="51" y="190" type="curve" smooth="yes"/>
      <point x="64" y="255"/>
      <point x="115" y="297"/>
      <point x="141" y="307" type="curve"/>
      <point x="119" y="317"/>
      <point x="83" y="359"/>
      <point x="96" y="424" type="curve" smooth="yes"/>
      <point x="104" y="464"/>
      <point x="120" y="492"/>
      <point x="136" y="517" type="curve" smooth="yes"/>
      <point x="153" y="545"/>
      <point x="170" y="570"/>
      <point x="177" y="608" type="curve" smooth="yes"/>
      <point x="187" y="659"/>
      <point x="148" y="707"/>
      <point x="125" y="720" type="curve"/>
      <point x="127" y="729"/>
      <point x="136" y="739"/>
    </contour>
  </outline>
</glyph>
<glyph name="asciitilde" format="1">
  <advance width="545"/>
  <unicode hex="007E"/>
  <outline>
    <contour>
      <point x="197" y="354" type="curve" smooth="yes"/>
      <point x="285" y="354"/>
      <point x="317" y="301"/>
      <point x="405" y="301" type="curve" smooth="yes"/>
      <point x="441" y="301"/>
      <point x="467" y="322"/>
      <point x="498" y="345" type="curve"/>
      <point x="500" y="343"/>
      <point x="504" y="341"/>
      <point x="504" y="335" type="curve" smooth="yes"/>
      <point x="504" y="305"/>
      <point x="440" y="250"/>
      <point x="369" y="250" type="curve" smooth="yes"/>
      <point x="281" y="250"/>
      <point x="246" y="303"/>
      <point x="158" y="303" type="curve" smooth="yes"/>
      <point x="122" y="303"/>
      <point x="96" y="282"/>
      <point x="65" y="259" type="curve"/>
      <point x="63" y="261"/>
      <point x="59" y="263"/>
      <point x="59" y="269" type="curve" smooth="yes"/>
      <point x="59" y="308"/>
      <point x="142" y="354"/>
    </contour>
  </outline>
</glyph>
<glyph name="cent" format="1">
  <advance width="358"/>
  <unicode hex="00A2"/>
  <outline>
    <contour>
      <point x="254" y="474" type="line"/>
      <point x="261" y="474"/>
      <point x="286" y="473"/>
      <point x="285" y="466" type="curve"/>
      <point x="109" y="-45" type="line"/>
      <point x="101" y="-45"/>
      <point x="77" y="-43"/>
      <point x="78" y="-36" type="curve"/>
    </contour>
    <component base="c" xOffset="-6"/>
  </outline>
</glyph>
<glyph name="yen" format="1">
  <advance width="592"/>
  <unicode hex="00A5"/>
  <outline>
    <contour>
      <point x="173" y="216" type="line" smooth="yes"/>
      <point x="170" y="216"/>
      <point x="169" y="220"/>
      <point x="169" y="224" type="curve" smooth="yes"/>
      <point x="169" y="231"/>
      <point x="175" y="248"/>
      <point x="182" y="254" type="curve"/>
      <point x="428" y="254" type="line" smooth="yes"/>
      <point x="430" y="254"/>
      <point x="431" y="251"/>
      <point x="431" y="247" type="curve" smooth="yes"/>
      <point x="431" y="242"/>
      <point x="428" y="225"/>
      <point x="419" y="216" type="curve"/>
    </contour>
    <contour>
      <point x="158" y="138" type="line" smooth="yes"/>
      <point x="155" y="138"/>
      <point x="154" y="142"/>
      <point x="154" y="146" type="curve" smooth="yes"/>
      <point x="154" y="153"/>
      <point x="160" y="170"/>
      <point x="167" y="176" type="curve"/>
      <point x="413" y="176" type="line" smooth="yes"/>
      <point x="415" y="176"/>
      <point x="416" y="173"/>
      <point x="416" y="169" type="curve" smooth="yes"/>
      <point x="416" y="164"/>
      <point x="413" y="147"/>
      <point x="404" y="138" type="curve"/>
    </contour>
    <contour>
      <point x="233" y="111" type="curve" smooth="yes"/>
      <point x="261" y="255" type="line" smooth="yes"/>
      <point x="262" y="262"/>
      <point x="263" y="272"/>
      <point x="260" y="282" type="curve" smooth="yes"/>
      <point x="180" y="523" type="line" smooth="yes"/>
      <point x="168" y="558"/>
      <point x="157" y="574"/>
      <point x="135" y="589" type="curve" smooth="yes"/>
      <point x="122" y="599"/>
      <point x="99" y="604"/>
      <point x="88" y="604" type="curve" smooth="yes"/>
      <point x="83" y="604"/>
      <point x="87" y="627"/>
      <point x="93" y="632" type="curve"/>
      <point x="136" y="630"/>
      <point x="159" y="627"/>
      <point x="203" y="627" type="curve" smooth="yes"/>
      <point x="247" y="627"/>
      <point x="282" y="630"/>
      <point x="318" y="632" type="curve"/>
      <point x="319" y="626"/>
      <point x="316" y="604"/>
      <point x="311" y="604" type="curve" smooth="yes"/>
      <point x="299" y="604"/>
      <point x="257" y="599"/>
      <point x="252" y="574" type="curve" smooth="yes"/>
      <point x="250" y="566"/>
      <point x="253" y="557"/>
      <point x="257" y="545" type="curve" smooth="yes"/>
      <point x="333" y="316" type="line"/>
      <point x="393" y="400"/>
      <point x="483" y="536"/>
      <point x="499" y="565" type="curve" smooth="yes"/>
      <point x="501" y="568"/>
      <point x="504" y="573"/>
      <point x="505" y="579" type="curve" smooth="yes"/>
      <point x="506" y="585"/>
      <point x="495" y="603"/>
      <point x="445" y="603" type="curve"/>
      <point x="442" y="606"/>
      <point x="446" y="627"/>
      <point x="449" y="631" type="curve"/>
      <point x="481" y="629"/>
      <point x="507" y="626"/>
      <point x="539" y="626" type="curve" smooth="yes"/>
      <point x="585" y="626"/>
      <point x="602" y="629"/>
      <point x="638" y="631" type="curve"/>
      <point x="638" y="628"/>
      <point x="633" y="603"/>
      <point x="630" y="603" type="curve" smooth="yes"/>
      <point x="623" y="603"/>
      <point x="573" y="603"/>
      <point x="545" y="565" type="curve" smooth="yes"/>
      <point x="349" y="287" type="line" smooth="yes"/>
      <point x="341" y="276"/>
      <point x="342" y="267"/>
      <point x="340" y="258" type="curve" smooth="yes"/>
      <point x="310" y="111" type="line" smooth="yes"/>
      <point x="304" y="82"/>
      <point x="299" y="55"/>
      <point x="301" y="40" type="curve" smooth="yes"/>
      <point x="302" y="29"/>
      <point x="348" y="25"/>
      <point x="359" y="25" type="curve"/>
      <point x="362" y="20"/>
      <point x="360" y="2"/>
      <point x="354" y="-3" type="curve"/>
      <point x="318" y="-1"/>
      <point x="285" y="2"/>
      <point x="251" y="2" type="curve" smooth="yes"/>
      <point x="217" y="2"/>
      <point x="182" y="-1"/>
      <point x="145" y="-3" type="curve"/>
      <point x="141" y="2"/>
      <point x="146" y="20"/>
      <point x="151" y="25" type="curve"/>
      <point x="162" y="25"/>
      <point x="210" y="29"/>
      <point x="215" y="40" type="curve" smooth="yes"/>
      <point x="223" y="55"/>
      <point x="227" y="82"/>
    </contour>
  </outline>
</glyph>
<glyph name="section" format="1">
  <advance width="395"/>
  <unicode hex="00A7"/>
  <outline>
    <contour>
      <point x="249" y="51" type="curve"/>
      <point x="270" y="79"/>
      <point x="285" y="99"/>
      <point x="292" y="135" type="curve" smooth="yes"/>
      <point x="308" y="218"/>
      <point x="268" y="285"/>
      <point x="227" y="335" type="curve" smooth="yes"/>
      <point x="191" y="379"/>
      <point x="137" y="435"/>
      <point x="151" y="507" type="curve" smooth="yes"/>
      <point x="152" y="513"/>
      <point x="154" y="518"/>
      <point x="155" y="524" type="curve"/>
      <point x="134" y="496"/>
      <point x="119" y="476"/>
      <point x="112" y="440" type="curve" smooth="yes"/>
      <point x="96" y="357"/>
      <point x="136" y="290"/>
      <point x="177" y="240" type="curve" smooth="yes"/>
      <point x="213" y="196"/>
      <point x="267" y="140"/>
      <point x="253" y="68" type="curve" smooth="yes"/>
      <point x="252" y="62"/>
      <point x="250" y="57"/>
    </contour>
    <contour>
      <point x="198" y="-25" type="curve" smooth="yes"/>
      <point x="165" y="-51"/>
      <point x="112" y="-78"/>
      <point x="54" y="-78" type="curve" smooth="yes"/>
      <point x="41" y="-78"/>
      <point x="29" y="-76"/>
      <point x="17" y="-70" type="curve"/>
      <point x="14" y="-60"/>
      <point x="16" y="-50"/>
      <point x="17" y="-44" type="curve" smooth="yes"/>
      <point x="20" y="-30"/>
      <point x="42" y="-8"/>
      <point x="57" y="-8" type="curve" smooth="yes"/>
      <point x="73" y="-8"/>
      <point x="80" y="-15"/>
      <point x="88" y="-20" type="curve" smooth="yes"/>
      <point x="95" y="-24"/>
      <point x="102" y="-28"/>
      <point x="116" y="-28" type="curve" smooth="yes"/>
      <point x="145" y="-28"/>
      <point x="195" y="-12"/>
      <point x="202" y="26" type="curve" smooth="yes"/>
      <point x="211" y="72"/>
      <point x="156" y="149"/>
      <point x="121" y="192" type="curve" smooth="yes"/>
      <point x="82" y="240"/>
      <point x="36" y="310"/>
      <point x="53" y="396" type="curve" smooth="yes"/>
      <point x="66" y="463"/>
      <point x="128" y="541"/>
      <point x="206" y="600" type="curve" smooth="yes"/>
      <point x="244" y="629"/>
      <point x="292" y="653"/>
      <point x="350" y="653" type="curve" smooth="yes"/>
      <point x="363" y="653"/>
      <point x="375" y="651"/>
      <point x="387" y="645" type="curve"/>
      <point x="390" y="635"/>
      <point x="388" y="625"/>
      <point x="387" y="619" type="curve" smooth="yes"/>
      <point x="384" y="605"/>
      <point x="362" y="583"/>
      <point x="347" y="583" type="curve" smooth="yes"/>
      <point x="331" y="583"/>
      <point x="324" y="590"/>
      <point x="316" y="595" type="curve" smooth="yes"/>
      <point x="309" y="599"/>
      <point x="301" y="603"/>
      <point x="287" y="603" type="curve" smooth="yes"/>
      <point x="258" y="603"/>
      <point x="209" y="587"/>
      <point x="202" y="549" type="curve" smooth="yes"/>
      <point x="193" y="503"/>
      <point x="248" y="426"/>
      <point x="283" y="383" type="curve" smooth="yes"/>
      <point x="322" y="335"/>
      <point x="368" y="265"/>
      <point x="351" y="179" type="curve" smooth="yes"/>
      <point x="338" y="112"/>
      <point x="267" y="27"/>
    </contour>
  </outline>
</glyph>
<glyph name="guillemotleft" format="1">
  <advance width="484"/>
  <unicode hex="00AB"/>
  <outline>
    <contour>
      <point x="400" y="91" type="curve"/>
      <point x="395" y="82"/>
      <point x="385" y="76"/>
      <point x="379" y="73" type="curve"/>
      <point x="349" y="112"/>
      <point x="277" y="182"/>
      <point x="217" y="228" type="curve" smooth="yes"/>
      <point x="211" y="232"/>
      <point x="207" y="236"/>
      <point x="207" y="242" type="curve" smooth="yes"/>
      <point x="207" y="253"/>
      <point x="215" y="262"/>
      <point x="222" y="266" type="curve" smooth="yes"/>
      <point x="333" y="329"/>
      <point x="375" y="368"/>
      <point x="446" y="423" type="curve"/>
      <point x="450" y="422"/>
      <point x="462" y="417"/>
      <point x="464" y="408" type="curve"/>
      <point x="459" y="396"/>
      <point x="296" y="249"/>
      <point x="296" y="249" type="curve"/>
      <point x="296" y="249"/>
      <point x="400" y="99"/>
    </contour>
    <contour>
      <point x="220" y="91" type="curve"/>
      <point x="215" y="82"/>
      <point x="205" y="76"/>
      <point x="199" y="73" type="curve"/>
      <point x="169" y="112"/>
      <point x="97" y="182"/>
      <point x="37" y="228" type="curve" smooth="yes"/>
      <point x="31" y="232"/>
      <point x="27" y="236"/>
      <point x="27" y="242" type="curve" smooth="yes"/>
      <point x="27" y="253"/>
      <point x="35" y="262"/>
      <point x="42" y="266" type="curve" smooth="yes"/>
      <point x="153" y="329"/>
      <point x="195" y="368"/>
      <point x="266" y="423" type="curve"/>
      <point x="270" y="422"/>
      <point x="282" y="417"/>
      <point x="284" y="408" type="curve"/>
      <point x="279" y="396"/>
      <point x="116" y="249"/>
      <point x="116" y="249" type="curve"/>
      <point x="116" y="249"/>
      <point x="220" y="99"/>
    </contour>
  </outline>
</glyph>
<glyph name="plusminus" format="1">
  <advance width="489"/>
  <unicode hex="00B1"/>
  <outline>
    <contour>
      <point x="403" y="64" type="line" smooth="yes"/>
      <point x="405" y="64"/>
      <point x="406" y="61"/>
      <point x="406" y="56" type="curve" smooth="yes"/>
      <point x="406" y="43"/>
      <point x="405" y="33"/>
      <point x="394" y="21" type="curve"/>
      <point x="4" y="21" type="line" smooth="yes"/>
      <point x="1" y="21"/>
      <point x="-1" y="24"/>
      <point x="-1" y="29" type="curve" smooth="yes"/>
      <point x="-1" y="42"/>
      <point x="2" y="51"/>
      <point x="12" y="64" type="curve"/>
    </contour>
    <contour>
      <point x="59" y="306" type="line" smooth="yes"/>
      <point x="56" y="306"/>
      <point x="55" y="309"/>
      <point x="55" y="314" type="curve" smooth="yes"/>
      <point x="55" y="327"/>
      <point x="58" y="336"/>
      <point x="68" y="349" type="curve"/>
      <point x="239" y="349" type="line"/>
      <point x="273" y="524" type="line" smooth="yes"/>
      <point x="276" y="537"/>
      <point x="310" y="540"/>
      <point x="314" y="540" type="curve" smooth="yes"/>
      <point x="322" y="540"/>
      <point x="324" y="536"/>
      <point x="323" y="532" type="curve" smooth="yes"/>
      <point x="287" y="349" type="line"/>
      <point x="458" y="349" type="line" smooth="yes"/>
      <point x="460" y="349"/>
      <point x="462" y="346"/>
      <point x="462" y="341" type="curve" smooth="yes"/>
      <point x="462" y="328"/>
      <point x="461" y="318"/>
      <point x="450" y="306" type="curve"/>
      <point x="279" y="306" type="line"/>
      <point x="245" y="128" type="line" smooth="yes"/>
      <point x="243" y="118"/>
      <point x="225" y="112"/>
      <point x="209" y="112" type="curve" smooth="yes"/>
      <point x="199" y="112"/>
      <point x="196" y="116"/>
      <point x="196" y="120" type="curve" smooth="yes"/>
      <point x="231" y="306" type="line"/>
    </contour>
  </outline>
</glyph>
<glyph name="periodcentered" format="1">
  <advance width="222"/>
  <unicode hex="00B7"/>
  <outline>
    <contour>
      <point x="54" y="252" type="curve" smooth="yes"/>
      <point x="54" y="289"/>
      <point x="88" y="322"/>
      <point x="121" y="322" type="curve" smooth="yes"/>
      <point x="147" y="322"/>
      <point x="164" y="302"/>
      <point x="164" y="276" type="curve" smooth="yes"/>
      <point x="164" y="239"/>
      <point x="131" y="205"/>
      <point x="98" y="205" type="curve" smooth="yes"/>
      <point x="72" y="205"/>
      <point x="54" y="225"/>
    </contour>
  </outline>
</glyph>
<glyph name="ordmasculine" format="1">
  <advance width="339"/>
  <unicode hex="00BA"/>
  <outline>
    <contour>
      <point x="227" y="532" type="curve" smooth="yes"/>
      <point x="162" y="532"/>
      <point x="123" y="431"/>
      <point x="123" y="361" type="curve" smooth="yes"/>
      <point x="123" y="305"/>
      <point x="140" y="269"/>
      <point x="167" y="269" type="curve" smooth="yes"/>
      <point x="231" y="269"/>
      <point x="267" y="371"/>
      <point x="267" y="441" type="curve" smooth="yes"/>
      <point x="267" y="497"/>
      <point x="254" y="532"/>
    </contour>
    <contour>
      <point x="237" y="554" type="curve" smooth="yes"/>
      <point x="299" y="554"/>
      <point x="327" y="511"/>
      <point x="327" y="451" type="curve" smooth="yes"/>
      <point x="327" y="353"/>
      <point x="240" y="247"/>
      <point x="152" y="247" type="curve" smooth="yes"/>
      <point x="90" y="247"/>
      <point x="63" y="287"/>
      <point x="63" y="347" type="curve" smooth="yes"/>
      <point x="63" y="445"/>
      <point x="149" y="554"/>
    </contour>
  </outline>
</glyph>
<glyph name="guillemotright" format="1">
  <advance width="485"/>
  <unicode hex="00BB"/>
  <outline>
    <contour>
      <point x="257" y="405" type="curve"/>
      <point x="262" y="414"/>
      <point x="272" y="420"/>
      <point x="278" y="423" type="curve"/>
      <point x="308" y="384"/>
      <point x="380" y="314"/>
      <point x="440" y="268" type="curve" smooth="yes"/>
      <point x="446" y="264"/>
      <point x="450" y="260"/>
      <point x="450" y="254" type="curve" smooth="yes"/>
      <point x="450" y="243"/>
      <point x="442" y="234"/>
      <point x="435" y="230" type="curve" smooth="yes"/>
      <point x="324" y="167"/>
      <point x="282" y="128"/>
      <point x="211" y="73" type="curve"/>
      <point x="207" y="74"/>
      <point x="195" y="79"/>
      <point x="193" y="88" type="curve"/>
      <point x="198" y="100"/>
      <point x="361" y="247"/>
      <point x="361" y="247" type="curve"/>
      <point x="361" y="247"/>
      <point x="257" y="397"/>
    </contour>
    <contour>
      <point x="77" y="405" type="curve"/>
      <point x="82" y="414"/>
      <point x="92" y="420"/>
      <point x="98" y="423" type="curve"/>
      <point x="128" y="384"/>
      <point x="200" y="314"/>
      <point x="260" y="268" type="curve" smooth="yes"/>
      <point x="266" y="264"/>
      <point x="270" y="260"/>
      <point x="270" y="254" type="curve" smooth="yes"/>
      <point x="270" y="243"/>
      <point x="262" y="234"/>
      <point x="255" y="230" type="curve" smooth="yes"/>
      <point x="144" y="167"/>
      <point x="102" y="128"/>
      <point x="31" y="73" type="curve"/>
      <point x="27" y="74"/>
      <point x="15" y="79"/>
      <point x="13" y="88" type="curve"/>
      <point x="18" y="100"/>
      <point x="181" y="247"/>
      <point x="181" y="247" type="curve"/>
      <point x="181" y="247"/>
      <point x="77" y="397"/>
    </contour>
  </outline>
</glyph>
<glyph name="threequarters" format="1">
  <advance width="651"/>
  <unicode hex="00BE"/>
  <outline>
    <contour>
      <point x="595" y="405" type="curve" smooth="yes"/>
      <point x="601" y="405"/>
      <point x="607" y="395"/>
      <point x="606" y="390" type="curve" smooth="yes"/>
      <point x="559" y="152" type="line"/>
      <point x="594" y="152" type="line" smooth="yes"/>
      <point x="598" y="152"/>
      <point x="598" y="134"/>
      <point x="596" y="121" type="curve" smooth="yes"/>
      <point x="595" y="115"/>
      <point x="592" y="108"/>
      <point x="591" y="106" type="curve"/>
      <point x="551" y="106" type="line"/>
      <point x="531" y="1" type="line"/>
      <point x="531" y="1"/>
      <point x="517" y="-2"/>
      <point x="495" y="-2" type="curve" smooth="yes"/>
      <point x="481" y="-2"/>
      <point x="464" y="-1"/>
      <point x="465" y="3" type="curve" smooth="yes"/>
      <point x="485" y="106" type="line"/>
      <point x="314" y="106" type="line"/>
      <point x="310" y="108"/>
      <point x="309" y="116"/>
      <point x="310" y="120" type="curve"/>
      <point x="573" y="398" type="line" smooth="yes"/>
      <point x="578" y="403"/>
      <point x="591" y="405"/>
    </contour>
    <contour>
      <point x="528" y="314" type="line"/>
      <point x="375" y="152" type="line"/>
      <point x="494" y="152" type="line"/>
    </contour>
    <contour>
      <point x="216" y="648" type="curve" smooth="yes"/>
      <point x="245" y="648"/>
      <point x="283" y="627"/>
      <point x="283" y="581" type="curve" smooth="yes"/>
      <point x="283" y="540"/>
      <point x="239" y="503"/>
      <point x="207" y="485" type="curve"/>
      <point x="251" y="482"/>
      <point x="289" y="439"/>
      <point x="289" y="402" type="curve" smooth="yes"/>
      <point x="289" y="296"/>
      <point x="167" y="247"/>
      <point x="112" y="247" type="curve" smooth="yes"/>
      <point x="82" y="247"/>
      <point x="52" y="252"/>
      <point x="38" y="262" type="curve"/>
      <point x="36" y="265"/>
      <point x="32" y="273"/>
      <point x="32" y="280" type="curve" smooth="yes"/>
      <point x="32" y="299"/>
      <point x="50" y="322"/>
      <point x="64" y="322" type="curve" smooth="yes"/>
      <point x="84" y="322"/>
      <point x="89" y="305"/>
      <point x="98" y="294" type="curve" smooth="yes"/>
      <point x="109" y="281"/>
      <point x="126" y="278"/>
      <point x="142" y="278" type="curve" smooth="yes"/>
      <point x="177" y="278"/>
      <point x="218" y="316"/>
      <point x="218" y="386" type="curve" smooth="yes"/>
      <point x="218" y="428"/>
      <point x="193" y="452"/>
      <point x="155" y="452" type="curve" smooth="yes"/>
      <point x="143" y="452"/>
      <point x="130" y="450"/>
      <point x="123" y="448" type="curve"/>
      <point x="121" y="451"/>
      <point x="119" y="452"/>
      <point x="119" y="455" type="curve" smooth="yes"/>
      <point x="119" y="457"/>
      <point x="119" y="467"/>
      <point x="120" y="469" type="curve"/>
      <point x="170" y="478"/>
      <point x="228" y="513"/>
      <point x="228" y="560" type="curve" smooth="yes"/>
      <point x="228" y="584"/>
      <point x="213" y="608"/>
      <point x="187" y="608" type="curve" smooth="yes"/>
      <point x="150" y="608"/>
      <point x="127" y="571"/>
      <point x="121" y="567" type="curve"/>
      <point x="117" y="567"/>
      <point x="112" y="578"/>
      <point x="113" y="584" type="curve"/>
      <point x="140" y="622"/>
      <point x="171" y="648"/>
    </contour>
    <contour>
      <point x="580" y="626" type="curve" smooth="yes"/>
      <point x="134" y="-6" type="line"/>
      <point x="134" y="-6"/>
      <point x="109" y="-7"/>
      <point x="109" y="4" type="curve" smooth="yes"/>
      <point x="109" y="6"/>
      <point x="110" y="8"/>
      <point x="111" y="10" type="curve" smooth="yes"/>
      <point x="558" y="642" type="line"/>
      <point x="558" y="642"/>
      <point x="581" y="642"/>
      <point x="581" y="631" type="curve" smooth="yes"/>
      <point x="581" y="629"/>
      <point x="581" y="627"/>
    </contour>
  </outline>
</glyph>
<glyph name="questiondown" format="1">
  <advance width="310"/>
  <unicode hex="00BF"/>
  <outline>
    <contour>
      <point x="255" y="390" type="curve" smooth="yes"/>
      <point x="255" y="352"/>
      <point x="223" y="320"/>
      <point x="190" y="320" type="curve" smooth="yes"/>
      <point x="164" y="320"/>
      <point x="145" y="340"/>
      <point x="145" y="366" type="curve" smooth="yes"/>
      <point x="145" y="403"/>
      <point x="180" y="436"/>
      <point x="213" y="436" type="curve" smooth="yes"/>
      <point x="239" y="436"/>
      <point x="255" y="416"/>
    </contour>
    <contour>
      <point x="120" y="225" type="curve"/>
      <point x="120" y="229"/>
      <point x="125" y="238"/>
      <point x="130" y="241" type="curve"/>
      <point x="154" y="241"/>
      <point x="229" y="195"/>
      <point x="229" y="139" type="curve" smooth="yes"/>
      <point x="229" y="97"/>
      <point x="206" y="74"/>
      <point x="180" y="56" type="curve" smooth="yes"/>
      <point x="133" y="24"/>
      <point x="109" y="8"/>
      <point x="64" y="-24" type="curve" smooth="yes"/>
      <point x="44" y="-38"/>
      <point x="18" y="-62"/>
      <point x="18" y="-100" type="curve" smooth="yes"/>
      <point x="18" y="-139"/>
      <point x="40" y="-160"/>
      <point x="70" y="-160" type="curve" smooth="yes"/>
      <point x="114" y="-160"/>
      <point x="114" y="-114"/>
      <point x="152" y="-114" type="curve" smooth="yes"/>
      <point x="181" y="-114"/>
      <point x="186" y="-148"/>
      <point x="186" y="-166" type="curve"/>
      <point x="181" y="-181"/>
      <point x="138" y="-209"/>
      <point x="100" y="-209" type="curve" smooth="yes"/>
      <point x="25" y="-209"/>
      <point x="-33" y="-142"/>
      <point x="-33" y="-80" type="curve" smooth="yes"/>
      <point x="-33" y="-38"/>
      <point x="-21" y="-6"/>
      <point x="11" y="24" type="curve" smooth="yes"/>
      <point x="35" y="46"/>
      <point x="74" y="65"/>
      <point x="126" y="101" type="curve" smooth="yes"/>
      <point x="151" y="118"/>
      <point x="159" y="134"/>
      <point x="159" y="161" type="curve" smooth="yes"/>
      <point x="159" y="190"/>
      <point x="131" y="217"/>
    </contour>
  </outline>
</glyph>
<glyph name="AE" format="1">
  <advance width="785"/>
  <unicode hex="00C6"/>
  <outline>
    <contour>
      <point x="388" y="307" type="line"/>
      <point x="243" y="307" type="line"/>
      <point x="122" y="131" type="line" smooth="yes"/>
      <point x="87" y="81"/>
      <point x="77" y="61"/>
      <point x="77" y="50" type="curve" smooth="yes"/>
      <point x="77" y="34"/>
      <point x="124" y="24"/>
      <point x="134" y="24" type="curve" smooth="yes"/>
      <point x="135" y="24"/>
      <point x="134" y="2"/>
      <point x="131" y="-3" type="curve"/>
      <point x="94" y="-1"/>
      <point x="78" y="2"/>
      <point x="37" y="2" type="curve" smooth="yes"/>
      <point x="-6" y="2"/>
      <point x="-16" y="-1"/>
      <point x="-59" y="-3" type="curve"/>
      <point x="-60" y="-2"/>
      <point x="-60" y="24"/>
      <point x="-56" y="24" type="curve" smooth="yes"/>
      <point x="-45" y="24"/>
      <point x="-6" y="32"/>
      <point x="8" y="45" type="curve" smooth="yes"/>
      <point x="37" y="71"/>
      <point x="62" y="102"/>
      <point x="87" y="139" type="curve" smooth="yes"/>
      <point x="395" y="586" type="line" smooth="yes"/>
      <point x="397" y="590"/>
      <point x="400" y="595"/>
      <point x="400" y="601" type="curve" smooth="yes"/>
      <point x="400" y="612"/>
      <point x="392" y="625"/>
      <point x="370" y="625" type="curve"/>
      <point x="366" y="628"/>
      <point x="367" y="650"/>
      <point x="370" y="656" type="curve"/>
      <point x="468" y="657" type="line" smooth="yes"/>
      <point x="555" y="657"/>
      <point x="663" y="664"/>
      <point x="764" y="664" type="curve"/>
      <point x="765" y="614"/>
      <point x="772" y="573"/>
      <point x="776" y="528" type="curve"/>
      <point x="773" y="525"/>
      <point x="765" y="523"/>
      <point x="758" y="523" type="curve" smooth="yes"/>
      <point x="751" y="523"/>
      <point x="746" y="525"/>
      <point x="746" y="530" type="curve" smooth="yes"/>
      <point x="735" y="610"/>
      <point x="699" y="630"/>
      <point x="650" y="630" type="curve" smooth="yes"/>
      <point x="570" y="630" type="line" smooth="yes"/>
      <point x="559" y="630"/>
      <point x="509" y="629"/>
      <point x="505" y="619" type="curve" smooth="yes"/>
      <point x="498" y="603"/>
      <point x="494" y="574"/>
      <point x="491" y="547" type="curve" smooth="yes"/>
      <point x="470" y="347" type="line" smooth="yes"/>
      <point x="469" y="342"/>
      <point x="489" y="341"/>
      <point x="509" y="341" type="curve" smooth="yes"/>
      <point x="558" y="341" type="line" smooth="yes"/>
      <point x="647" y="341"/>
      <point x="645" y="347"/>
      <point x="669" y="413" type="curve" smooth="yes"/>
      <point x="671" y="418"/>
      <point x="677" y="420"/>
      <point x="684" y="420" type="curve" smooth="yes"/>
      <point x="691" y="420"/>
      <point x="696" y="418"/>
      <point x="698" y="415" type="curve"/>
      <point x="678" y="226" type="line"/>
      <point x="676" y="224"/>
      <point x="669" y="222"/>
      <point x="662" y="222" type="curve" smooth="yes"/>
      <point x="655" y="222"/>
      <point x="650" y="225"/>
      <point x="649" y="230" type="curve" smooth="yes"/>
      <point x="641" y="287"/>
      <point x="637" y="294"/>
      <point x="630" y="300" type="curve" smooth="yes"/>
      <point x="620" y="307"/>
      <point x="567" y="308"/>
      <point x="532" y="308" type="curve" smooth="yes"/>
      <point x="506" y="308"/>
      <point x="466" y="308"/>
      <point x="465" y="299" type="curve" smooth="yes"/>
      <point x="446" y="109" type="line" smooth="yes"/>
      <point x="445" y="94"/>
      <point x="440" y="45"/>
      <point x="445" y="40" type="curve" smooth="yes"/>
      <point x="456" y="30"/>
      <point x="471" y="30"/>
      <point x="510" y="30" type="curve" smooth="yes"/>
      <point x="554" y="30" type="line" smooth="yes"/>
      <point x="605" y="30"/>
      <point x="643" y="40"/>
      <point x="673" y="61" type="curve" smooth="yes"/>
      <point x="699" y="79"/>
      <point x="722" y="109"/>
      <point x="743" y="162" type="curve" smooth="yes"/>
      <point x="745" y="166"/>
      <point x="750" y="168"/>
      <point x="757" y="168" type="curve" smooth="yes"/>
      <point x="766" y="168"/>
      <point x="778" y="165"/>
      <point x="780" y="162" type="curve"/>
      <point x="756" y="108"/>
      <point x="721" y="40"/>
      <point x="710" y="-4" type="curve"/>
      <point x="609" y="-4"/>
      <point x="517" y="0"/>
      <point x="394" y="0" type="curve" smooth="yes"/>
      <point x="345" y="0"/>
      <point x="270" y="-3"/>
      <point x="270" y="-3" type="curve"/>
      <point x="268" y="2"/>
      <point x="271" y="29"/>
      <point x="276" y="31" type="curve"/>
      <point x="287" y="31"/>
      <point x="338" y="37"/>
      <point x="349" y="50" type="curve" smooth="yes"/>
      <point x="365" y="69"/>
      <point x="368" y="89"/>
      <point x="371" y="124" type="curve" smooth="yes"/>
    </contour>
    <contour>
      <point x="391" y="341" type="line"/>
      <point x="411" y="550" type="line"/>
      <point x="267" y="341" type="line"/>
    </contour>
  </outline>
</glyph>
<glyph name="Eth" format="1">
  <advance width="684"/>
  <unicode hex="00D0"/>
  <outline>
    <contour>
      <point x="79" y="349" type="curve"/>
      <point x="107" y="349"/>
      <point x="396" y="349"/>
      <point x="409" y="349" type="curve" smooth="yes"/>
      <point x="413" y="349"/>
      <point x="415" y="345"/>
      <point x="414" y="341" type="curve" smooth="yes"/>
      <point x="413" y="336"/>
      <point x="409" y="320"/>
      <point x="404" y="313" type="curve"/>
      <point x="376" y="313"/>
      <point x="86" y="313"/>
      <point x="73" y="313" type="curve" smooth="yes"/>
      <point x="69" y="313"/>
      <point x="69" y="320"/>
      <point x="70" y="324" type="curve" smooth="yes"/>
      <point x="71" y="329"/>
      <point x="72" y="342"/>
    </contour>
    <component base="D"/>
  </outline>
</glyph>
<glyph name="Oslash" format="1">
  <advance width="710"/>
  <unicode hex="00D8"/>
  <outline>
    <contour>
      <point x="118" y="-13" type="line"/>
      <point x="110" y="-10"/>
      <point x="91" y="4"/>
      <point x="96" y="10" type="curve"/>
      <point x="612" y="667" type="line"/>
      <point x="620" y="665"/>
      <point x="640" y="651"/>
      <point x="635" y="645" type="curve"/>
    </contour>
    <component base="O"/>
  </outline>
</glyph>
<glyph name="Thorn" format="1">
  <advance width="470"/>
  <unicode hex="00DE"/>
  <outline>
    <contour>
      <point x="234" y="458" type="curve" smooth="yes"/>
      <point x="208" y="325"/>
      <point x="168" y="116"/>
      <point x="168" y="116" type="curve" smooth="yes"/>
      <point x="162" y="86"/>
      <point x="156" y="58"/>
      <point x="158" y="42" type="curve" smooth="yes"/>
      <point x="159" y="31"/>
      <point x="208" y="26"/>
      <point x="219" y="26" type="curve"/>
      <point x="222" y="21"/>
      <point x="219" y="2"/>
      <point x="213" y="-3" type="curve"/>
      <point x="175" y="-1"/>
      <point x="142" y="2"/>
      <point x="106" y="2" type="curve" smooth="yes"/>
      <point x="70" y="2"/>
      <point x="34" y="-1"/>
      <point x="-5" y="-3" type="curve"/>
      <point x="-9" y="2"/>
      <point x="-5" y="21"/>
      <point x="-0" y="26" type="curve"/>
      <point x="11" y="26"/>
      <point x="63" y="31"/>
      <point x="68" y="42" type="curve" smooth="yes"/>
      <point x="76" y="58"/>
      <point x="81" y="86"/>
      <point x="87" y="116" type="curve" smooth="yes"/>
      <point x="170" y="543" type="line" smooth="yes"/>
      <point x="176" y="573"/>
      <point x="181" y="601"/>
      <point x="179" y="617" type="curve" smooth="yes"/>
      <point x="178" y="628"/>
      <point x="129" y="633"/>
      <point x="118" y="633" type="curve"/>
      <point x="115" y="638"/>
      <point x="118" y="657"/>
      <point x="124" y="662" type="curve"/>
      <point x="162" y="660"/>
      <point x="197" y="657"/>
      <point x="233" y="657" type="curve" smooth="yes"/>
      <point x="269" y="657"/>
      <point x="304" y="660"/>
      <point x="343" y="662" type="curve"/>
      <point x="347" y="657"/>
      <point x="342" y="638"/>
      <point x="337" y="633" type="curve"/>
      <point x="326" y="633"/>
      <point x="275" y="628"/>
      <point x="270" y="617" type="curve" smooth="yes"/>
      <point x="262" y="601"/>
      <point x="257" y="573"/>
      <point x="251" y="543" type="curve" smooth="yes"/>
      <point x="242" y="500" type="line"/>
      <point x="265" y="509"/>
      <point x="290" y="511"/>
      <point x="313" y="511" type="curve" smooth="yes"/>
      <point x="419" y="511"/>
      <point x="494" y="451"/>
      <point x="494" y="360" type="curve" smooth="yes"/>
      <point x="494" y="232"/>
      <point x="383" y="134"/>
      <point x="261" y="134" type="curve" smooth="yes"/>
      <point x="240" y="134"/>
      <point x="221" y="140"/>
      <point x="216" y="144" type="curve" smooth="yes"/>
      <point x="214" y="146"/>
      <point x="208" y="155"/>
      <point x="208" y="160" type="curve" smooth="yes"/>
      <point x="208" y="162"/>
      <point x="210" y="163"/>
      <point x="212" y="164" type="curve"/>
      <point x="220" y="160"/>
      <point x="236" y="160"/>
      <point x="245" y="160" type="curve" smooth="yes"/>
      <point x="319" y="160"/>
      <point x="405" y="234"/>
      <point x="405" y="346" type="curve" smooth="yes"/>
      <point x="405" y="402"/>
      <point x="392" y="482"/>
      <point x="289" y="482" type="curve" smooth="yes"/>
      <point x="278" y="482"/>
      <point x="238" y="480"/>
    </contour>
  </outline>
</glyph>
<glyph name="ae" format="1">
  <advance width="559"/>
  <unicode hex="00E6"/>
  <outline>
    <contour>
      <point x="421" y="394" type="curve" smooth="yes"/>
      <point x="358" y="394"/>
      <point x="315" y="302"/>
      <point x="306" y="230" type="curve"/>
      <point x="345" y="230"/>
      <point x="462" y="280"/>
      <point x="462" y="354" type="curve" smooth="yes"/>
      <point x="462" y="379"/>
      <point x="441" y="394"/>
    </contour>
    <contour>
      <point x="217" y="108" type="curve" smooth="yes"/>
      <point x="232" y="201" type="line"/>
      <point x="188" y="192"/>
      <point x="156" y="182"/>
      <point x="134" y="170" type="curve" smooth="yes"/>
      <point x="91" y="148"/>
      <point x="82" y="123"/>
      <point x="82" y="101" type="curve" smooth="yes"/>
      <point x="82" y="69"/>
      <point x="101" y="46"/>
      <point x="127" y="46" type="curve" smooth="yes"/>
      <point x="159" y="46"/>
      <point x="216" y="99"/>
    </contour>
    <contour>
      <point x="251" y="435" type="curve" smooth="yes"/>
      <point x="292" y="435"/>
      <point x="319" y="401"/>
      <point x="323" y="366" type="curve"/>
      <point x="356" y="404"/>
      <point x="415" y="435"/>
      <point x="468" y="435" type="curve" smooth="yes"/>
      <point x="536" y="435"/>
      <point x="536" y="384"/>
      <point x="536" y="370" type="curve" smooth="yes"/>
      <point x="536" y="282"/>
      <point x="375" y="209"/>
      <point x="301" y="199" type="curve"/>
      <point x="300" y="193"/>
      <point x="297" y="171"/>
      <point x="297" y="158" type="curve" smooth="yes"/>
      <point x="297" y="95"/>
      <point x="319" y="53"/>
      <point x="367" y="53" type="curve" smooth="yes"/>
      <point x="409" y="53"/>
      <point x="465" y="118"/>
      <point x="469" y="122" type="curve"/>
      <point x="472" y="122"/>
      <point x="480" y="110"/>
      <point x="481" y="102" type="curve"/>
      <point x="445" y="51"/>
      <point x="379" y="-6"/>
      <point x="328" y="-6" type="curve" smooth="yes"/>
      <point x="287" y="-6"/>
      <point x="238" y="22"/>
      <point x="224" y="70" type="curve"/>
      <point x="207" y="48"/>
      <point x="117" y="-8"/>
      <point x="90" y="-8" type="curve" smooth="yes"/>
      <point x="48" y="-8"/>
      <point x="6" y="18"/>
      <point x="6" y="80" type="curve" smooth="yes"/>
      <point x="6" y="126"/>
      <point x="41" y="164"/>
      <point x="65" y="180" type="curve" smooth="yes"/>
      <point x="80" y="190"/>
      <point x="195" y="222"/>
      <point x="232" y="234" type="curve" smooth="yes"/>
      <point x="239" y="236"/>
      <point x="238" y="244"/>
      <point x="241" y="257" type="curve" smooth="yes"/>
      <point x="252" y="317" type="line" smooth="yes"/>
      <point x="254" y="325"/>
      <point x="254" y="334"/>
      <point x="254" y="338" type="curve" smooth="yes"/>
      <point x="254" y="362"/>
      <point x="234" y="397"/>
      <point x="198" y="397" type="curve" smooth="yes"/>
      <point x="168" y="397"/>
      <point x="154" y="376"/>
      <point x="141" y="339" type="curve" smooth="yes"/>
      <point x="129" y="307"/>
      <point x="112" y="294"/>
      <point x="90" y="294" type="curve" smooth="yes"/>
      <point x="69" y="294"/>
      <point x="67" y="314"/>
      <point x="67" y="323" type="curve" smooth="yes"/>
      <point x="67" y="336"/>
      <point x="73" y="348"/>
      <point x="78" y="356" type="curve"/>
      <point x="107" y="381"/>
      <point x="186" y="435"/>
    </contour>
  </outline>
</glyph>
<glyph name="eth" format="1">
  <advance width="437"/>
  <unicode hex="00F0"/>
  <outline>
    <contour>
      <point x="251" y="403" type="curve" smooth="yes"/>
      <point x="186" y="403"/>
      <point x="117" y="292"/>
      <point x="117" y="158" type="curve" smooth="yes"/>
      <point x="117" y="112"/>
      <point x="125" y="27"/>
      <point x="175" y="27" type="curve" smooth="yes"/>
      <point x="239" y="27"/>
      <point x="305" y="135"/>
      <point x="305" y="273" type="curve" smooth="yes"/>
      <point x="305" y="300"/>
      <point x="304" y="340"/>
      <point x="302" y="353" type="curve" smooth="yes"/>
      <point x="298" y="380"/>
      <point x="274" y="403"/>
    </contour>
    <contour>
      <point x="259" y="435" type="curve" smooth="yes"/>
      <point x="280" y="435"/>
      <point x="301" y="433"/>
      <point x="313" y="426" type="curve"/>
      <point x="314.083" y="469.3"/>
      <point x="297.002" y="529.006"/>
      <point x="262.075" y="579.43" type="curve"/>
      <point x="156" y="509" type="line"/>
      <point x="150" y="514"/>
      <point x="142" y="533"/>
      <point x="147" y="541" type="curve" smooth="yes"/>
      <point x="242.602" y="604.346" type="line"/>
      <point x="214.847" y="635.809"/>
      <point x="178.947" y="661.013"/>
      <point x="135" y="672" type="curve"/>
      <point x="136" y="679"/>
      <point x="141" y="688"/>
      <point x="148" y="688" type="curve" smooth="yes"/>
      <point x="199.583" y="679.349"/>
      <point x="242.749" y="657.867"/>
      <point x="277.596" y="627.533" type="curve"/>
      <point x="393" y="704" type="line"/>
      <point x="399" y="698"/>
      <point x="406" y="678"/>
      <point x="403" y="673" type="curve" smooth="yes"/>
      <point x="300.56" y="604.983" type="line"/>
      <point x="359.075" y="540.325"/>
      <point x="388" y="447.395"/>
      <point x="388" y="353" type="curve" smooth="yes"/>
      <point x="388" y="134"/>
      <point x="266" y="-5"/>
      <point x="153" y="-5" type="curve" smooth="yes"/>
      <point x="64" y="-5"/>
      <point x="39" y="72"/>
      <point x="39" y="140" type="curve" smooth="yes"/>
      <point x="39" y="250"/>
      <point x="132" y="435"/>
    </contour>
  </outline>
</glyph>
<glyph name="divide" format="1">
  <advance width="507"/>
  <unicode hex="00F7"/>
  <outline>
    <contour>
      <point x="37" y="224" type="line" smooth="yes"/>
      <point x="34" y="224"/>
      <point x="33" y="229"/>
      <point x="33" y="234" type="curve" smooth="yes"/>
      <point x="33" y="245"/>
      <point x="38" y="263"/>
      <point x="43" y="271" type="curve"/>
      <point x="464" y="271" type="line" smooth="yes"/>
      <point x="466" y="271"/>
      <point x="467" y="268"/>
      <point x="467" y="263" type="curve" smooth="yes"/>
      <point x="467" y="250"/>
      <point x="461" y="234"/>
      <point x="455" y="224" type="curve"/>
    </contour>
    <contour>
      <point x="294" y="490" type="curve" smooth="yes"/>
      <point x="315" y="490"/>
      <point x="331" y="471"/>
      <point x="331" y="450" type="curve" smooth="yes"/>
      <point x="331" y="419"/>
      <point x="308" y="390"/>
      <point x="277" y="390" type="curve" smooth="yes"/>
      <point x="255" y="390"/>
      <point x="243" y="412"/>
      <point x="243" y="434" type="curve" smooth="yes"/>
      <point x="243" y="464"/>
      <point x="264" y="490"/>
    </contour>
    <contour>
      <point x="220" y="104" type="curve" smooth="yes"/>
      <point x="241" y="104"/>
      <point x="256" y="85"/>
      <point x="256" y="64" type="curve" smooth="yes"/>
      <point x="256" y="33"/>
      <point x="234" y="4"/>
      <point x="203" y="4" type="curve" smooth="yes"/>
      <point x="181" y="4"/>
      <point x="169" y="26"/>
      <point x="169" y="48" type="curve" smooth="yes"/>
      <point x="169" y="78"/>
      <point x="190" y="104"/>
    </contour>
  </outline>
</glyph>
<glyph name="oslash" format="1">
  <advance width="414"/>
  <unicode hex="00F8"/>
  <outline>
    <contour>
      <point x="52" y="0" type="line"/>
      <point x="46" y="3"/>
      <point x="29" y="14"/>
      <point x="33" y="20" type="curve"/>
      <point x="341" y="419" type="line"/>
      <point x="347" y="416"/>
      <point x="364" y="406"/>
      <point x="360" y="400" type="curve"/>
    </contour>
    <component base="o"/>
  </outline>
</glyph>
<glyph name="thorn" format="1">
  <advance width="449"/>
  <unicode hex="00FE"/>
  <outline>
    <contour>
      <point x="221" y="592" type="curve" smooth="yes"/>
      <point x="218" y="573"/>
      <point x="174" y="353"/>
      <point x="173" y="346" type="curve"/>
      <point x="200" y="371"/>
      <point x="270" y="435"/>
      <point x="321" y="435" type="curve" smooth="yes"/>
      <point x="385" y="435"/>
      <point x="408" y="384"/>
      <point x="408" y="314" type="curve" smooth="yes"/>
      <point x="408" y="159"/>
      <point x="278" y="-5"/>
      <point x="156" y="-5" type="curve" smooth="yes"/>
      <point x="139" y="-5"/>
      <point x="116" y="-2"/>
      <point x="110" y="8" type="curve"/>
      <point x="77" y="-145" type="line" smooth="yes"/>
      <point x="75" y="-154"/>
      <point x="74" y="-163"/>
      <point x="74" y="-173" type="curve" smooth="yes"/>
      <point x="74" y="-178"/>
      <point x="78" y="-193"/>
      <point x="88" y="-196" type="curve" smooth="yes"/>
      <point x="105" y="-200"/>
      <point x="132" y="-199"/>
      <point x="135" y="-199" type="curve" smooth="yes"/>
      <point x="139" y="-200"/>
      <point x="137" y="-225"/>
      <point x="132" y="-227" type="curve"/>
      <point x="119" y="-227"/>
      <point x="108" y="-226"/>
      <point x="97" y="-226" type="curve" smooth="yes"/>
      <point x="46" y="-226"/>
      <point x="7" y="-228"/>
      <point x="-51" y="-235" type="curve"/>
      <point x="-56" y="-234"/>
      <point x="-55" y="-209"/>
      <point x="-50" y="-206" type="curve"/>
      <point x="-32" y="-206"/>
      <point x="-19" y="-201"/>
      <point x="-10" y="-190" type="curve" smooth="yes"/>
      <point x="-3" y="-181"/>
      <point x="1" y="-170"/>
      <point x="6" y="-147" type="curve" smooth="yes"/>
      <point x="85" y="250" type="line"/>
      <point x="37" y="202" type="line"/>
      <point x="33" y="207"/>
      <point x="31" y="217"/>
      <point x="31" y="222" type="curve" smooth="yes"/>
      <point x="31" y="226"/>
      <point x="33" y="228"/>
      <point x="34" y="229" type="curve" smooth="yes"/>
      <point x="93" y="292" type="line"/>
      <point x="144" y="560" type="line" smooth="yes"/>
      <point x="147" y="578"/>
      <point x="153" y="602"/>
      <point x="153" y="613" type="curve" smooth="yes"/>
      <point x="153" y="632"/>
      <point x="108" y="632"/>
      <point x="92" y="632" type="curve"/>
      <point x="89" y="636"/>
      <point x="92" y="649"/>
      <point x="96" y="653" type="curve"/>
      <point x="151" y="658"/>
      <point x="206" y="678"/>
      <point x="228" y="686" type="curve"/>
      <point x="233" y="683"/>
      <point x="234" y="673"/>
      <point x="234" y="667" type="curve" smooth="yes"/>
      <point x="234" y="659"/>
      <point x="226" y="617"/>
    </contour>
    <contour>
      <point x="281" y="380" type="curve" smooth="yes"/>
      <point x="248" y="380"/>
      <point x="190" y="338"/>
      <point x="163" y="300" type="curve"/>
      <point x="130" y="131" type="line" smooth="yes"/>
      <point x="119" y="72"/>
      <point x="147" y="30"/>
      <point x="177" y="30" type="curve" smooth="yes"/>
      <point x="262" y="30"/>
      <point x="334" y="184"/>
      <point x="334" y="303" type="curve" smooth="yes"/>
      <point x="334" y="358"/>
      <point x="313" y="380"/>
    </contour>
  </outline>
</glyph>
<glyph name="dcroat" format="1">
  <advance width="446"/>
  <unicode hex="0111"/>
  <outline>
    <contour>
      <point x="256" y="565" type="curve"/>
      <point x="281" y="565"/>
      <point x="473" y="565"/>
      <point x="485" y="565" type="curve" smooth="yes"/>
      <point x="488" y="565"/>
      <point x="489" y="561"/>
      <point x="488" y="557" type="curve" smooth="yes"/>
      <point x="487" y="552"/>
      <point x="482" y="539"/>
      <point x="477" y="531" type="curve"/>
      <point x="452" y="531"/>
      <point x="259" y="531"/>
      <point x="247" y="531" type="curve" smooth="yes"/>
      <point x="244" y="531"/>
      <point x="244" y="538"/>
      <point x="245" y="542" type="curve" smooth="yes"/>
      <point x="246" y="547"/>
      <point x="249" y="557"/>
    </contour>
    <component base="d"/>
  </outline>
</glyph>
<glyph name="Eogonek" format="1">
  <advance width="554"/>
  <unicode hex="0118"/>
  <outline>
    <contour>
      <point x="422" y="-4" type="curve"/>
      <point x="327" y="-4"/>
      <point x="250" y="-89"/>
      <point x="250" y="-139" type="curve" smooth="yes"/>
      <point x="250" y="-154"/>
      <point x="256" y="-171"/>
      <point x="281" y="-171" type="curve" smooth="yes"/>
      <point x="328" y="-171"/>
      <point x="358" y="-133"/>
      <point x="364" y="-133" type="curve" smooth="yes"/>
      <point x="372" y="-133"/>
      <point x="361" y="-160"/>
      <point x="358" y="-163" type="curve" smooth="yes"/>
      <point x="332" y="-192"/>
      <point x="289" y="-230"/>
      <point x="247" y="-230" type="curve" smooth="yes"/>
      <point x="217" y="-230"/>
      <point x="196" y="-207"/>
      <point x="196" y="-180" type="curve" smooth="yes"/>
      <point x="196" y="-127"/>
      <point x="260" y="-30"/>
      <point x="317" y="-3" type="curve"/>
      <point x="255" y="-2"/>
      <point x="183" y="0"/>
      <point x="106" y="0" type="curve" smooth="yes"/>
      <point x="62" y="0"/>
      <point x="31" y="-3"/>
      <point x="-5" y="-3" type="curve"/>
      <point x="-9" y="2"/>
      <point x="-5" y="21"/>
      <point x="-0" y="26" type="curve"/>
      <point x="11" y="26"/>
      <point x="63" y="31"/>
      <point x="68" y="42" type="curve" smooth="yes"/>
      <point x="76" y="58"/>
      <point x="81" y="86"/>
      <point x="87" y="116" type="curve" smooth="yes"/>
      <point x="170" y="543" type="line" smooth="yes"/>
      <point x="176" y="573"/>
      <point x="181" y="601"/>
      <point x="179" y="617" type="curve" smooth="yes"/>
      <point x="178" y="628"/>
      <point x="129" y="633"/>
      <point x="118" y="633" type="curve"/>
      <point x="115" y="638"/>
      <point x="118" y="657"/>
      <point x="124" y="662" type="curve"/>
      <point x="162" y="660"/>
      <point x="196" y="657"/>
      <point x="233" y="657" type="curve" smooth="yes"/>
      <point x="320" y="657"/>
      <point x="432" y="664"/>
      <point x="533" y="664" type="curve"/>
      <point x="530" y="614"/>
      <point x="534" y="573"/>
      <point x="534" y="528" type="curve"/>
      <point x="531" y="525"/>
      <point x="523" y="523"/>
      <point x="516" y="523" type="curve" smooth="yes"/>
      <point x="509" y="523"/>
      <point x="505" y="525"/>
      <point x="505" y="530" type="curve" smooth="yes"/>
      <point x="500" y="610"/>
      <point x="466" y="630"/>
      <point x="417" y="630" type="curve" smooth="yes"/>
      <point x="337" y="630" type="line" smooth="yes"/>
      <point x="326" y="630"/>
      <point x="276" y="629"/>
      <point x="271" y="619" type="curve" smooth="yes"/>
      <point x="263" y="603"/>
      <point x="256" y="574"/>
      <point x="251" y="547" type="curve" smooth="yes"/>
      <point x="214" y="355" type="line" smooth="yes"/>
      <point x="213" y="350"/>
      <point x="233" y="349"/>
      <point x="253" y="349" type="curve" smooth="yes"/>
      <point x="302" y="349" type="line" smooth="yes"/>
      <point x="391" y="349"/>
      <point x="389" y="355"/>
      <point x="418" y="421" type="curve" smooth="yes"/>
      <point x="420" y="426"/>
      <point x="427" y="428"/>
      <point x="434" y="428" type="curve" smooth="yes"/>
      <point x="441" y="428"/>
      <point x="446" y="426"/>
      <point x="448" y="423" type="curve"/>
      <point x="412" y="234" type="line"/>
      <point x="410" y="232"/>
      <point x="403" y="230"/>
      <point x="396" y="230" type="curve" smooth="yes"/>
      <point x="389" y="230"/>
      <point x="384" y="233"/>
      <point x="383" y="238" type="curve" smooth="yes"/>
      <point x="380" y="295"/>
      <point x="377" y="302"/>
      <point x="370" y="308" type="curve" smooth="yes"/>
      <point x="361" y="315"/>
      <point x="308" y="316"/>
      <point x="273" y="316" type="curve" smooth="yes"/>
      <point x="247" y="316"/>
      <point x="206" y="316"/>
      <point x="204" y="307" type="curve" smooth="yes"/>
      <point x="165" y="109" type="line" smooth="yes"/>
      <point x="162" y="94"/>
      <point x="153" y="45"/>
      <point x="158" y="40" type="curve" smooth="yes"/>
      <point x="168" y="30"/>
      <point x="183" y="30"/>
      <point x="222" y="30" type="curve" smooth="yes"/>
      <point x="266" y="30" type="line" smooth="yes"/>
      <point x="317" y="30"/>
      <point x="358" y="40"/>
      <point x="390" y="61" type="curve" smooth="yes"/>
      <point x="417" y="79"/>
      <point x="443" y="109"/>
      <point x="468" y="162" type="curve" smooth="yes"/>
      <point x="470" y="166"/>
      <point x="476" y="168"/>
      <point x="483" y="168" type="curve" smooth="yes"/>
      <point x="492" y="168"/>
      <point x="503" y="165"/>
      <point x="505" y="162" type="curve"/>
      <point x="477" y="108"/>
      <point x="437" y="40"/>
    </contour>
  </outline>
</glyph>
<glyph name="eogonek" format="1">
  <advance width="363"/>
  <unicode hex="0119"/>
  <outline>
    <contour>
      <point x="105" y="218" type="curve"/>
      <point x="144" y="218"/>
      <point x="266" y="280"/>
      <point x="266" y="354" type="curve" smooth="yes"/>
      <point x="266" y="381"/>
      <point x="243" y="394"/>
      <point x="224" y="394" type="curve" smooth="yes"/>
      <point x="155" y="394"/>
      <point x="110" y="269"/>
    </contour>
    <contour>
      <point x="20" y="-180" type="curve" smooth="yes"/>
      <point x="19" y="-131"/>
      <point x="114" y="-30"/>
      <point x="141" y="-6" type="curve"/>
      <point x="138" y="-6"/>
      <point x="136" y="-6"/>
      <point x="133" y="-6" type="curve" smooth="yes"/>
      <point x="62" y="-6"/>
      <point x="23" y="46"/>
      <point x="23" y="139" type="curve" smooth="yes"/>
      <point x="23" y="287"/>
      <point x="159" y="435"/>
      <point x="274" y="435" type="curve" smooth="yes"/>
      <point x="325" y="435"/>
      <point x="340" y="403"/>
      <point x="340" y="373" type="curve" smooth="yes"/>
      <point x="340" y="277"/>
      <point x="165" y="193"/>
      <point x="103" y="193" type="curve"/>
      <point x="102" y="190"/>
      <point x="101" y="166"/>
      <point x="101" y="161" type="curve" smooth="yes"/>
      <point x="101" y="100"/>
      <point x="120" y="53"/>
      <point x="170" y="53" type="curve" smooth="yes"/>
      <point x="215" y="53"/>
      <point x="270" y="119"/>
      <point x="273" y="122" type="curve"/>
      <point x="276" y="122"/>
      <point x="285" y="108"/>
      <point x="285" y="102" type="curve"/>
      <point x="280" y="93"/>
      <point x="266" y="76"/>
      <point x="244" y="54" type="curve" smooth="yes"/>
      <point x="189" y="0"/>
      <point x="73" y="-99"/>
      <point x="73" y="-139" type="curve" smooth="yes"/>
      <point x="73" y="-154"/>
      <point x="79" y="-171"/>
      <point x="104" y="-171" type="curve" smooth="yes"/>
      <point x="151" y="-171"/>
      <point x="181" y="-133"/>
      <point x="187" y="-133" type="curve" smooth="yes"/>
      <point x="195" y="-133"/>
      <point x="184" y="-160"/>
      <point x="181" y="-163" type="curve" smooth="yes"/>
      <point x="155" y="-192"/>
      <point x="112" y="-230"/>
      <point x="70" y="-230" type="curve" smooth="yes"/>
      <point x="40" y="-230"/>
      <point x="20" y="-207"/>
    </contour>
  </outline>
</glyph>
<glyph name="Hbar" format="1">
  <advance width="686"/>
  <unicode hex="0126"/>
  <outline>
    <contour>
      <point x="116" y="506" type="curve"/>
      <point x="141" y="506"/>
      <point x="656" y="506"/>
      <point x="668" y="506" type="curve" smooth="yes"/>
      <point x="671" y="506"/>
      <point x="672" y="502"/>
      <point x="671" y="498" type="curve" smooth="yes"/>
      <point x="670" y="493"/>
      <point x="665" y="480"/>
      <point x="660" y="472" type="curve"/>
      <point x="635" y="472"/>
      <point x="119" y="472"/>
      <point x="107" y="472" type="curve" smooth="yes"/>
      <point x="104" y="472"/>
      <point x="104" y="479"/>
      <point x="105" y="483" type="curve" smooth="yes"/>
      <point x="106" y="488"/>
      <point x="109" y="498"/>
    </contour>
    <component base="H" xOffset="1"/>
  </outline>
</glyph>
<glyph name="hbar" format="1">
  <advance width="470"/>
  <unicode hex="0127"/>
  <outline>
    <contour>
      <point x="89" y="565" type="curve"/>
      <point x="114" y="565"/>
      <point x="306" y="565"/>
      <point x="318" y="565" type="curve" smooth="yes"/>
      <point x="321" y="565"/>
      <point x="322" y="561"/>
      <point x="321" y="557" type="curve" smooth="yes"/>
      <point x="320" y="552"/>
      <point x="315" y="539"/>
      <point x="310" y="531" type="curve"/>
      <point x="285" y="531"/>
      <point x="92" y="531"/>
      <point x="80" y="531" type="curve" smooth="yes"/>
      <point x="77" y="531"/>
      <point x="77" y="538"/>
      <point x="78" y="542" type="curve" smooth="yes"/>
      <point x="79" y="547"/>
      <point x="82" y="557"/>
    </contour>
    <component base="h"/>
  </outline>
</glyph>
<glyph name="iogonek" format="1">
  <advance width="263"/>
  <unicode hex="012F"/>
  <outline>
    <contour>
      <point x="168" y="646" type="curve" smooth="yes"/>
      <point x="189" y="646"/>
      <point x="204" y="627"/>
      <point x="204" y="606" type="curve" smooth="yes"/>
      <point x="204" y="575"/>
      <point x="181" y="546"/>
      <point x="150" y="546" type="curve" smooth="yes"/>
      <point x="128" y="546"/>
      <point x="116" y="567"/>
      <point x="116" y="589" type="curve" smooth="yes"/>
      <point x="116" y="619"/>
      <point x="138" y="646"/>
    </contour>
    <contour>
      <point x="218" y="88" type="curve"/>
      <point x="213" y="79"/>
      <point x="190" y="55"/>
      <point x="169" y="36" type="curve" smooth="yes"/>
      <point x="116" y="-12"/>
      <point x="58" y="-88"/>
      <point x="58" y="-139" type="curve" smooth="yes"/>
      <point x="58" y="-154"/>
      <point x="64" y="-171"/>
      <point x="89" y="-171" type="curve" smooth="yes"/>
      <point x="136" y="-171"/>
      <point x="166" y="-133"/>
      <point x="172" y="-133" type="curve" smooth="yes"/>
      <point x="180" y="-133"/>
      <point x="169" y="-160"/>
      <point x="166" y="-163" type="curve" smooth="yes"/>
      <point x="140" y="-192"/>
      <point x="97" y="-230"/>
      <point x="55" y="-230" type="curve" smooth="yes"/>
      <point x="25" y="-230"/>
      <point x="4" y="-207"/>
      <point x="4" y="-180" type="curve" smooth="yes"/>
      <point x="4" y="-130"/>
      <point x="61" y="-43"/>
      <point x="93" y="-6" type="curve"/>
      <point x="91" y="-6"/>
      <point x="89" y="-6"/>
      <point x="87" y="-6" type="curve" smooth="yes"/>
      <point x="66" y="-6"/>
      <point x="53" y="16"/>
      <point x="53" y="46" type="curve" smooth="yes"/>
      <point x="53" y="54"/>
      <point x="56" y="78"/>
      <point x="60" y="99" type="curve" smooth="yes"/>
      <point x="111" y="323" type="line" smooth="yes"/>
      <point x="112" y="329"/>
      <point x="115" y="350"/>
      <point x="115" y="355" type="curve" smooth="yes"/>
      <point x="115" y="364"/>
      <point x="115" y="380"/>
      <point x="105" y="380" type="curve" smooth="yes"/>
      <point x="84" y="380"/>
      <point x="38" y="325"/>
      <point x="35" y="322" type="curve"/>
      <point x="32" y="322"/>
      <point x="25" y="335"/>
      <point x="25" y="341" type="curve"/>
      <point x="36" y="360"/>
      <point x="104" y="435"/>
      <point x="151" y="435" type="curve" smooth="yes"/>
      <point x="172" y="435"/>
      <point x="190" y="413"/>
      <point x="190" y="383" type="curve" smooth="yes"/>
      <point x="190" y="375"/>
      <point x="187" y="351"/>
      <point x="183" y="330" type="curve" smooth="yes"/>
      <point x="132" y="106" type="line" smooth="yes"/>
      <point x="130" y="96"/>
      <point x="128" y="79"/>
      <point x="128" y="74" type="curve" smooth="yes"/>
      <point x="128" y="65"/>
      <point x="128" y="49"/>
      <point x="138" y="49" type="curve" smooth="yes"/>
      <point x="159" y="49"/>
      <point x="205" y="104"/>
      <point x="208" y="107" type="curve"/>
      <point x="211" y="107"/>
      <point x="218" y="94"/>
    </contour>
  </outline>
</glyph>
<glyph name="kgreenlandic" format="1">
  <advance width="482"/>
  <unicode hex="0138"/>
  <outline>
    <contour>
      <point x="107" y="323" type="line" smooth="yes"/>
      <point x="108" y="329"/>
      <point x="111" y="350"/>
      <point x="111" y="355" type="curve" smooth="yes"/>
      <point x="111" y="364"/>
      <point x="111" y="380"/>
      <point x="101" y="380" type="curve" smooth="yes"/>
      <point x="80" y="380"/>
      <point x="34" y="325"/>
      <point x="31" y="322" type="curve"/>
      <point x="28" y="322"/>
      <point x="21" y="335"/>
      <point x="21" y="341" type="curve"/>
      <point x="32" y="360"/>
      <point x="100" y="435"/>
      <point x="147" y="435" type="curve" smooth="yes"/>
      <point x="168" y="435"/>
      <point x="186" y="413"/>
      <point x="186" y="383" type="curve" smooth="yes"/>
      <point x="186" y="375"/>
      <point x="182" y="351"/>
      <point x="179" y="330" type="curve" smooth="yes"/>
      <point x="178" y="322" type="line"/>
      <point x="183" y="326"/>
      <point x="261" y="435"/>
      <point x="347" y="435" type="curve" smooth="yes"/>
      <point x="386" y="435"/>
      <point x="422" y="406"/>
      <point x="422" y="367" type="curve" smooth="yes"/>
      <point x="422" y="276"/>
      <point x="322" y="230"/>
      <point x="211" y="211" type="curve"/>
      <point x="299" y="79"/>
      <point x="327" y="51"/>
      <point x="368" y="51" type="curve" smooth="yes"/>
      <point x="385" y="51"/>
      <point x="425" y="93"/>
      <point x="436" y="107" type="curve"/>
      <point x="439" y="107"/>
      <point x="446" y="93"/>
      <point x="446" y="88" type="curve"/>
      <point x="438" y="74"/>
      <point x="368" y="-4"/>
      <point x="324" y="-4" type="curve" smooth="yes"/>
      <point x="245" y="-4"/>
      <point x="195" y="119"/>
      <point x="152" y="191" type="curve"/>
      <point x="115" y="0" type="line"/>
      <point x="104" y="-3"/>
      <point x="91" y="-5"/>
      <point x="80" y="-5" type="curve" smooth="yes"/>
      <point x="69" y="-5"/>
      <point x="56" y="-3"/>
      <point x="44" y="0" type="curve"/>
    </contour>
    <contour>
      <point x="311" y="388" type="curve" smooth="yes"/>
      <point x="253" y="388"/>
      <point x="172" y="291"/>
      <point x="160" y="230" type="curve"/>
      <point x="227" y="230"/>
      <point x="344" y="271"/>
      <point x="344" y="354" type="curve" smooth="yes"/>
      <point x="344" y="372"/>
      <point x="339" y="388"/>
    </contour>
  </outline>
</glyph>
<glyph name="lslash" format="1">
  <advance width="245"/>
  <unicode hex="0142"/>
  <outline>
    <contour>
      <point x="42" y="288" type="curve" smooth="yes"/>
      <point x="240" y="423" type="line"/>
      <point x="243" y="418"/>
      <point x="253" y="399"/>
      <point x="248" y="396" type="curve" smooth="yes"/>
      <point x="49" y="260" type="line"/>
      <point x="45" y="266"/>
      <point x="37" y="285"/>
    </contour>
    <component base="l"/>
  </outline>
</glyph>
<glyph name="Eng" format="1">
  <advance width="731"/>
  <unicode hex="014A"/>
  <outline>
    <contour>
      <point x="510" y="44" type="curve"/>
      <point x="226" y="569" type="line"/>
      <point x="138" y="115" type="line" smooth="yes"/>
      <point x="131" y="79"/>
      <point x="128" y="62"/>
      <point x="134" y="46" type="curve" smooth="yes"/>
      <point x="138" y="36"/>
      <point x="186" y="26"/>
      <point x="201" y="26" type="curve"/>
      <point x="204" y="19"/>
      <point x="200" y="3"/>
      <point x="197" y="-3" type="curve"/>
      <point x="160" y="-1"/>
      <point x="132" y="2"/>
      <point x="91" y="2" type="curve" smooth="yes"/>
      <point x="48" y="2"/>
      <point x="31" y="-1"/>
      <point x="-12" y="-3" type="curve"/>
      <point x="-14" y="2"/>
      <point x="-13" y="15"/>
      <point x="-6" y="26" type="curve"/>
      <point x="5" y="26"/>
      <point x="61" y="34"/>
      <point x="70" y="46" type="curve" smooth="yes"/>
      <point x="81" y="61"/>
      <point x="86" y="76"/>
      <point x="93" y="114" type="curve" smooth="yes"/>
      <point x="177" y="548" type="line" smooth="yes"/>
      <point x="184" y="586"/>
      <point x="186" y="601"/>
      <point x="181" y="616" type="curve" smooth="yes"/>
      <point x="177" y="628"/>
      <point x="124" y="636"/>
      <point x="113" y="636" type="curve"/>
      <point x="110" y="647"/>
      <point x="114" y="660"/>
      <point x="118" y="665" type="curve"/>
      <point x="160" y="663"/>
      <point x="183" y="660"/>
      <point x="214" y="660" type="curve" smooth="yes"/>
      <point x="242" y="660"/>
      <point x="272" y="661"/>
      <point x="285" y="662" type="curve"/>
      <point x="317" y="582"/>
      <point x="480" y="321"/>
      <point x="553" y="166" type="curve"/>
      <point x="627" y="545" type="line" smooth="yes"/>
      <point x="634" y="581"/>
      <point x="637" y="598"/>
      <point x="631" y="614" type="curve" smooth="yes"/>
      <point x="627" y="624"/>
      <point x="579" y="634"/>
      <point x="564" y="634" type="curve"/>
      <point x="561" y="641"/>
      <point x="565" y="657"/>
      <point x="568" y="663" type="curve"/>
      <point x="605" y="661"/>
      <point x="633" y="658"/>
      <point x="674" y="658" type="curve" smooth="yes"/>
      <point x="717" y="658"/>
      <point x="733" y="661"/>
      <point x="776" y="663" type="curve"/>
      <point x="778" y="658"/>
      <point x="778" y="645"/>
      <point x="771" y="634" type="curve"/>
      <point x="760" y="634"/>
      <point x="703" y="626"/>
      <point x="694" y="614" type="curve" smooth="yes"/>
      <point x="683" y="599"/>
      <point x="679" y="584"/>
      <point x="672" y="546" type="curve" smooth="yes"/>
      <point x="589" y="116" type="line" smooth="yes"/>
      <point x="538" y="-148"/>
      <point x="400" y="-233"/>
      <point x="320" y="-233" type="curve"/>
      <point x="318" y="-230"/>
      <point x="317" y="-225"/>
      <point x="317" y="-220" type="curve" smooth="yes"/>
      <point x="317" y="-218"/>
      <point x="318" y="-214"/>
      <point x="318" y="-214" type="curve"/>
      <point x="418" y="-183"/>
      <point x="481" y="-68"/>
    </contour>
  </outline>
</glyph>
<glyph name="Uogonek" format="1">
  <advance width="682"/>
  <unicode hex="0172"/>
  <outline>
    <contour>
      <point x="271" y="-139" type="curve" smooth="yes"/>
      <point x="271" y="-154"/>
      <point x="277" y="-171"/>
      <point x="302" y="-171" type="curve" smooth="yes"/>
      <point x="349" y="-171"/>
      <point x="379" y="-133"/>
      <point x="385" y="-133" type="curve" smooth="yes"/>
      <point x="393" y="-133"/>
      <point x="382" y="-160"/>
      <point x="379" y="-163" type="curve" smooth="yes"/>
      <point x="353" y="-192"/>
      <point x="310" y="-230"/>
      <point x="268" y="-230" type="curve" smooth="yes"/>
      <point x="238" y="-230"/>
      <point x="217" y="-202"/>
      <point x="217" y="-175" type="curve" smooth="yes"/>
      <point x="217" y="-124"/>
      <point x="286" y="-41"/>
      <point x="340" y="0" type="curve"/>
      <point x="322" y="-3"/>
      <point x="303" y="-4"/>
      <point x="284" y="-4" type="curve" smooth="yes"/>
      <point x="211" y="-4"/>
      <point x="154" y="24"/>
      <point x="122" y="74" type="curve" smooth="yes"/>
      <point x="94" y="118"/>
      <point x="85" y="178"/>
      <point x="99" y="251" type="curve" smooth="yes"/>
      <point x="156" y="543" type="line" smooth="yes"/>
      <point x="162" y="573"/>
      <point x="168" y="601"/>
      <point x="166" y="617" type="curve" smooth="yes"/>
      <point x="165" y="628"/>
      <point x="116" y="633"/>
      <point x="105" y="633" type="curve"/>
      <point x="102" y="638"/>
      <point x="105" y="657"/>
      <point x="111" y="662" type="curve"/>
      <point x="149" y="660"/>
      <point x="183" y="657"/>
      <point x="219" y="657" type="curve" smooth="yes"/>
      <point x="255" y="657"/>
      <point x="290" y="660"/>
      <point x="329" y="662" type="curve"/>
      <point x="333" y="657"/>
      <point x="328" y="638"/>
      <point x="323" y="633" type="curve"/>
      <point x="312" y="633"/>
      <point x="261" y="628"/>
      <point x="256" y="617" type="curve" smooth="yes"/>
      <point x="248" y="601"/>
      <point x="243" y="573"/>
      <point x="237" y="543" type="curve" smooth="yes"/>
      <point x="189" y="296" type="line" smooth="yes"/>
      <point x="174" y="219"/>
      <point x="175" y="162"/>
      <point x="193" y="122" type="curve" smooth="yes"/>
      <point x="213" y="76"/>
      <point x="255" y="54"/>
      <point x="315" y="54" type="curve" smooth="yes"/>
      <point x="411" y="54"/>
      <point x="502" y="102"/>
      <point x="538" y="274" type="curve"/>
      <point x="591" y="545" type="line" smooth="yes"/>
      <point x="598" y="581"/>
      <point x="601" y="598"/>
      <point x="595" y="614" type="curve" smooth="yes"/>
      <point x="591" y="624"/>
      <point x="547" y="634"/>
      <point x="532" y="634" type="curve"/>
      <point x="529" y="641"/>
      <point x="533" y="657"/>
      <point x="536" y="663" type="curve"/>
      <point x="573" y="661"/>
      <point x="597" y="658"/>
      <point x="638" y="658" type="curve" smooth="yes"/>
      <point x="681" y="658"/>
      <point x="697" y="661"/>
      <point x="740" y="663" type="curve"/>
      <point x="742" y="658"/>
      <point x="742" y="645"/>
      <point x="735" y="634" type="curve"/>
      <point x="724" y="634"/>
      <point x="667" y="626"/>
      <point x="658" y="614" type="curve" smooth="yes"/>
      <point x="647" y="599"/>
      <point x="643" y="584"/>
      <point x="636" y="546" type="curve" smooth="yes"/>
      <point x="583" y="276" type="line" smooth="yes"/>
      <point x="560" y="161"/>
      <point x="512" y="87"/>
      <point x="449" y="43" type="curve" smooth="yes"/>
      <point x="366" y="-15"/>
      <point x="271" y="-91"/>
    </contour>
  </outline>
</glyph>
<glyph name="longs" format="1">
  <advance width="296"/>
  <unicode hex="017F"/>
  <outline>
    <contour>
      <point x="129" y="413" type="line"/>
      <point x="161" y="577"/>
      <point x="256" y="685"/>
      <point x="336" y="685" type="curve" smooth="yes"/>
      <point x="365" y="685"/>
      <point x="383" y="673"/>
      <point x="390" y="660" type="curve"/>
      <point x="390" y="657"/>
      <point x="390" y="654"/>
      <point x="390" y="651" type="curve" smooth="yes"/>
      <point x="388" y="628"/>
      <point x="379" y="604"/>
      <point x="360" y="604" type="curve" smooth="yes"/>
      <point x="343" y="604"/>
      <point x="333" y="615"/>
      <point x="322" y="627" type="curve" smooth="yes"/>
      <point x="315" y="634"/>
      <point x="307" y="642"/>
      <point x="293" y="642" type="curve" smooth="yes"/>
      <point x="250" y="642"/>
      <point x="223" y="527"/>
      <point x="196" y="376" type="curve" smooth="yes"/>
      <point x="196" y="376"/>
      <point x="161" y="169"/>
      <point x="137" y="43" type="curve" smooth="yes"/>
      <point x="105" y="-121"/>
      <point x="10" y="-233"/>
      <point x="-70" y="-233" type="curve" smooth="yes"/>
      <point x="-99" y="-233"/>
      <point x="-117" y="-221"/>
      <point x="-124" y="-208" type="curve"/>
      <point x="-124" y="-203"/>
      <point x="-124" y="-197"/>
      <point x="-123" y="-192" type="curve" smooth="yes"/>
      <point x="-120" y="-171"/>
      <point x="-111" y="-152"/>
      <point x="-94" y="-152" type="curve" smooth="yes"/>
      <point x="-77" y="-152"/>
      <point x="-67" y="-163"/>
      <point x="-56" y="-175" type="curve" smooth="yes"/>
      <point x="-49" y="-182"/>
      <point x="-41" y="-190"/>
      <point x="-27" y="-190" type="curve" smooth="yes"/>
      <point x="12" y="-190"/>
      <point x="32" y="-120"/>
      <point x="63" y="39" type="curve"/>
    </contour>
  </outline>
</glyph>
<glyph name="ohorn" format="1">
  <advance width="414"/>
  <unicode hex="01A1"/>
  <outline>
    <contour>
      <point x="237" y="403" type="curve" smooth="yes"/>
      <point x="153" y="403"/>
      <point x="102" y="258"/>
      <point x="102" y="158" type="curve" smooth="yes"/>
      <point x="102" y="78"/>
      <point x="123" y="27"/>
      <point x="159" y="27" type="curve" smooth="yes"/>
      <point x="242" y="27"/>
      <point x="290" y="173"/>
      <point x="290" y="273" type="curve" smooth="yes"/>
      <point x="290" y="353"/>
      <point x="273" y="403"/>
    </contour>
    <contour>
      <point x="374" y="381" type="curve" smooth="yes"/>
      <point x="391" y="381"/>
      <point x="404" y="389"/>
      <point x="404" y="407" type="curve" smooth="yes"/>
      <point x="404" y="420"/>
      <point x="398" y="434"/>
      <point x="398" y="444" type="curve" smooth="yes"/>
      <point x="398" y="464"/>
      <point x="416" y="481"/>
      <point x="437" y="481" type="curve" smooth="yes"/>
      <point x="449" y="481"/>
      <point x="459" y="478"/>
      <point x="468" y="473" type="curve"/>
      <point x="470" y="467"/>
      <point x="472" y="457"/>
      <point x="472" y="449" type="curve" smooth="yes"/>
      <point x="472" y="396"/>
      <point x="426" y="353"/>
      <point x="376" y="353" type="curve" smooth="yes"/>
      <point x="370" y="353"/>
      <point x="364" y="354"/>
      <point x="359" y="355" type="curve"/>
      <point x="365" y="335"/>
      <point x="368" y="313"/>
      <point x="368" y="288" type="curve" smooth="yes"/>
      <point x="368" y="148"/>
      <point x="255" y="-5"/>
      <point x="140" y="-5" type="curve" smooth="yes"/>
      <point x="60" y="-5"/>
      <point x="24" y="52"/>
      <point x="24" y="138" type="curve" smooth="yes"/>
      <point x="24" y="278"/>
      <point x="136" y="435"/>
      <point x="251" y="435" type="curve" smooth="yes"/>
      <point x="275" y="435"/>
      <point x="297" y="430"/>
      <point x="320" y="414" type="curve" smooth="yes"/>
      <point x="340" y="400"/>
      <point x="351" y="381"/>
    </contour>
  </outline>
</glyph>
<glyph name="Uhorn" format="1">
  <advance width="661"/>
  <unicode hex="01AF"/>
  <outline>
    <contour>
      <point x="641" y="613" type="curve" smooth="yes"/>
      <point x="629" y="600"/>
      <point x="622" y="584"/>
      <point x="615" y="546" type="curve" smooth="yes"/>
      <point x="562" y="276" type="line" smooth="yes"/>
      <point x="523" y="76"/>
      <point x="428" y="-4"/>
      <point x="283" y="-4" type="curve" smooth="yes"/>
      <point x="213" y="-4"/>
      <point x="158" y="22"/>
      <point x="125" y="68" type="curve" smooth="yes"/>
      <point x="94" y="112"/>
      <point x="83" y="174"/>
      <point x="98" y="251" type="curve" smooth="yes"/>
      <point x="155" y="543" type="line" smooth="yes"/>
      <point x="161" y="573"/>
      <point x="167" y="601"/>
      <point x="165" y="617" type="curve" smooth="yes"/>
      <point x="164" y="628"/>
      <point x="115" y="633"/>
      <point x="104" y="633" type="curve"/>
      <point x="101" y="638"/>
      <point x="104" y="657"/>
      <point x="110" y="662" type="curve"/>
      <point x="148" y="660"/>
      <point x="182" y="657"/>
      <point x="218" y="657" type="curve" smooth="yes"/>
      <point x="254" y="657"/>
      <point x="289" y="660"/>
      <point x="328" y="662" type="curve"/>
      <point x="332" y="657"/>
      <point x="327" y="638"/>
      <point x="322" y="633" type="curve"/>
      <point x="311" y="633"/>
      <point x="260" y="628"/>
      <point x="255" y="617" type="curve" smooth="yes"/>
      <point x="247" y="601"/>
      <point x="242" y="573"/>
      <point x="236" y="543" type="curve" smooth="yes"/>
      <point x="188" y="296" type="line" smooth="yes"/>
      <point x="173" y="218"/>
      <point x="174" y="159"/>
      <point x="193" y="120" type="curve" smooth="yes"/>
      <point x="215" y="76"/>
      <point x="255" y="54"/>
      <point x="314" y="54" type="curve" smooth="yes"/>
      <point x="410" y="54"/>
      <point x="483" y="102"/>
      <point x="519" y="274" type="curve" smooth="yes"/>
      <point x="572" y="545" type="line" smooth="yes"/>
      <point x="579" y="581"/>
      <point x="582" y="598"/>
      <point x="576" y="614" type="curve" smooth="yes"/>
      <point x="572" y="624"/>
      <point x="528" y="634"/>
      <point x="513" y="634" type="curve"/>
      <point x="510" y="641"/>
      <point x="514" y="657"/>
      <point x="517" y="663" type="curve"/>
      <point x="554" y="661"/>
      <point x="576" y="658"/>
      <point x="617" y="658" type="curve" smooth="yes"/>
      <point x="654" y="658"/>
      <point x="707" y="663"/>
      <point x="707" y="684" type="curve" smooth="yes"/>
      <point x="707" y="693"/>
      <point x="700" y="701"/>
      <point x="698" y="705" type="curve" smooth="yes"/>
      <point x="695" y="712"/>
      <point x="691" y="716"/>
      <point x="691" y="727" type="curve" smooth="yes"/>
      <point x="691" y="751"/>
      <point x="721" y="765"/>
      <point x="740" y="765" type="curve" smooth="yes"/>
      <point x="749" y="765"/>
      <point x="757" y="763"/>
      <point x="762" y="761" type="curve"/>
      <point x="769" y="749"/>
      <point x="772" y="739"/>
      <point x="772" y="727" type="curve" smooth="yes"/>
      <point x="772" y="675"/>
      <point x="715" y="637"/>
      <point x="672" y="627" type="curve" smooth="yes"/>
      <point x="663" y="625"/>
      <point x="647" y="620"/>
    </contour>
  </outline>
</glyph>
<glyph name="uhorn" format="1">
  <advance width="491"/>
  <unicode hex="01B0"/>
  <outline>
    <contour>
      <point x="422" y="435" type="curve" smooth="yes"/>
      <point x="439" y="435"/>
      <point x="464" y="445"/>
      <point x="464" y="463" type="curve" smooth="yes"/>
      <point x="464" y="476"/>
      <point x="458" y="490"/>
      <point x="458" y="500" type="curve" smooth="yes"/>
      <point x="458" y="520"/>
      <point x="476" y="537"/>
      <point x="497" y="537" type="curve" smooth="yes"/>
      <point x="509" y="537"/>
      <point x="519" y="534"/>
      <point x="528" y="529" type="curve"/>
      <point x="530" y="523"/>
      <point x="532" y="513"/>
      <point x="532" y="505" type="curve" smooth="yes"/>
      <point x="532" y="452"/>
      <point x="486" y="409"/>
      <point x="436" y="409" type="curve" smooth="yes"/>
      <point x="427" y="409"/>
      <point x="421" y="406"/>
      <point x="420" y="399" type="curve" smooth="yes"/>
      <point x="398" y="286"/>
      <point x="364" y="106"/>
      <point x="364" y="106" type="curve" smooth="yes"/>
      <point x="362" y="96"/>
      <point x="360" y="79"/>
      <point x="360" y="74" type="curve" smooth="yes"/>
      <point x="360" y="65"/>
      <point x="360" y="49"/>
      <point x="370" y="49" type="curve" smooth="yes"/>
      <point x="391" y="49"/>
      <point x="437" y="104"/>
      <point x="440" y="107" type="curve"/>
      <point x="443" y="107"/>
      <point x="450" y="94"/>
      <point x="450" y="88" type="curve"/>
      <point x="439" y="69"/>
      <point x="366" y="-6"/>
      <point x="319" y="-6" type="curve" smooth="yes"/>
      <point x="298" y="-6"/>
      <point x="285" y="16"/>
      <point x="285" y="46" type="curve" smooth="yes"/>
      <point x="285" y="54"/>
      <point x="288" y="78"/>
      <point x="292" y="99" type="curve" smooth="yes"/>
      <point x="298" y="133"/>
      <point x="303" y="152"/>
      <point x="310" y="186" type="curve"/>
      <point x="284" y="130"/>
      <point x="175" y="-6"/>
      <point x="109" y="-6" type="curve" smooth="yes"/>
      <point x="70" y="-6"/>
      <point x="59" y="28"/>
      <point x="59" y="66" type="curve" smooth="yes"/>
      <point x="59" y="94"/>
      <point x="67" y="140"/>
      <point x="73" y="169" type="curve" smooth="yes"/>
      <point x="106" y="323" type="line" smooth="yes"/>
      <point x="107" y="329"/>
      <point x="110" y="350"/>
      <point x="110" y="355" type="curve" smooth="yes"/>
      <point x="110" y="364"/>
      <point x="110" y="380"/>
      <point x="100" y="380" type="curve" smooth="yes"/>
      <point x="79" y="380"/>
      <point x="33" y="325"/>
      <point x="30" y="322" type="curve"/>
      <point x="27" y="322"/>
      <point x="20" y="335"/>
      <point x="20" y="341" type="curve"/>
      <point x="31" y="360"/>
      <point x="99" y="435"/>
      <point x="146" y="435" type="curve" smooth="yes"/>
      <point x="167" y="435"/>
      <point x="185" y="413"/>
      <point x="185" y="383" type="curve" smooth="yes"/>
      <point x="185" y="375"/>
      <point x="182" y="351"/>
      <point x="178" y="330" type="curve" smooth="yes"/>
      <point x="143" y="165" type="line" smooth="yes"/>
      <point x="141" y="156"/>
      <point x="136" y="122"/>
      <point x="136" y="111" type="curve" smooth="yes"/>
      <point x="136" y="88"/>
      <point x="138" y="68"/>
      <point x="155" y="68" type="curve" smooth="yes"/>
      <point x="191" y="68"/>
      <point x="310" y="194"/>
      <point x="334" y="319" type="curve" smooth="yes"/>
      <point x="342" y="360"/>
      <point x="348" y="387"/>
      <point x="356" y="429" type="curve"/>
      <point x="366" y="432"/>
      <point x="404" y="435"/>
    </contour>
  </outline>
</glyph>
<glyph name="uni0237" format="1">
  <advance width="249"/>
  <unicode hex="0237"/>
  <outline>
    <contour>
      <point x="117" y="323" type="line" smooth="yes"/>
      <point x="118" y="329"/>
      <point x="121" y="350"/>
      <point x="121" y="355" type="curve" smooth="yes"/>
      <point x="121" y="364"/>
      <point x="121" y="380"/>
      <point x="111" y="380" type="curve" smooth="yes"/>
      <point x="90" y="380"/>
      <point x="44" y="325"/>
      <point x="41" y="322" type="curve"/>
      <point x="38" y="322"/>
      <point x="31" y="335"/>
      <point x="31" y="341" type="curve"/>
      <point x="42" y="360"/>
      <point x="110" y="435"/>
      <point x="157" y="435" type="curve" smooth="yes"/>
      <point x="178" y="435"/>
      <point x="196" y="413"/>
      <point x="196" y="383" type="curve" smooth="yes"/>
      <point x="196" y="375"/>
      <point x="193" y="351"/>
      <point x="189" y="330" type="curve" smooth="yes"/>
      <point x="134" y="45" type="line" smooth="yes"/>
      <point x="127" y="9"/>
      <point x="106" y="-67"/>
      <point x="63" y="-124" type="curve" smooth="yes"/>
      <point x="21" y="-179"/>
      <point x="-41" y="-221"/>
      <point x="-76" y="-235" type="curve"/>
      <point x="-80" y="-232"/>
      <point x="-85" y="-222"/>
      <point x="-85" y="-215" type="curve"/>
      <point x="-18" y="-177"/>
      <point x="35" y="-89"/>
      <point x="57" y="22" type="curve" smooth="yes"/>
    </contour>
  </outline>
</glyph>
<glyph name="uni02BF" format="1">
  <advance width="195"/>
  <unicode hex="02BF"/>
  <outline>
    <contour>
      <point x="132" y="472" type="curve"/>
      <point x="134" y="458"/>
      <point x="134" y="447"/>
      <point x="129" y="438" type="curve"/>
      <point x="56" y="438"/>
      <point x="6" y="499"/>
      <point x="20" y="569" type="curve" smooth="yes"/>
      <point x="34" y="639"/>
      <point x="103" y="698"/>
      <point x="177" y="698" type="curve"/>
      <point x="182" y="685"/>
      <point x="178" y="670"/>
      <point x="174" y="664" type="curve"/>
      <point x="119" y="664"/>
      <point x="82" y="623"/>
      <point x="71" y="568" type="curve" smooth="yes"/>
      <point x="61" y="517"/>
      <point x="85" y="472"/>
    </contour>
  </outline>
</glyph>
<glyph name="gravecomb" format="1">
  <advance width="0"/>
  <unicode hex="0300"/>
  <outline>
    <contour>
      <point x="-192" y="490" type="curve" smooth="yes"/>
      <point x="-207" y="490"/>
      <point x="-355" y="572"/>
      <point x="-355" y="591" type="curve" smooth="yes"/>
      <point x="-355" y="614"/>
      <point x="-329" y="621"/>
      <point x="-316" y="621" type="curve" smooth="yes"/>
      <point x="-301" y="621"/>
      <point x="-289" y="618"/>
      <point x="-279" y="611" type="curve" smooth="yes"/>
      <point x="-266" y="602"/>
      <point x="-184" y="508"/>
      <point x="-184" y="500" type="curve" smooth="yes"/>
      <point x="-184" y="497"/>
      <point x="-189" y="490"/>
    </contour>
  </outline>
</glyph>
<glyph name="acutecomb" format="1">
  <advance width="0"/>
  <unicode hex="0301"/>
  <outline>
    <contour>
      <point x="-325" y="490" type="curve" smooth="yes"/>
      <point x="-328" y="490"/>
      <point x="-333" y="497"/>
      <point x="-333" y="500" type="curve" smooth="yes"/>
      <point x="-333" y="508"/>
      <point x="-251" y="602"/>
      <point x="-238" y="611" type="curve" smooth="yes"/>
      <point x="-228" y="618"/>
      <point x="-216" y="621"/>
      <point x="-201" y="621" type="curve" smooth="yes"/>
      <point x="-188" y="621"/>
      <point x="-162" y="614"/>
      <point x="-162" y="591" type="curve" smooth="yes"/>
      <point x="-162" y="572"/>
      <point x="-310" y="490"/>
    </contour>
  </outline>
</glyph>
<glyph name="uni0305" format="1">
  <advance width="0"/>
  <unicode hex="0305"/>
  <outline>
    <contour>
      <point x="129" y="749" type="curve" smooth="yes"/>
      <point x="129" y="751"/>
      <point x="142" y="802"/>
      <point x="152" y="802" type="curve" smooth="yes"/>
      <point x="694" y="802" type="line" smooth="yes"/>
      <point x="696" y="802"/>
      <point x="699" y="801"/>
      <point x="697" y="793" type="curve" smooth="yes"/>
      <point x="694" y="775"/>
      <point x="683" y="750"/>
      <point x="681" y="746" type="curve" smooth="yes"/>
      <point x="678" y="740"/>
      <point x="672" y="739"/>
      <point x="672" y="739" type="curve"/>
      <point x="133" y="739" type="line"/>
      <point x="133" y="739"/>
      <point x="127" y="739"/>
    </contour>
  </outline>
</glyph>
<glyph name="uni0306" format="1">
  <advance width="0"/>
  <unicode hex="0306"/>
  <outline>
    <contour>
      <point x="-132" y="600" type="curve"/>
      <point x="-132" y="597"/>
      <point x="-133" y="592"/>
      <point x="-134" y="590" type="curve" smooth="yes"/>
      <point x="-153" y="537"/>
      <point x="-204" y="490"/>
      <point x="-254" y="490" type="curve" smooth="yes"/>
      <point x="-304" y="490"/>
      <point x="-338" y="534"/>
      <point x="-335" y="591" type="curve" smooth="yes"/>
      <point x="-335" y="593"/>
      <point x="-334" y="598"/>
      <point x="-334" y="599" type="curve"/>
      <point x="-331" y="604"/>
      <point x="-319" y="613"/>
      <point x="-312" y="608" type="curve"/>
      <point x="-311" y="565"/>
      <point x="-284" y="536"/>
      <point x="-245" y="536" type="curve" smooth="yes"/>
      <point x="-206" y="536"/>
      <point x="-168" y="565"/>
      <point x="-150" y="608" type="curve"/>
      <point x="-146" y="612"/>
      <point x="-134" y="606"/>
    </contour>
  </outline>
</glyph>
<glyph name="uni0307" format="1">
  <advance width="0"/>
  <unicode hex="0307"/>
  <outline>
    <contour>
      <point x="-298" y="540" type="curve" smooth="yes"/>
      <point x="-293" y="568"/>
      <point x="-267" y="590"/>
      <point x="-241" y="590" type="curve" smooth="yes"/>
      <point x="-215" y="590"/>
      <point x="-200" y="568"/>
      <point x="-205" y="540" type="curve" smooth="yes"/>
      <point x="-210" y="512"/>
      <point x="-235" y="490"/>
      <point x="-261" y="490" type="curve" smooth="yes"/>
      <point x="-287" y="490"/>
      <point x="-303" y="512"/>
    </contour>
  </outline>
</glyph>
<glyph name="uni030A" format="1">
  <advance width="0"/>
  <unicode hex="030A"/>
  <outline>
    <contour>
      <point x="-300" y="580" type="curve" smooth="yes"/>
      <point x="-306" y="549"/>
      <point x="-288" y="524"/>
      <point x="-260" y="524" type="curve" smooth="yes"/>
      <point x="-232" y="524"/>
      <point x="-204" y="549"/>
      <point x="-198" y="580" type="curve" smooth="yes"/>
      <point x="-192" y="611"/>
      <point x="-210" y="635"/>
      <point x="-238" y="635" type="curve" smooth="yes"/>
      <point x="-266" y="635"/>
      <point x="-294" y="611"/>
    </contour>
    <contour>
      <point x="-331" y="580" type="curve" smooth="yes"/>
      <point x="-321" y="629"/>
      <point x="-276" y="669"/>
      <point x="-231" y="669" type="curve" smooth="yes"/>
      <point x="-186" y="669"/>
      <point x="-158" y="629"/>
      <point x="-168" y="580" type="curve" smooth="yes"/>
      <point x="-178" y="531"/>
      <point x="-221" y="490"/>
      <point x="-266" y="490" type="curve" smooth="yes"/>
      <point x="-311" y="490"/>
      <point x="-341" y="531"/>
    </contour>
  </outline>
</glyph>
<glyph name="uni0312" format="1">
  <advance width="0"/>
  <unicode hex="0312"/>
  <outline>
    <contour>
      <point x="210" y="513" type="curve" smooth="yes"/>
      <point x="210" y="481"/>
      <point x="163" y="458"/>
      <point x="124" y="458" type="curve"/>
      <point x="111" y="468"/>
      <point x="111" y="491"/>
      <point x="111" y="499" type="curve" smooth="yes"/>
      <point x="111" y="554"/>
      <point x="172" y="618"/>
      <point x="205" y="636" type="curve"/>
      <point x="206" y="637"/>
      <point x="209" y="638"/>
      <point x="213" y="638" type="curve" smooth="yes"/>
      <point x="225" y="638"/>
      <point x="231" y="634"/>
      <point x="231" y="631" type="curve" smooth="yes"/>
      <point x="231" y="625"/>
      <point x="188" y="611"/>
      <point x="180" y="570" type="curve" smooth="yes"/>
      <point x="174" y="540"/>
      <point x="210" y="539"/>
    </contour>
  </outline>
</glyph>
<glyph name="uni0328" format="1">
  <advance width="0"/>
  <unicode hex="0328"/>
  <outline>
    <contour>
      <point x="-72" y="42" type="curve" smooth="yes"/>
      <point x="-56" y="42"/>
      <point x="-35" y="37"/>
      <point x="-48" y="25" type="curve" smooth="yes"/>
      <point x="-74" y="3"/>
      <point x="-184" y="-52"/>
      <point x="-196" y="-116" type="curve" smooth="yes"/>
      <point x="-199" y="-131"/>
      <point x="-198" y="-159"/>
      <point x="-166" y="-159" type="curve" smooth="yes"/>
      <point x="-119" y="-159"/>
      <point x="-89" y="-121"/>
      <point x="-83" y="-121" type="curve" smooth="yes"/>
      <point x="-82" y="-121"/>
      <point x="-79" y="-126"/>
      <point x="-81" y="-134" type="curve" smooth="yes"/>
      <point x="-82" y="-139"/>
      <point x="-85" y="-147"/>
      <point x="-89" y="-151" type="curve" smooth="yes"/>
      <point x="-115" y="-180"/>
      <point x="-158" y="-218"/>
      <point x="-200" y="-218" type="curve" smooth="yes"/>
      <point x="-252" y="-218"/>
      <point x="-256" y="-168"/>
      <point x="-251" y="-141" type="curve" smooth="yes"/>
      <point x="-238" y="-75"/>
      <point x="-99" y="42"/>
    </contour>
  </outline>
</glyph>
<glyph name="tonos" format="1">
  <advance width="174"/>
  <unicode hex="0384"/>
  <outline>
    <contour>
      <point x="252" y="704" type="curve" smooth="yes"/>
      <point x="272" y="704"/>
      <point x="274" y="692"/>
      <point x="272" y="681" type="curve" smooth="yes"/>
      <point x="262" y="631"/>
      <point x="151" y="496"/>
      <point x="143" y="493" type="curve" smooth="yes"/>
      <point x="142" y="493"/>
      <point x="141" y="493"/>
      <point x="140" y="493" type="curve" smooth="yes"/>
      <point x="136" y="493"/>
      <point x="130" y="497"/>
      <point x="131" y="502" type="curve" smooth="yes"/>
      <point x="133" y="511"/>
      <point x="174" y="622"/>
      <point x="204" y="679" type="curve" smooth="yes"/>
      <point x="210" y="689"/>
      <point x="235" y="704"/>
    </contour>
  </outline>
</glyph>
<glyph name="Beta" format="1">
  <advance width="480"/>
  <unicode hex="0392"/>
  <outline>
    <contour>
      <point x="126" y="603" type="curve"/>
      <point x="122" y="620"/>
      <point x="111" y="636"/>
      <point x="99" y="642" type="curve"/>
      <point x="100" y="649"/>
      <point x="106" y="658"/>
      <point x="112" y="661" type="curve"/>
      <point x="158" y="658"/>
      <point x="173" y="658"/>
      <point x="213" y="658" type="curve" smooth="yes"/>
      <point x="375" y="658"/>
      <point x="458" y="607"/>
      <point x="438" y="502" type="curve" smooth="yes"/>
      <point x="420" y="407"/>
      <point x="338" y="369"/>
      <point x="311" y="360" type="curve"/>
      <point x="347" y="349"/>
      <point x="442" y="304"/>
      <point x="419" y="188" type="curve" smooth="yes"/>
      <point x="406" y="121"/>
      <point x="350" y="0"/>
      <point x="151" y="-3" type="curve" smooth="yes"/>
      <point x="120" y="-3"/>
      <point x="176" y="-5"/>
      <point x="64" y="-5" type="curve" smooth="yes"/>
      <point x="47" y="-5"/>
      <point x="4" y="-9"/>
      <point x="-7" y="20" type="curve"/>
      <point x="9" y="38"/>
      <point x="33" y="102"/>
      <point x="44" y="157" type="curve" smooth="yes"/>
      <point x="77" y="329"/>
      <point x="126" y="603"/>
    </contour>
    <contour>
      <point x="218" y="327" type="curve" smooth="yes"/>
      <point x="193" y="327"/>
      <point x="194" y="329"/>
      <point x="140" y="326" type="curve"/>
      <point x="134" y="294"/>
      <point x="125" y="246"/>
      <point x="123" y="232" type="curve" smooth="yes"/>
      <point x="110" y="162"/>
      <point x="93" y="67"/>
      <point x="96" y="46" type="curve"/>
      <point x="111" y="39"/>
      <point x="112" y="36"/>
      <point x="146" y="36" type="curve" smooth="yes"/>
      <point x="216" y="36"/>
      <point x="315" y="64"/>
      <point x="337" y="175" type="curve" smooth="yes"/>
      <point x="354" y="261"/>
      <point x="312" y="327"/>
    </contour>
    <contour>
      <point x="265" y="618" type="curve" smooth="yes"/>
      <point x="247" y="619"/>
      <point x="219" y="617"/>
      <point x="202" y="609" type="curve"/>
      <point x="189" y="569"/>
      <point x="169" y="468"/>
      <point x="150" y="367" type="curve"/>
      <point x="154" y="367"/>
      <point x="172" y="364"/>
      <point x="181" y="364" type="curve" smooth="yes"/>
      <point x="302" y="364"/>
      <point x="355" y="433"/>
      <point x="368" y="498" type="curve" smooth="yes"/>
      <point x="384" y="579"/>
      <point x="351" y="618"/>
    </contour>
  </outline>
</glyph>
<glyph name="Gamma" format="1">
  <advance width="412"/>
  <unicode hex="0393"/>
  <outline>
    <contour>
      <point x="168" y="610" type="curve"/>
      <point x="159" y="564"/>
      <point x="110" y="289"/>
      <point x="99" y="230" type="curve" smooth="yes"/>
      <point x="86" y="160"/>
      <point x="64" y="22"/>
      <point x="67" y="1" type="curve"/>
      <point x="59" y="-9"/>
      <point x="50" y="-16"/>
      <point x="41" y="-16" type="curve" smooth="yes"/>
      <point x="35" y="-16"/>
      <point x="-9" y="5"/>
      <point x="-6" y="20" type="curve" smooth="yes"/>
      <point x="106" y="603" type="line"/>
      <point x="100" y="624"/>
      <point x="69" y="639"/>
      <point x="50" y="644" type="curve"/>
      <point x="51" y="651"/>
      <point x="57" y="660"/>
      <point x="63" y="663" type="curve"/>
      <point x="109" y="660"/>
      <point x="137" y="658"/>
      <point x="184" y="658" type="curve" smooth="yes"/>
      <point x="279" y="658"/>
      <point x="323" y="662"/>
      <point x="427" y="664" type="curve"/>
      <point x="427" y="664"/>
      <point x="451" y="583"/>
      <point x="454" y="532" type="curve"/>
      <point x="447" y="522"/>
      <point x="443" y="520"/>
      <point x="434" y="518" type="curve"/>
      <point x="396" y="597"/>
      <point x="359" y="618"/>
      <point x="283" y="618" type="curve" smooth="yes"/>
      <point x="236" y="618"/>
      <point x="208" y="615"/>
    </contour>
  </outline>
</glyph>
<glyph name="uni0394" format="1">
  <advance width="583"/>
  <unicode hex="0394"/>
  <outline>
    <contour>
      <point x="430" y="63" type="curve"/>
      <point x="402" y="181"/>
      <point x="362" y="366"/>
      <point x="334" y="529" type="curve"/>
      <point x="331" y="532"/>
      <point x="52" y="63"/>
      <point x="52" y="63" type="curve"/>
      <point x="71" y="63"/>
      <point x="415" y="63"/>
    </contour>
    <contour>
      <point x="370" y="655" type="curve"/>
      <point x="421" y="405"/>
      <point x="455" y="287"/>
      <point x="511" y="33" type="curve"/>
      <point x="500" y="8"/>
      <point x="468" y="-2"/>
      <point x="458" y="-4" type="curve"/>
      <point x="453" y="-1"/>
      <point x="423" y="3"/>
      <point x="401" y="3" type="curve" smooth="yes"/>
      <point x="167" y="3"/>
      <point x="-22" y="0"/>
      <point x="-22" y="0" type="curve"/>
      <point x="-25" y="0"/>
      <point x="-28" y="6"/>
      <point x="-27" y="10" type="curve"/>
      <point x="-27" y="10"/>
      <point x="176" y="336"/>
      <point x="305" y="548" type="curve" smooth="yes"/>
      <point x="321" y="575"/>
      <point x="327" y="593"/>
      <point x="337" y="618" type="curve"/>
      <point x="344" y="630"/>
      <point x="369" y="660"/>
    </contour>
  </outline>
</glyph>
